G04 #@! TF.GenerationSoftware,KiCad,Pcbnew,9.0.5*
G04 #@! TF.CreationDate,2026-01-11T11:17:55+01:00*
G04 #@! TF.ProjectId,nerdqaxe++,6e657264-7161-4786-952b-2b2e6b696361,rev?*
G04 #@! TF.SameCoordinates,Original*
G04 #@! TF.FileFunction,Soldermask,Bot*
G04 #@! TF.FilePolarity,Negative*
%FSLAX46Y46*%
G04 Gerber Fmt 4.6, Leading zero omitted, Abs format (unit mm)*
G04 Created by KiCad (PCBNEW 9.0.5) date 2026-01-11 11:17:55*
%MOMM*%
%LPD*%
G01*
G04 APERTURE LIST*
G04 Aperture macros list*
%AMRoundRect*
0 Rectangle with rounded corners*
0 $1 Rounding radius*
0 $2 $3 $4 $5 $6 $7 $8 $9 X,Y pos of 4 corners*
0 Add a 4 corners polygon primitive as box body*
4,1,4,$2,$3,$4,$5,$6,$7,$8,$9,$2,$3,0*
0 Add four circle primitives for the rounded corners*
1,1,$1+$1,$2,$3*
1,1,$1+$1,$4,$5*
1,1,$1+$1,$6,$7*
1,1,$1+$1,$8,$9*
0 Add four rect primitives between the rounded corners*
20,1,$1+$1,$2,$3,$4,$5,0*
20,1,$1+$1,$4,$5,$6,$7,0*
20,1,$1+$1,$6,$7,$8,$9,0*
20,1,$1+$1,$8,$9,$2,$3,0*%
%AMFreePoly0*
4,1,23,0.500000,-0.750000,0.000000,-0.750000,0.000000,-0.745722,-0.065263,-0.745722,-0.191342,-0.711940,-0.304381,-0.646677,-0.396677,-0.554381,-0.461940,-0.441342,-0.495722,-0.315263,-0.495722,-0.250000,-0.500000,-0.250000,-0.500000,0.250000,-0.495722,0.250000,-0.495722,0.315263,-0.461940,0.441342,-0.396677,0.554381,-0.304381,0.646677,-0.191342,0.711940,-0.065263,0.745722,0.000000,0.745722,
0.000000,0.750000,0.500000,0.750000,0.500000,-0.750000,0.500000,-0.750000,$1*%
%AMFreePoly1*
4,1,23,0.000000,0.745722,0.065263,0.745722,0.191342,0.711940,0.304381,0.646677,0.396677,0.554381,0.461940,0.441342,0.495722,0.315263,0.495722,0.250000,0.500000,0.250000,0.500000,-0.250000,0.495722,-0.250000,0.495722,-0.315263,0.461940,-0.441342,0.396677,-0.554381,0.304381,-0.646677,0.191342,-0.711940,0.065263,-0.745722,0.000000,-0.745722,0.000000,-0.750000,-0.500000,-0.750000,
-0.500000,0.750000,0.000000,0.750000,0.000000,0.745722,0.000000,0.745722,$1*%
G04 Aperture macros list end*
%ADD10RoundRect,0.250000X0.262500X0.450000X-0.262500X0.450000X-0.262500X-0.450000X0.262500X-0.450000X0*%
%ADD11RoundRect,0.250000X0.450000X-0.262500X0.450000X0.262500X-0.450000X0.262500X-0.450000X-0.262500X0*%
%ADD12C,1.500000*%
%ADD13C,5.000000*%
%ADD14C,0.800000*%
%ADD15C,6.400000*%
%ADD16C,4.000000*%
%ADD17C,1.700000*%
%ADD18R,1.000000X1.000000*%
%ADD19O,1.000000X1.000000*%
%ADD20C,1.100000*%
%ADD21R,2.030000X1.730000*%
%ADD22O,2.030000X1.730000*%
%ADD23C,1.600000*%
%ADD24C,2.204000*%
%ADD25O,3.704000X1.954000*%
%ADD26O,1.454000X2.704000*%
%ADD27RoundRect,0.250000X-0.475000X0.250000X-0.475000X-0.250000X0.475000X-0.250000X0.475000X0.250000X0*%
%ADD28RoundRect,0.250000X0.250000X0.475000X-0.250000X0.475000X-0.250000X-0.475000X0.250000X-0.475000X0*%
%ADD29RoundRect,0.250000X-0.262500X-0.450000X0.262500X-0.450000X0.262500X0.450000X-0.262500X0.450000X0*%
%ADD30RoundRect,0.250000X0.475000X-0.250000X0.475000X0.250000X-0.475000X0.250000X-0.475000X-0.250000X0*%
%ADD31RoundRect,0.250000X-0.450000X0.262500X-0.450000X-0.262500X0.450000X-0.262500X0.450000X0.262500X0*%
%ADD32RoundRect,0.225000X-0.225000X-0.250000X0.225000X-0.250000X0.225000X0.250000X-0.225000X0.250000X0*%
%ADD33RoundRect,0.250000X-0.325000X-1.100000X0.325000X-1.100000X0.325000X1.100000X-0.325000X1.100000X0*%
%ADD34RoundRect,0.250000X-0.250000X-0.475000X0.250000X-0.475000X0.250000X0.475000X-0.250000X0.475000X0*%
%ADD35RoundRect,0.225000X0.250000X-0.225000X0.250000X0.225000X-0.250000X0.225000X-0.250000X-0.225000X0*%
%ADD36RoundRect,0.250000X0.325000X1.100000X-0.325000X1.100000X-0.325000X-1.100000X0.325000X-1.100000X0*%
%ADD37R,1.000000X0.900000*%
%ADD38FreePoly0,0.000000*%
%ADD39FreePoly1,0.000000*%
%ADD40RoundRect,0.225000X0.225000X0.250000X-0.225000X0.250000X-0.225000X-0.250000X0.225000X-0.250000X0*%
%ADD41RoundRect,0.050000X-0.100000X0.285000X-0.100000X-0.285000X0.100000X-0.285000X0.100000X0.285000X0*%
G04 APERTURE END LIST*
D10*
X90942500Y-27310000D03*
X89117500Y-27310000D03*
D11*
X95990000Y-52132500D03*
X95990000Y-50307500D03*
X93470000Y-52125000D03*
X93470000Y-50300000D03*
D12*
X62000000Y-105000000D03*
D13*
X123000000Y-185000000D03*
D14*
X52600000Y-28000000D03*
X53302944Y-26302944D03*
X53302944Y-29697056D03*
X55000000Y-25600000D03*
D15*
X55000000Y-28000000D03*
D14*
X55000000Y-30400000D03*
X56697056Y-26302944D03*
X56697056Y-29697056D03*
X57400000Y-28000000D03*
D13*
X123000000Y-91000000D03*
D16*
X132500000Y-175500000D03*
D17*
X88310000Y-25250000D03*
X90850000Y-25250000D03*
X93390000Y-25250000D03*
X95930000Y-25250000D03*
X98470000Y-25250000D03*
X101010000Y-25250000D03*
X103550000Y-25250000D03*
X106090000Y-25250000D03*
X108630000Y-25250000D03*
X111170000Y-25250000D03*
X113710000Y-25250000D03*
X116250000Y-25250000D03*
X116250000Y-48170000D03*
X113710000Y-48170000D03*
X111170000Y-48170000D03*
X108630000Y-48170000D03*
X106090000Y-48170000D03*
X103550000Y-48170000D03*
X101010000Y-48170000D03*
X98470000Y-48170000D03*
X95930000Y-48170000D03*
X93390000Y-48170000D03*
X90850000Y-48170000D03*
X88310000Y-48170000D03*
D18*
X129875000Y-62900000D03*
D19*
X128605000Y-62900000D03*
X127335000Y-62900000D03*
X126065000Y-62900000D03*
X124795000Y-62900000D03*
X123525000Y-62900000D03*
D20*
X77660000Y-44980000D03*
D21*
X75500000Y-39900000D03*
D22*
X75500000Y-42440000D03*
X75500000Y-44980000D03*
X75500000Y-47520000D03*
D16*
X57500000Y-175500000D03*
X57500000Y-100500000D03*
D13*
X67000000Y-91000000D03*
X67000000Y-185000000D03*
D23*
X64200000Y-26850000D03*
D24*
X64200000Y-36100000D03*
D25*
X64200000Y-30100000D03*
D26*
X69000000Y-29600000D03*
X59400000Y-29600000D03*
D12*
X62000000Y-171000000D03*
D14*
X133600000Y-28000000D03*
X134302944Y-26302944D03*
X134302944Y-29697056D03*
X136000000Y-25600000D03*
D15*
X136000000Y-28000000D03*
D14*
X136000000Y-30400000D03*
X137697056Y-26302944D03*
X137697056Y-29697056D03*
X138400000Y-28000000D03*
D16*
X132500000Y-100500000D03*
D12*
X128000000Y-171000000D03*
D14*
X133600000Y-185025000D03*
X134302944Y-183327944D03*
X134302944Y-186722056D03*
X136000000Y-182625000D03*
D15*
X136000000Y-185025000D03*
D14*
X136000000Y-187425000D03*
X137697056Y-183327944D03*
X137697056Y-186722056D03*
X138400000Y-185025000D03*
X52600000Y-78000000D03*
X53302944Y-76302944D03*
X53302944Y-79697056D03*
X55000000Y-75600000D03*
D15*
X55000000Y-78000000D03*
D14*
X55000000Y-80400000D03*
X56697056Y-76302944D03*
X56697056Y-79697056D03*
X57400000Y-78000000D03*
D20*
X77660000Y-33180000D03*
D21*
X75500000Y-28100000D03*
D22*
X75500000Y-30640000D03*
X75500000Y-33180000D03*
X75500000Y-35720000D03*
D14*
X133600000Y-78000000D03*
X134302944Y-76302944D03*
X134302944Y-79697056D03*
X136000000Y-75600000D03*
D15*
X136000000Y-78000000D03*
D14*
X136000000Y-80400000D03*
X137697056Y-76302944D03*
X137697056Y-79697056D03*
X138400000Y-78000000D03*
D12*
X128000000Y-105000000D03*
D14*
X52600000Y-185025000D03*
X53302944Y-183327944D03*
X53302944Y-186722056D03*
X55000000Y-182625000D03*
D15*
X55000000Y-185025000D03*
D14*
X55000000Y-187425000D03*
X56697056Y-183327944D03*
X56697056Y-186722056D03*
X57400000Y-185025000D03*
D27*
X92180000Y-142340000D03*
X92180000Y-144240000D03*
D28*
X109190000Y-140190000D03*
X107290000Y-140190000D03*
D29*
X85697500Y-140460000D03*
X87522500Y-140460000D03*
D10*
X97900000Y-43000000D03*
X96075000Y-43000000D03*
D27*
X102860000Y-122190000D03*
X102860000Y-124090000D03*
D30*
X97190000Y-153950000D03*
X97190000Y-152050000D03*
D31*
X104720000Y-136687500D03*
X104720000Y-138512500D03*
D32*
X96325000Y-39400000D03*
X97875000Y-39400000D03*
D27*
X92855000Y-152020000D03*
X92855000Y-153920000D03*
D33*
X99725000Y-145100000D03*
X102675000Y-145100000D03*
D30*
X86890000Y-138545000D03*
X86890000Y-136645000D03*
D31*
X103100000Y-152077500D03*
X103100000Y-153902500D03*
D27*
X106790000Y-122220000D03*
X106790000Y-124120000D03*
D11*
X84900000Y-138522500D03*
X84900000Y-136697500D03*
D10*
X86212500Y-134900000D03*
X84387500Y-134900000D03*
D28*
X89600000Y-147700000D03*
X87700000Y-147700000D03*
D27*
X88870000Y-152020000D03*
X88870000Y-153920000D03*
D28*
X82190000Y-126120000D03*
X80290000Y-126120000D03*
D29*
X103757500Y-134890000D03*
X105582500Y-134890000D03*
D34*
X107130000Y-137500000D03*
X109030000Y-137500000D03*
X100340000Y-131770000D03*
X102240000Y-131770000D03*
X100210000Y-149700000D03*
X102110000Y-149700000D03*
X100220000Y-142400000D03*
X102120000Y-142400000D03*
X100330000Y-133750000D03*
X102230000Y-133750000D03*
D28*
X82590000Y-138030000D03*
X80690000Y-138030000D03*
D27*
X92200000Y-147930000D03*
X92200000Y-149830000D03*
D30*
X101150000Y-153965000D03*
X101150000Y-152065000D03*
D28*
X109160000Y-151110000D03*
X107260000Y-151110000D03*
D30*
X110970000Y-139050000D03*
X110970000Y-137150000D03*
X88890000Y-138545000D03*
X88890000Y-136645000D03*
D31*
X85010000Y-152047500D03*
X85010000Y-153872500D03*
D34*
X80760000Y-135070000D03*
X82660000Y-135070000D03*
D30*
X99175000Y-153965000D03*
X99175000Y-152065000D03*
D34*
X80700000Y-141020000D03*
X82600000Y-141020000D03*
D27*
X92100000Y-131950000D03*
X92100000Y-133850000D03*
D28*
X86700000Y-62400000D03*
X88600000Y-62400000D03*
D11*
X86920000Y-153882500D03*
X86920000Y-152057500D03*
D30*
X90887476Y-124088486D03*
X90887476Y-122188486D03*
X102770000Y-138520000D03*
X102770000Y-136620000D03*
D28*
X89650000Y-133700000D03*
X87750000Y-133700000D03*
X89650000Y-131700000D03*
X87750000Y-131700000D03*
D10*
X112512500Y-69700000D03*
X110687500Y-69700000D03*
D30*
X97980000Y-149840000D03*
X97980000Y-147940000D03*
X87100000Y-120650000D03*
X87100000Y-118750000D03*
D34*
X107700000Y-126130000D03*
X109600000Y-126130000D03*
D35*
X94500000Y-42775000D03*
X94500000Y-41225000D03*
D30*
X97820000Y-133860000D03*
X97820000Y-131960000D03*
D31*
X84927476Y-122215986D03*
X84927476Y-124040986D03*
D36*
X90175000Y-129000000D03*
X87225000Y-129000000D03*
D30*
X88887476Y-124088486D03*
X88887476Y-122188486D03*
X97820000Y-144240000D03*
X97820000Y-142340000D03*
D10*
X104182500Y-140420000D03*
X102357500Y-140420000D03*
D27*
X100850000Y-122190000D03*
X100850000Y-124090000D03*
D37*
X85275000Y-120475000D03*
X83125000Y-120475000D03*
X83125000Y-118925000D03*
X85275000Y-118925000D03*
D34*
X100370000Y-126340000D03*
X102270000Y-126340000D03*
X100210000Y-147700000D03*
X102110000Y-147700000D03*
D28*
X109220000Y-134900000D03*
X107320000Y-134900000D03*
D11*
X83007476Y-124040986D03*
X83007476Y-122215986D03*
D10*
X97900000Y-41100000D03*
X96075000Y-41100000D03*
D38*
X89390000Y-43890000D03*
D39*
X90690000Y-43890000D03*
D36*
X90155000Y-145110000D03*
X87205000Y-145110000D03*
D11*
X104820000Y-124062500D03*
X104820000Y-122237500D03*
D34*
X80830000Y-151140000D03*
X82730000Y-151140000D03*
D28*
X82730000Y-153130000D03*
X80830000Y-153130000D03*
D40*
X97675000Y-44700000D03*
X96125000Y-44700000D03*
D10*
X112512500Y-67700000D03*
X110687500Y-67700000D03*
D30*
X90890000Y-138545000D03*
X90890000Y-136645000D03*
D41*
X86600000Y-64759539D03*
X87100000Y-64759539D03*
X87600000Y-64759539D03*
X87600000Y-66239539D03*
X87100000Y-66239539D03*
X86600000Y-66239539D03*
D38*
X97200000Y-27250000D03*
D39*
X98500000Y-27250000D03*
D28*
X89620000Y-142470000D03*
X87720000Y-142470000D03*
D33*
X99845000Y-129070000D03*
X102795000Y-129070000D03*
D28*
X89620000Y-149700000D03*
X87720000Y-149700000D03*
X89640000Y-126300000D03*
X87740000Y-126300000D03*
D34*
X106920000Y-153120000D03*
X108820000Y-153120000D03*
D30*
X86887476Y-124088486D03*
X86887476Y-122188486D03*
D27*
X90870000Y-152020000D03*
X90870000Y-153920000D03*
D30*
X98830000Y-138530000D03*
X98830000Y-136630000D03*
X97890000Y-127940000D03*
X97890000Y-126040000D03*
D27*
X81030000Y-122190000D03*
X81030000Y-124090000D03*
X92100000Y-126050000D03*
X92100000Y-127950000D03*
X98890000Y-122190000D03*
X98890000Y-124090000D03*
D30*
X100800000Y-138520000D03*
X100800000Y-136620000D03*
M02*
