M48
; DRILL file {KiCad 8.0.1-8.0.1-1~ubuntu22.04.1} date 2024-10-18T17:17:47+0200
; FORMAT={-:-/ absolute / metric / decimal}
; #@! TF.CreationDate,2024-10-18T17:17:47+02:00
; #@! TF.GenerationSoftware,Kicad,Pcbnew,8.0.1-8.0.1-1~ubuntu22.04.1
; #@! TF.FileFunction,Plated,1,6,PTH
FMAT,2
METRIC
; #@! TA.AperFunction,Plated,PTH,ViaDrill
T1C0.300
; #@! TA.AperFunction,Plated,PTH,ComponentDrill
T2C0.300
; #@! TA.AperFunction,Plated,PTH,ViaDrill
T3C0.400
; #@! TA.AperFunction,Plated,PTH,ComponentDrill
T4C0.500
; #@! TA.AperFunction,Plated,PTH,ViaDrill
T5C0.600
; #@! TA.AperFunction,Plated,PTH,ComponentDrill
T6C0.650
; #@! TA.AperFunction,Plated,PTH,ComponentDrill
T7C0.800
; #@! TA.AperFunction,Plated,PTH,ComponentDrill
T8C1.000
; #@! TA.AperFunction,Plated,PTH,ComponentDrill
T9C1.020
; #@! TA.AperFunction,Plated,PTH,ComponentDrill
T10C1.500
; #@! TA.AperFunction,Plated,PTH,ComponentDrill
T11C3.200
%
G90
G05
T1
X53.762Y-54.469
X54.3Y-52.9
X55.0Y-52.9
X55.7Y-52.9
X57.1Y-52.0
X57.1Y-52.7
X57.1Y-53.4
X58.5Y-49.9
X58.5Y-50.6
X58.5Y-51.3
X68.6Y-41.6
X68.6Y-42.3
X69.4Y-41.6
X69.4Y-42.3
X70.2Y-41.6
X70.2Y-42.3
X76.73Y-58.21
X76.89Y-68.67
X77.02Y-79.22
X78.469Y-80.607
X78.479Y-69.917
X78.489Y-59.197
X79.08Y-75.01
X79.08Y-76.31
X79.08Y-77.56
X79.08Y-78.852
X79.09Y-64.32
X79.09Y-65.62
X79.09Y-66.87
X79.09Y-68.162
X79.138Y-69.381
X79.148Y-58.661
X79.239Y-53.6
X79.239Y-54.9
X79.239Y-56.15
X79.239Y-57.442
X79.48Y-83.61
X79.49Y-72.92
X79.5Y-62.2
X79.56Y-126.15
X79.9Y-141.1
X79.92Y-138.06
X79.94Y-135.06
X80.09Y-153.21
X80.1Y-151.2
X80.188Y-40.7
X80.487Y-29.237
X80.987Y-40.8
X81.2Y-124.8
X81.537Y-33.1
X81.737Y-38.55
X81.737Y-41.7
X81.794Y-135.04
X81.794Y-141.01
X81.794Y-151.2
X82.0Y-122.19
X82.03Y-75.01
X82.03Y-76.31
X82.03Y-77.61
X82.03Y-78.81
X82.03Y-80.11
X82.04Y-64.32
X82.04Y-65.62
X82.04Y-66.92
X82.04Y-68.12
X82.04Y-69.42
X82.05Y-53.6
X82.05Y-54.9
X82.05Y-56.2
X82.05Y-57.4
X82.05Y-58.7
X82.237Y-37.05
X82.4Y-120.7
X82.562Y-30.125
X82.598Y-138.9
X82.598Y-152.315
X82.78Y-80.61
X82.79Y-69.92
X82.8Y-59.2
X82.888Y-41.375
X82.958Y-38.639
X82.97Y-126.1
X83.35Y-135.1
X83.36Y-141.06
X83.43Y-151.08
X83.438Y-32.35
X83.441Y-39.338
X83.755Y-80.882
X83.8Y-119.4
X83.866Y-123.434
X84.0Y-122.19
X84.5Y-58.3
X84.52Y-69.02
X84.8Y-40.1
X84.8Y-41.8
X84.87Y-140.48
X84.91Y-139.2
X84.997Y-123.348
X85.2Y-44.812
X85.45Y-39.411
X85.608Y-80.138
X85.618Y-69.448
X85.628Y-58.728
X85.787Y-32.575
X85.91Y-152.82
X85.91Y-136.697
X85.987Y-31.2
X86.087Y-33.475
X86.12Y-39.809
X86.2Y-123.4
X86.475Y-38.662
X86.68Y-153.18
X86.98Y-80.11
X86.99Y-69.42
X87.05Y-58.5
X87.35Y-135.54
X87.75Y-152.59
X88.4Y-119.5
X88.506Y-140.4
X88.546Y-42.426
X89.0Y-118.7
X89.049Y-125.1
X89.1Y-45.212
X89.1Y-141.16
X89.177Y-150.95
X89.25Y-134.97
X89.318Y-42.457
X89.522Y-34.623
X89.6Y-26.4
X89.8Y-140.73
X89.813Y-124.855
X89.96Y-151.08
X90.1Y-42.4
X90.193Y-135.405
X90.52Y-141.19
X90.579Y-134.762
X90.594Y-34.6
X90.6Y-119.3
X90.804Y-150.705
X90.932Y-42.31
X90.94Y-125.0
X90.98Y-134.05
X90.98Y-142.18
X90.98Y-149.93
X91.08Y-126.12
X91.175Y-30.275
X91.882Y-45.489
X92.2Y-48.9
X92.38Y-30.5
X92.732Y-42.146
X93.296Y-41.51
X93.4Y-51.7
X93.746Y-34.3
X93.81Y-30.59
X94.6Y-39.975
X97.0Y-45.6
X97.05Y-30.25
X97.144Y-37.7
X97.144Y-40.0
X98.0Y-28.8
X98.4Y-44.7
X98.5Y-39.4
X98.966Y-149.854
X98.997Y-133.816
X99.01Y-126.14
X99.03Y-142.13
X99.1Y-134.65
X99.158Y-150.682
X99.199Y-125.293
X99.38Y-37.92
X99.47Y-141.238
X100.035Y-151.16
X100.05Y-140.73
X100.06Y-135.25
X100.1Y-39.6
X100.14Y-124.943
X100.761Y-134.916
X100.83Y-150.86
X100.85Y-141.12
X100.9Y-125.2
X101.34Y-140.48
X102.13Y-153.965
X102.27Y-124.81
X102.4Y-46.8
X102.67Y-135.54
X104.16Y-151.53
X104.62Y-135.88
X104.72Y-124.8
X104.72Y-139.32
X106.25Y-151.03
X106.3Y-117.5
X106.38Y-140.98
X106.619Y-134.866
X106.836Y-125.314
X106.87Y-121.6
X106.97Y-126.1
X107.015Y-118.18
X107.258Y-118.995
X107.532Y-136.72
X107.532Y-153.01
X108.21Y-151.08
X108.24Y-140.21
X108.27Y-134.92
X109.108Y-136.523
X109.112Y-67.8
X109.112Y-69.4
X109.21Y-141.11
X109.53Y-153.1
X109.91Y-151.09
X109.95Y-120.65
X110.02Y-134.95
X110.25Y-126.03
X110.41Y-137.976
X112.2Y-138.7
X118.6Y-47.2
X119.355Y-48.395
X123.312Y-65.831
X123.5Y-65.1
X124.1Y-55.1
X124.3Y-64.4
X125.4Y-71.2
X126.0Y-55.1
X126.3Y-70.8
X127.0Y-50.8
X127.0Y-52.4
X127.2Y-61.3
X127.3Y-69.7
X128.64Y-59.92
X128.69Y-54.13
X129.82Y-56.82
T2
X88.594Y-36.938
X88.594Y-37.938
X88.594Y-38.938
X88.594Y-39.938
X89.594Y-36.938
X89.594Y-37.938
X89.594Y-38.938
X89.594Y-39.938
X90.594Y-36.938
X90.594Y-37.938
X90.594Y-38.938
X90.594Y-39.938
X91.594Y-36.938
X91.594Y-37.938
X91.594Y-38.938
X91.594Y-39.938
T3
X53.542Y-58.8
X53.542Y-59.8
X53.542Y-60.8
X53.542Y-68.25
X53.542Y-69.25
X53.542Y-70.25
X54.542Y-58.8
X54.542Y-59.8
X54.542Y-60.8
X54.542Y-68.25
X54.542Y-69.25
X54.542Y-70.25
X56.25Y-40.25
X56.25Y-41.25
X56.25Y-42.25
X67.58Y-79.285
X67.59Y-80.95
X67.75Y-50.25
X67.75Y-51.75
X67.75Y-59.5
X67.75Y-61.0
X67.75Y-70.25
X67.75Y-71.75
X68.25Y-60.25
X68.25Y-71.0
X68.58Y-79.335
X68.59Y-81.0
X68.75Y-50.25
X68.75Y-51.75
X68.75Y-59.5
X68.75Y-61.0
X68.75Y-70.25
X68.75Y-71.75
X69.25Y-60.25
X69.25Y-71.0
X69.58Y-79.335
X69.59Y-81.0
X69.75Y-50.25
X69.75Y-51.75
X69.75Y-59.5
X69.75Y-61.0
X69.75Y-70.25
X69.75Y-71.75
X70.25Y-60.25
X70.25Y-71.0
X70.58Y-79.335
X70.59Y-81.0
X70.75Y-50.25
X70.75Y-51.75
X70.75Y-59.5
X70.75Y-61.0
X70.75Y-70.25
X70.75Y-71.75
X71.25Y-60.25
X71.25Y-71.0
X71.58Y-79.335
X71.59Y-81.0
X71.75Y-50.25
X71.75Y-51.75
X71.75Y-59.5
X71.75Y-61.0
X71.75Y-70.25
X71.75Y-71.75
X72.25Y-60.25
X72.25Y-71.0
X72.58Y-79.335
X72.59Y-81.0
X72.75Y-50.25
X72.75Y-51.75
X72.75Y-59.5
X72.75Y-61.0
X72.75Y-70.25
X72.75Y-71.75
X74.195Y-72.827
X74.205Y-62.137
X74.215Y-51.417
X75.195Y-72.827
X75.205Y-62.137
X76.08Y-72.81
X80.58Y-73.11
X80.58Y-75.01
X80.58Y-76.31
X80.58Y-77.61
X80.58Y-78.81
X80.59Y-64.32
X80.59Y-65.62
X80.59Y-66.92
X80.59Y-68.12
X80.59Y-69.42
X80.6Y-53.6
X80.6Y-54.9
X80.6Y-56.2
X80.6Y-57.4
X80.6Y-58.7
X83.36Y-143.16
X83.36Y-144.46
X83.36Y-145.36
X83.36Y-146.66
X83.36Y-147.46
X83.36Y-148.76
X83.4Y-127.2
X83.4Y-128.5
X83.4Y-129.4
X83.4Y-130.7
X83.4Y-131.5
X83.4Y-132.8
X84.36Y-143.16
X84.36Y-144.46
X84.36Y-145.36
X84.36Y-146.66
X84.36Y-147.46
X84.36Y-148.76
X84.4Y-127.2
X84.4Y-128.5
X84.4Y-129.4
X84.4Y-130.7
X84.4Y-131.5
X84.4Y-132.8
X85.26Y-143.16
X85.26Y-144.46
X85.26Y-145.36
X85.26Y-146.66
X85.26Y-147.46
X85.26Y-148.76
X85.3Y-127.2
X85.3Y-128.5
X85.3Y-129.4
X85.3Y-130.7
X85.3Y-131.5
X85.3Y-132.8
X86.26Y-143.16
X86.26Y-144.46
X86.26Y-145.36
X86.26Y-146.66
X86.26Y-147.47
X86.26Y-148.76
X86.3Y-127.2
X86.3Y-128.5
X86.3Y-129.4
X86.3Y-130.7
X86.3Y-131.5
X86.3Y-132.8
X87.06Y-143.16
X87.06Y-144.46
X87.06Y-145.36
X87.06Y-146.66
X87.06Y-147.46
X87.06Y-148.76
X87.1Y-127.2
X87.1Y-128.5
X87.1Y-129.4
X87.1Y-130.7
X87.1Y-131.5
X87.1Y-132.8
X88.16Y-143.16
X88.16Y-144.46
X88.16Y-145.36
X88.16Y-146.66
X88.16Y-147.46
X88.16Y-148.76
X88.2Y-127.2
X88.2Y-128.5
X88.2Y-129.4
X88.2Y-130.7
X88.2Y-131.5
X88.2Y-132.8
X89.16Y-143.16
X89.16Y-144.46
X89.16Y-145.36
X89.16Y-146.66
X89.16Y-147.46
X89.16Y-148.76
X89.2Y-127.2
X89.2Y-128.5
X89.2Y-129.4
X89.2Y-130.7
X89.2Y-131.5
X89.2Y-132.8
X90.46Y-143.16
X90.46Y-144.46
X90.46Y-145.36
X90.46Y-146.66
X90.46Y-147.46
X90.46Y-148.76
X90.5Y-127.2
X90.5Y-128.5
X90.5Y-129.4
X90.5Y-130.7
X90.5Y-131.5
X90.5Y-132.8
X99.5Y-127.2
X99.5Y-128.5
X99.5Y-129.3
X99.5Y-130.6
X99.5Y-131.5
X99.5Y-132.8
X99.5Y-143.2
X99.5Y-144.5
X99.5Y-145.3
X99.5Y-146.6
X99.5Y-147.5
X99.5Y-148.8
X100.75Y-50.75
X100.75Y-60.0
X100.75Y-61.5
X100.75Y-70.75
X100.75Y-72.25
X100.75Y-81.5
X100.8Y-127.2
X100.8Y-128.5
X100.8Y-129.3
X100.8Y-130.6
X100.8Y-131.5
X100.8Y-132.8
X100.8Y-143.2
X100.8Y-144.5
X100.8Y-145.3
X100.8Y-146.6
X100.8Y-147.5
X100.8Y-148.8
X101.25Y-49.9
X101.25Y-60.75
X101.25Y-71.5
X101.25Y-82.25
X101.75Y-50.75
X101.75Y-60.0
X101.75Y-61.5
X101.75Y-70.75
X101.75Y-72.25
X101.75Y-81.5
X101.8Y-127.2
X101.8Y-128.5
X101.8Y-129.3
X101.8Y-130.6
X101.8Y-131.5
X101.8Y-132.8
X101.8Y-143.2
X101.8Y-144.5
X101.8Y-145.3
X101.8Y-146.6
X101.8Y-147.5
X101.8Y-148.8
X102.25Y-49.9
X102.25Y-60.75
X102.25Y-71.5
X102.25Y-82.25
X102.75Y-50.75
X102.75Y-60.0
X102.75Y-61.5
X102.75Y-70.75
X102.75Y-72.25
X102.75Y-81.5
X102.9Y-127.2
X102.9Y-128.5
X102.9Y-129.3
X102.9Y-130.6
X102.9Y-131.5
X102.9Y-132.8
X102.9Y-143.2
X102.9Y-144.5
X102.9Y-145.3
X102.9Y-146.6
X102.9Y-147.5
X102.9Y-148.8
X103.25Y-49.9
X103.25Y-60.75
X103.25Y-71.5
X103.25Y-82.25
X103.7Y-127.2
X103.7Y-128.5
X103.7Y-129.3
X103.7Y-130.6
X103.7Y-131.5
X103.7Y-132.8
X103.7Y-143.2
X103.7Y-144.5
X103.7Y-145.3
X103.7Y-146.6
X103.7Y-147.5
X103.7Y-148.8
X103.75Y-50.75
X103.75Y-60.0
X103.75Y-61.5
X103.75Y-70.75
X103.75Y-72.25
X103.75Y-81.5
X104.25Y-49.9
X104.25Y-60.75
X104.25Y-71.5
X104.25Y-82.25
X104.7Y-127.2
X104.7Y-128.5
X104.7Y-129.3
X104.7Y-130.6
X104.7Y-131.5
X104.7Y-132.8
X104.7Y-143.2
X104.7Y-144.5
X104.7Y-145.3
X104.7Y-146.6
X104.7Y-147.5
X104.7Y-148.8
X104.75Y-50.75
X104.75Y-60.0
X104.75Y-61.5
X104.75Y-70.75
X104.75Y-72.25
X104.75Y-81.5
X105.25Y-49.9
X105.25Y-60.75
X105.25Y-71.5
X105.25Y-82.25
X105.6Y-127.2
X105.6Y-128.5
X105.6Y-129.3
X105.6Y-130.6
X105.6Y-131.5
X105.6Y-132.8
X105.6Y-143.2
X105.6Y-144.5
X105.6Y-145.3
X105.6Y-146.6
X105.6Y-147.5
X105.6Y-148.8
X105.75Y-50.75
X105.75Y-60.0
X105.75Y-61.5
X105.75Y-70.75
X105.75Y-72.25
X105.75Y-81.5
X106.25Y-49.9
X106.25Y-60.75
X106.25Y-71.5
X106.25Y-82.25
X106.6Y-127.2
X106.6Y-128.5
X106.6Y-129.3
X106.6Y-130.6
X106.6Y-131.5
X106.6Y-132.8
X106.6Y-143.2
X106.6Y-144.5
X106.6Y-145.3
X106.6Y-146.6
X106.6Y-147.5
X106.6Y-148.8
X106.75Y-50.75
X106.75Y-60.0
X106.75Y-61.5
X106.75Y-70.75
X106.75Y-72.25
X106.75Y-81.5
X107.25Y-49.9
X107.25Y-60.75
X107.25Y-71.5
X107.25Y-82.25
X107.75Y-50.75
X107.75Y-60.0
X107.75Y-61.5
X107.75Y-70.75
X107.75Y-72.25
X107.75Y-81.5
X108.25Y-49.9
X108.25Y-60.75
X108.25Y-71.5
X108.25Y-82.25
X108.75Y-50.75
X108.75Y-60.0
X108.75Y-61.5
X108.75Y-70.75
X108.75Y-72.25
X108.75Y-81.5
X109.25Y-49.9
X109.75Y-50.75
X110.25Y-49.9
X110.75Y-50.75
X111.25Y-49.9
X111.75Y-50.75
X112.25Y-49.9
X112.75Y-50.75
X122.5Y-54.0
X132.463Y-59.111
X132.55Y-54.29
X133.676Y-54.5
X133.957Y-58.902
X135.176Y-52.1
X135.268Y-56.636
X135.9Y-59.2
X135.926Y-54.256
X136.989Y-60.819
X137.176Y-54.456
X138.8Y-53.0
T4
X52.6Y-28.0
X52.6Y-78.0
X52.6Y-185.025
X53.303Y-26.303
X53.303Y-29.697
X53.303Y-76.303
X53.303Y-79.697
X53.303Y-183.328
X53.303Y-186.722
X55.0Y-25.6
X55.0Y-30.4
X55.0Y-75.6
X55.0Y-80.4
X55.0Y-182.625
X55.0Y-187.425
X56.697Y-26.303
X56.697Y-29.697
X56.697Y-76.303
X56.697Y-79.697
X56.697Y-183.328
X56.697Y-186.722
X57.4Y-28.0
X57.4Y-78.0
X57.4Y-185.025
X133.6Y-28.0
X133.6Y-78.0
X133.6Y-185.025
X134.303Y-26.303
X134.303Y-29.697
X134.303Y-76.303
X134.303Y-79.697
X134.303Y-183.328
X134.303Y-186.722
X136.0Y-25.6
X136.0Y-30.4
X136.0Y-75.6
X136.0Y-80.4
X136.0Y-182.625
X136.0Y-187.425
X137.697Y-26.303
X137.697Y-29.697
X137.697Y-76.303
X137.697Y-79.697
X137.697Y-183.328
X137.697Y-186.722
X138.4Y-28.0
X138.4Y-78.0
X138.4Y-185.025
T5
X110.5Y-55.5
X110.5Y-57.0
X110.5Y-58.5
X110.5Y-60.0
X110.5Y-61.5
X110.5Y-63.0
X110.5Y-64.5
X110.5Y-66.0
X110.5Y-71.5
X110.5Y-73.0
X110.5Y-74.5
X110.5Y-76.0
X110.5Y-77.5
X110.5Y-79.0
X110.5Y-80.5
X110.5Y-82.0
X112.0Y-55.5
X112.0Y-57.0
X112.0Y-58.5
X112.0Y-60.0
X112.0Y-61.5
X112.0Y-63.0
X112.0Y-64.5
X112.0Y-66.0
X112.0Y-71.5
X112.0Y-73.0
X112.0Y-74.5
X112.0Y-76.0
X112.0Y-77.5
X112.0Y-79.0
X112.0Y-80.5
X112.0Y-82.0
X113.5Y-55.5
X113.5Y-57.0
X113.5Y-58.5
X113.5Y-60.0
X113.5Y-61.5
X113.5Y-63.0
X113.5Y-64.5
X113.5Y-66.0
X113.5Y-71.5
X113.5Y-73.0
X113.5Y-74.5
X113.5Y-76.0
X113.5Y-77.5
X113.5Y-79.0
X113.5Y-80.5
X113.5Y-82.0
X115.0Y-55.5
X115.0Y-57.0
X115.0Y-58.5
X115.0Y-60.0
X115.0Y-61.5
X115.0Y-63.0
X115.0Y-64.5
X115.0Y-66.0
X115.0Y-67.5
X115.0Y-70.0
X115.0Y-71.5
X115.0Y-73.0
X115.0Y-74.5
X115.0Y-76.0
X115.0Y-77.5
X115.0Y-79.0
X115.0Y-80.5
X115.0Y-82.0
X116.5Y-55.5
X116.5Y-57.0
X116.5Y-58.5
X116.5Y-60.0
X116.5Y-61.5
X116.5Y-63.0
X116.5Y-64.5
X116.5Y-66.0
X116.5Y-67.5
X116.5Y-70.0
X116.5Y-71.5
X116.5Y-73.0
X116.5Y-74.5
X116.5Y-76.0
X116.5Y-77.5
X116.5Y-79.0
X116.5Y-80.5
X116.5Y-82.0
X118.0Y-55.5
X118.0Y-57.0
X118.0Y-58.5
X118.0Y-60.0
X118.0Y-61.5
X118.0Y-63.0
X118.0Y-64.5
X118.0Y-66.0
X118.0Y-67.5
X118.0Y-70.0
X118.0Y-71.5
X118.0Y-73.0
X118.0Y-74.5
X118.0Y-76.0
X118.0Y-77.5
X118.0Y-79.0
X118.0Y-80.5
X118.0Y-82.0
T6
X123.525Y-62.9
X124.795Y-62.9
X126.065Y-62.9
X127.335Y-62.9
X128.605Y-62.9
X129.875Y-62.9
T8
X88.31Y-25.25
X88.31Y-48.17
X90.85Y-25.25
X90.85Y-48.17
X93.39Y-25.25
X93.39Y-48.17
X95.93Y-25.25
X95.93Y-48.17
X98.47Y-25.25
X98.47Y-48.17
X101.01Y-25.25
X101.01Y-48.17
X103.55Y-25.25
X103.55Y-48.17
X106.09Y-25.25
X106.09Y-48.17
X108.63Y-25.25
X108.63Y-48.17
X111.17Y-25.25
X111.17Y-48.17
X113.71Y-25.25
X113.71Y-48.17
X116.25Y-25.25
X116.25Y-48.17
T9
X75.5Y-28.1
X75.5Y-30.64
X75.5Y-33.18
X75.5Y-35.72
X75.5Y-39.9
X75.5Y-42.44
X75.5Y-44.98
X75.5Y-47.52
T10
X64.2Y-36.1
T11
X55.0Y-28.0
X55.0Y-78.0
X55.0Y-185.025
X136.0Y-28.0
X136.0Y-78.0
X136.0Y-185.025
T7
X59.4Y-30.2G85X59.4Y-29.0
G05
X65.3Y-30.1G85X63.1Y-30.1
G05
X69.0Y-30.2G85X69.0Y-29.0
G05
M30
