G04 #@! TF.GenerationSoftware,KiCad,Pcbnew,7.0.7-7.0.7~ubuntu22.04.1*
G04 #@! TF.CreationDate,2024-01-15T12:07:44+01:00*
G04 #@! TF.ProjectId,qaxe,71617865-2e6b-4696-9361-645f70636258,rev?*
G04 #@! TF.SameCoordinates,Original*
G04 #@! TF.FileFunction,Paste,Top*
G04 #@! TF.FilePolarity,Positive*
%FSLAX46Y46*%
G04 Gerber Fmt 4.6, Leading zero omitted, Abs format (unit mm)*
G04 Created by KiCad (PCBNEW 7.0.7-7.0.7~ubuntu22.04.1) date 2024-01-15 12:07:44*
%MOMM*%
%LPD*%
G01*
G04 APERTURE LIST*
G04 Aperture macros list*
%AMRoundRect*
0 Rectangle with rounded corners*
0 $1 Rounding radius*
0 $2 $3 $4 $5 $6 $7 $8 $9 X,Y pos of 4 corners*
0 Add a 4 corners polygon primitive as box body*
4,1,4,$2,$3,$4,$5,$6,$7,$8,$9,$2,$3,0*
0 Add four circle primitives for the rounded corners*
1,1,$1+$1,$2,$3*
1,1,$1+$1,$4,$5*
1,1,$1+$1,$6,$7*
1,1,$1+$1,$8,$9*
0 Add four rect primitives between the rounded corners*
20,1,$1+$1,$2,$3,$4,$5,0*
20,1,$1+$1,$4,$5,$6,$7,0*
20,1,$1+$1,$6,$7,$8,$9,0*
20,1,$1+$1,$8,$9,$2,$3,0*%
%AMFreePoly0*
4,1,48,0.206759,0.287330,0.222702,0.287330,0.235600,0.277958,0.250763,0.273032,0.260133,0.260133,0.273032,0.250763,0.277958,0.235600,0.287330,0.222702,0.287330,0.206759,0.292257,0.191596,0.292257,-0.108205,0.289747,-0.115928,0.291018,-0.123951,0.280315,-0.144955,0.273032,-0.167372,0.266461,-0.172145,0.262774,-0.179383,0.179383,-0.262774,0.172145,-0.266461,0.167372,-0.273032,
0.144953,-0.280316,0.123952,-0.291017,0.115930,-0.289746,0.108205,-0.292257,-0.191596,-0.292257,-0.206759,-0.287330,-0.222702,-0.287330,-0.235600,-0.277958,-0.250763,-0.273032,-0.260133,-0.260133,-0.273032,-0.250763,-0.277958,-0.235600,-0.287330,-0.222702,-0.287330,-0.206759,-0.292257,-0.191596,-0.292257,0.191596,-0.287330,0.206759,-0.287330,0.222702,-0.277958,0.235600,-0.273032,0.250763,
-0.260133,0.260133,-0.250763,0.273032,-0.235600,0.277958,-0.222702,0.287330,-0.206759,0.287330,-0.191596,0.292257,0.191596,0.292257,0.206759,0.287330,0.206759,0.287330,$1*%
%AMFreePoly1*
4,1,51,0.147653,0.402231,0.149784,0.402802,0.153047,0.401280,0.170637,0.398179,0.184320,0.386697,0.200509,0.379148,0.268292,0.311365,0.271204,0.307206,0.273115,0.306103,0.274347,0.302717,0.284591,0.288088,0.286147,0.270294,0.292257,0.253509,0.292257,-0.253509,0.291375,-0.258507,0.291947,-0.260640,0.290423,-0.263906,0.287323,-0.281493,0.275841,-0.295175,0.268292,-0.311365,
0.200509,-0.379148,0.196350,-0.382060,0.195247,-0.383971,0.191862,-0.385202,0.177233,-0.395447,0.159438,-0.397003,0.142653,-0.403113,-0.210436,-0.403113,-0.221065,-0.401238,-0.224644,-0.401870,-0.227791,-0.400053,-0.238420,-0.398179,-0.254702,-0.384516,-0.273115,-0.373886,-0.275640,-0.366946,-0.281295,-0.362202,-0.284986,-0.341269,-0.292257,-0.321292,-0.292257,0.321292,-0.290382,0.331921,
-0.291014,0.335500,-0.289197,0.338647,-0.287323,0.349276,-0.273660,0.365558,-0.263030,0.383971,-0.256090,0.386496,-0.251346,0.392151,-0.230413,0.395842,-0.210436,0.403113,0.142653,0.403113,0.147653,0.402231,0.147653,0.402231,$1*%
%AMFreePoly2*
4,1,48,0.115930,0.289746,0.123952,0.291017,0.144953,0.280316,0.167372,0.273032,0.172145,0.266461,0.179383,0.262774,0.262774,0.179383,0.266461,0.172145,0.273032,0.167372,0.280315,0.144955,0.291018,0.123951,0.289747,0.115928,0.292257,0.108205,0.292257,-0.191596,0.287330,-0.206759,0.287330,-0.222702,0.277958,-0.235600,0.273032,-0.250763,0.260133,-0.260133,0.250763,-0.273032,
0.235600,-0.277958,0.222702,-0.287330,0.206759,-0.287330,0.191596,-0.292257,-0.191596,-0.292257,-0.206759,-0.287330,-0.222702,-0.287330,-0.235600,-0.277958,-0.250763,-0.273032,-0.260133,-0.260133,-0.273032,-0.250763,-0.277958,-0.235600,-0.287330,-0.222702,-0.287330,-0.206759,-0.292257,-0.191596,-0.292257,0.191596,-0.287330,0.206759,-0.287330,0.222702,-0.277958,0.235600,-0.273032,0.250763,
-0.260133,0.260133,-0.250763,0.273032,-0.235600,0.277958,-0.222702,0.287330,-0.206759,0.287330,-0.191596,0.292257,0.108205,0.292257,0.115930,0.289746,0.115930,0.289746,$1*%
%AMFreePoly3*
4,1,51,0.331921,0.290382,0.335500,0.291014,0.338647,0.289197,0.349276,0.287323,0.365558,0.273660,0.383971,0.263030,0.386496,0.256090,0.392151,0.251346,0.395842,0.230413,0.403113,0.210436,0.403113,-0.142653,0.402231,-0.147651,0.402803,-0.149784,0.401279,-0.153050,0.398179,-0.170637,0.386697,-0.184319,0.379148,-0.200509,0.311365,-0.268292,0.307206,-0.271204,0.306103,-0.273115,
0.302718,-0.274346,0.288089,-0.284591,0.270294,-0.286147,0.253509,-0.292257,-0.253509,-0.292257,-0.258507,-0.291375,-0.260640,-0.291947,-0.263906,-0.290423,-0.281493,-0.287323,-0.295175,-0.275841,-0.311365,-0.268292,-0.379148,-0.200509,-0.382060,-0.196350,-0.383971,-0.195247,-0.385202,-0.191862,-0.395447,-0.177233,-0.397003,-0.159438,-0.403113,-0.142653,-0.403113,0.210436,-0.401238,0.221065,
-0.401870,0.224644,-0.400053,0.227791,-0.398179,0.238420,-0.384516,0.254702,-0.373886,0.273115,-0.366946,0.275640,-0.362202,0.281295,-0.341269,0.284986,-0.321292,0.292257,0.321292,0.292257,0.331921,0.290382,0.331921,0.290382,$1*%
%AMFreePoly4*
4,1,51,0.258509,0.291375,0.260640,0.291946,0.263903,0.290424,0.281493,0.287323,0.295176,0.275841,0.311365,0.268292,0.379148,0.200509,0.382060,0.196350,0.383971,0.195247,0.385203,0.191861,0.395447,0.177232,0.397003,0.159438,0.403113,0.142653,0.403113,-0.210436,0.401238,-0.221065,0.401870,-0.224644,0.400053,-0.227791,0.398179,-0.238420,0.384516,-0.254702,0.373886,-0.273115,
0.366946,-0.275640,0.362202,-0.281295,0.341269,-0.284986,0.321292,-0.292257,-0.321292,-0.292257,-0.331921,-0.290382,-0.335500,-0.291014,-0.338647,-0.289197,-0.349276,-0.287323,-0.365558,-0.273660,-0.383971,-0.263030,-0.386496,-0.256090,-0.392151,-0.251346,-0.395842,-0.230413,-0.403113,-0.210436,-0.403113,0.142653,-0.402231,0.147653,-0.402802,0.149784,-0.401280,0.153047,-0.398179,0.170637,
-0.386697,0.184320,-0.379148,0.200509,-0.311365,0.268292,-0.307206,0.271204,-0.306103,0.273115,-0.302717,0.274347,-0.288088,0.284591,-0.270294,0.286147,-0.253509,0.292257,0.253509,0.292257,0.258509,0.291375,0.258509,0.291375,$1*%
%AMFreePoly5*
4,1,48,0.206759,0.287330,0.222702,0.287330,0.235600,0.277958,0.250763,0.273032,0.260133,0.260133,0.273032,0.250763,0.277958,0.235600,0.287330,0.222702,0.287330,0.206759,0.292257,0.191596,0.292257,-0.191596,0.287330,-0.206759,0.287330,-0.222702,0.277958,-0.235600,0.273032,-0.250763,0.260133,-0.260133,0.250763,-0.273032,0.235600,-0.277958,0.222702,-0.287330,0.206759,-0.287330,
0.191596,-0.292257,-0.108205,-0.292257,-0.115928,-0.289747,-0.123951,-0.291018,-0.144955,-0.280315,-0.167372,-0.273032,-0.172145,-0.266461,-0.179383,-0.262774,-0.262774,-0.179383,-0.266461,-0.172145,-0.273032,-0.167372,-0.280316,-0.144953,-0.291017,-0.123952,-0.289746,-0.115930,-0.292257,-0.108205,-0.292257,0.191596,-0.287330,0.206759,-0.287330,0.222702,-0.277958,0.235600,-0.273032,0.250763,
-0.260133,0.260133,-0.250763,0.273032,-0.235600,0.277958,-0.222702,0.287330,-0.206759,0.287330,-0.191596,0.292257,0.191596,0.292257,0.206759,0.287330,0.206759,0.287330,$1*%
%AMFreePoly6*
4,1,51,0.221065,0.401238,0.224644,0.401870,0.227791,0.400053,0.238420,0.398179,0.254702,0.384516,0.273115,0.373886,0.275640,0.366946,0.281295,0.362202,0.284986,0.341269,0.292257,0.321292,0.292257,-0.321292,0.290382,-0.331921,0.291014,-0.335500,0.289197,-0.338647,0.287323,-0.349276,0.273660,-0.365558,0.263030,-0.383971,0.256090,-0.386496,0.251346,-0.392151,0.230413,-0.395842,
0.210436,-0.403113,-0.142653,-0.403113,-0.147651,-0.402231,-0.149784,-0.402803,-0.153050,-0.401279,-0.170637,-0.398179,-0.184319,-0.386697,-0.200509,-0.379148,-0.268292,-0.311365,-0.271204,-0.307206,-0.273115,-0.306103,-0.274346,-0.302718,-0.284591,-0.288089,-0.286147,-0.270294,-0.292257,-0.253509,-0.292257,0.253509,-0.291375,0.258509,-0.291946,0.260640,-0.290424,0.263903,-0.287323,0.281493,
-0.275841,0.295176,-0.268292,0.311365,-0.200509,0.379148,-0.196350,0.382060,-0.195247,0.383971,-0.191861,0.385203,-0.177232,0.395447,-0.159438,0.397003,-0.142653,0.403113,0.210436,0.403113,0.221065,0.401238,0.221065,0.401238,$1*%
%AMFreePoly7*
4,1,48,0.206759,0.287330,0.222702,0.287330,0.235600,0.277958,0.250763,0.273032,0.260133,0.260133,0.273032,0.250763,0.277958,0.235600,0.287330,0.222702,0.287330,0.206759,0.292257,0.191596,0.292257,-0.191596,0.287330,-0.206759,0.287330,-0.222702,0.277958,-0.235600,0.273032,-0.250763,0.260133,-0.260133,0.250763,-0.273032,0.235600,-0.277958,0.222702,-0.287330,0.206759,-0.287330,
0.191596,-0.292257,-0.191596,-0.292257,-0.206759,-0.287330,-0.222702,-0.287330,-0.235600,-0.277958,-0.250763,-0.273032,-0.260133,-0.260133,-0.273032,-0.250763,-0.277958,-0.235600,-0.287330,-0.222702,-0.287330,-0.206759,-0.292257,-0.191596,-0.292257,0.108205,-0.289746,0.115930,-0.291017,0.123952,-0.280316,0.144953,-0.273032,0.167372,-0.266461,0.172145,-0.262774,0.179383,-0.179383,0.262774,
-0.172145,0.266461,-0.167372,0.273032,-0.144955,0.280315,-0.123951,0.291018,-0.115928,0.289747,-0.108205,0.292257,0.191596,0.292257,0.206759,0.287330,0.206759,0.287330,$1*%
G04 Aperture macros list end*
%ADD10C,0.001000*%
%ADD11RoundRect,0.150000X-0.430000X0.250000X-0.430000X-0.250000X0.430000X-0.250000X0.430000X0.250000X0*%
%ADD12RoundRect,0.150000X0.250000X0.430000X-0.250000X0.430000X-0.250000X-0.430000X0.250000X-0.430000X0*%
%ADD13RoundRect,0.135000X0.585000X-0.325000X0.585000X0.325000X-0.585000X0.325000X-0.585000X-0.325000X0*%
%ADD14R,0.176800X0.633600*%
%ADD15RoundRect,0.135000X0.325000X0.945000X-0.325000X0.945000X-0.325000X-0.945000X0.325000X-0.945000X0*%
%ADD16R,2.640000X2.240000*%
%ADD17RoundRect,0.147500X-0.262500X-0.412500X0.262500X-0.412500X0.262500X0.412500X-0.262500X0.412500X0*%
%ADD18RoundRect,0.147500X0.412500X-0.262500X0.412500X0.262500X-0.412500X0.262500X-0.412500X-0.262500X0*%
%ADD19RoundRect,0.135000X-0.945000X0.325000X-0.945000X-0.325000X0.945000X-0.325000X0.945000X0.325000X0*%
%ADD20RoundRect,0.137500X-0.312500X-0.922500X0.312500X-0.922500X0.312500X0.922500X-0.312500X0.922500X0*%
%ADD21RoundRect,0.147500X0.262500X0.412500X-0.262500X0.412500X-0.262500X-0.412500X0.262500X-0.412500X0*%
%ADD22RoundRect,0.052500X-0.127500X0.187500X-0.127500X-0.187500X0.127500X-0.187500X0.127500X0.187500X0*%
%ADD23RoundRect,0.147500X-0.412500X0.262500X-0.412500X-0.262500X0.412500X-0.262500X0.412500X0.262500X0*%
%ADD24RoundRect,0.127500X-0.362500X-0.932500X0.362500X-0.932500X0.362500X0.932500X-0.362500X0.932500X0*%
%ADD25RoundRect,0.150000X0.430000X-0.250000X0.430000X0.250000X-0.430000X0.250000X-0.430000X-0.250000X0*%
%ADD26R,1.570000X1.235000*%
%ADD27R,1.570000X1.585000*%
%ADD28R,0.490000X0.490000*%
%ADD29RoundRect,0.125000X0.375000X0.575000X-0.375000X0.575000X-0.375000X-0.575000X0.375000X-0.575000X0*%
%ADD30RoundRect,0.000000X-0.920000X1.000000X-0.920000X-1.000000X0.920000X-1.000000X0.920000X1.000000X0*%
%ADD31R,0.320000X0.520000*%
%ADD32RoundRect,0.135000X-0.325000X-0.945000X0.325000X-0.945000X0.325000X0.945000X-0.325000X0.945000X0*%
%ADD33RoundRect,0.017500X-0.222500X0.512500X-0.222500X-0.512500X0.222500X-0.512500X0.222500X0.512500X0*%
%ADD34R,0.520000X0.320000*%
%ADD35R,1.235000X1.570000*%
%ADD36R,1.585000X1.570000*%
%ADD37RoundRect,0.150000X-0.250000X-0.430000X0.250000X-0.430000X0.250000X0.430000X-0.250000X0.430000X0*%
%ADD38RoundRect,0.135000X0.945000X-0.325000X0.945000X0.325000X-0.945000X0.325000X-0.945000X-0.325000X0*%
%ADD39RoundRect,0.110000X0.450000X0.730000X-0.450000X0.730000X-0.450000X-0.730000X0.450000X-0.730000X0*%
%ADD40R,0.800000X0.720000*%
%ADD41RoundRect,0.000000X-1.000000X1.400000X-1.000000X-1.400000X1.000000X-1.400000X1.000000X1.400000X0*%
%ADD42R,3.200000X1.200000*%
%ADD43RoundRect,0.137500X0.312500X0.562500X-0.312500X0.562500X-0.312500X-0.562500X0.312500X-0.562500X0*%
%ADD44RoundRect,0.000000X-0.590000X-0.120000X0.590000X-0.120000X0.590000X0.120000X-0.590000X0.120000X0*%
%ADD45RoundRect,0.045000X-0.075000X-0.545000X0.075000X-0.545000X0.075000X0.545000X-0.075000X0.545000X0*%
%ADD46RoundRect,0.000000X-0.120000X0.268000X-0.120000X-0.268000X0.120000X-0.268000X0.120000X0.268000X0*%
%ADD47R,2.208000X0.520000*%
%ADD48R,3.048000X3.396000*%
%ADD49RoundRect,0.135000X-0.585000X0.325000X-0.585000X-0.325000X0.585000X-0.325000X0.585000X0.325000X0*%
%ADD50R,1.600000X1.200000*%
%ADD51R,1.600000X3.040000*%
%ADD52FreePoly0,270.000000*%
%ADD53FreePoly1,270.000000*%
%ADD54FreePoly2,270.000000*%
%ADD55FreePoly3,270.000000*%
%ADD56RoundRect,0.201557X-0.201556X0.201556X-0.201556X-0.201556X0.201556X-0.201556X0.201556X0.201556X0*%
%ADD57FreePoly4,270.000000*%
%ADD58FreePoly5,270.000000*%
%ADD59FreePoly6,270.000000*%
%ADD60FreePoly7,270.000000*%
%ADD61RoundRect,0.000000X-0.100000X0.350000X-0.100000X-0.350000X0.100000X-0.350000X0.100000X0.350000X0*%
%ADD62RoundRect,0.037500X-0.312500X0.062500X-0.312500X-0.062500X0.312500X-0.062500X0.312500X0.062500X0*%
%ADD63RoundRect,0.002500X0.237500X-0.587500X0.237500X0.587500X-0.237500X0.587500X-0.237500X-0.587500X0*%
%ADD64R,0.480000X0.920000*%
%ADD65R,0.240000X0.920000*%
%ADD66O,0.800000X1.680000*%
%ADD67O,0.800000X1.440000*%
%ADD68RoundRect,0.135000X0.325000X0.585000X-0.325000X0.585000X-0.325000X-0.585000X0.325000X-0.585000X0*%
G04 APERTURE END LIST*
D10*
X88825000Y-112870000D02*
X88035000Y-112870000D01*
X88035000Y-112870000D02*
X88035000Y-114070000D01*
X88035000Y-114070000D02*
X88825000Y-114070000D01*
X88825000Y-114070000D02*
X88825000Y-112870000D01*
G36*
X88825000Y-112870000D02*
G01*
X88035000Y-112870000D01*
X88035000Y-114070000D01*
X88825000Y-114070000D01*
X88825000Y-112870000D01*
G37*
X85795000Y-112870000D02*
X85005000Y-112870000D01*
X85005000Y-112870000D02*
X85005000Y-114070000D01*
X85005000Y-114070000D02*
X85795000Y-114070000D01*
X85795000Y-114070000D02*
X85795000Y-112870000D01*
G36*
X85795000Y-112870000D02*
G01*
X85005000Y-112870000D01*
X85005000Y-114070000D01*
X85795000Y-114070000D01*
X85795000Y-112870000D01*
G37*
X87235000Y-112890000D02*
X86445000Y-112890000D01*
X86445000Y-112890000D02*
X86445000Y-114090000D01*
X86445000Y-114090000D02*
X87235000Y-114090000D01*
X87235000Y-114090000D02*
X87235000Y-112890000D01*
G36*
X87235000Y-112890000D02*
G01*
X86445000Y-112890000D01*
X86445000Y-114090000D01*
X87235000Y-114090000D01*
X87235000Y-112890000D01*
G37*
X90905000Y-112920000D02*
X90115000Y-112920000D01*
X90115000Y-112920000D02*
X90115000Y-114120000D01*
X90115000Y-114120000D02*
X90905000Y-114120000D01*
X90905000Y-114120000D02*
X90905000Y-112920000D01*
G36*
X90905000Y-112920000D02*
G01*
X90115000Y-112920000D01*
X90115000Y-114120000D01*
X90905000Y-114120000D01*
X90905000Y-112920000D01*
G37*
X88830000Y-115000000D02*
X88040000Y-115000000D01*
X88040000Y-115000000D02*
X88040000Y-116200000D01*
X88040000Y-116200000D02*
X88830000Y-116200000D01*
X88830000Y-116200000D02*
X88830000Y-115000000D01*
G36*
X88830000Y-115000000D02*
G01*
X88040000Y-115000000D01*
X88040000Y-116200000D01*
X88830000Y-116200000D01*
X88830000Y-115000000D01*
G37*
X85800000Y-115000000D02*
X85010000Y-115000000D01*
X85010000Y-115000000D02*
X85010000Y-116200000D01*
X85010000Y-116200000D02*
X85800000Y-116200000D01*
X85800000Y-116200000D02*
X85800000Y-115000000D01*
G36*
X85800000Y-115000000D02*
G01*
X85010000Y-115000000D01*
X85010000Y-116200000D01*
X85800000Y-116200000D01*
X85800000Y-115000000D01*
G37*
X87240000Y-115020000D02*
X86450000Y-115020000D01*
X86450000Y-115020000D02*
X86450000Y-116220000D01*
X86450000Y-116220000D02*
X87240000Y-116220000D01*
X87240000Y-116220000D02*
X87240000Y-115020000D01*
G36*
X87240000Y-115020000D02*
G01*
X86450000Y-115020000D01*
X86450000Y-116220000D01*
X87240000Y-116220000D01*
X87240000Y-115020000D01*
G37*
X90910000Y-115050000D02*
X90120000Y-115050000D01*
X90120000Y-115050000D02*
X90120000Y-116250000D01*
X90120000Y-116250000D02*
X90910000Y-116250000D01*
X90910000Y-116250000D02*
X90910000Y-115050000D01*
G36*
X90910000Y-115050000D02*
G01*
X90120000Y-115050000D01*
X90120000Y-116250000D01*
X90910000Y-116250000D01*
X90910000Y-115050000D01*
G37*
X88825000Y-127870000D02*
X88035000Y-127870000D01*
X88035000Y-127870000D02*
X88035000Y-129070000D01*
X88035000Y-129070000D02*
X88825000Y-129070000D01*
X88825000Y-129070000D02*
X88825000Y-127870000D01*
G36*
X88825000Y-127870000D02*
G01*
X88035000Y-127870000D01*
X88035000Y-129070000D01*
X88825000Y-129070000D01*
X88825000Y-127870000D01*
G37*
X85795000Y-127870000D02*
X85005000Y-127870000D01*
X85005000Y-127870000D02*
X85005000Y-129070000D01*
X85005000Y-129070000D02*
X85795000Y-129070000D01*
X85795000Y-129070000D02*
X85795000Y-127870000D01*
G36*
X85795000Y-127870000D02*
G01*
X85005000Y-127870000D01*
X85005000Y-129070000D01*
X85795000Y-129070000D01*
X85795000Y-127870000D01*
G37*
X87235000Y-127890000D02*
X86445000Y-127890000D01*
X86445000Y-127890000D02*
X86445000Y-129090000D01*
X86445000Y-129090000D02*
X87235000Y-129090000D01*
X87235000Y-129090000D02*
X87235000Y-127890000D01*
G36*
X87235000Y-127890000D02*
G01*
X86445000Y-127890000D01*
X86445000Y-129090000D01*
X87235000Y-129090000D01*
X87235000Y-127890000D01*
G37*
X90905000Y-127920000D02*
X90115000Y-127920000D01*
X90115000Y-127920000D02*
X90115000Y-129120000D01*
X90115000Y-129120000D02*
X90905000Y-129120000D01*
X90905000Y-129120000D02*
X90905000Y-127920000D01*
G36*
X90905000Y-127920000D02*
G01*
X90115000Y-127920000D01*
X90115000Y-129120000D01*
X90905000Y-129120000D01*
X90905000Y-127920000D01*
G37*
X88830000Y-130000000D02*
X88040000Y-130000000D01*
X88040000Y-130000000D02*
X88040000Y-131200000D01*
X88040000Y-131200000D02*
X88830000Y-131200000D01*
X88830000Y-131200000D02*
X88830000Y-130000000D01*
G36*
X88830000Y-130000000D02*
G01*
X88040000Y-130000000D01*
X88040000Y-131200000D01*
X88830000Y-131200000D01*
X88830000Y-130000000D01*
G37*
X85800000Y-130000000D02*
X85010000Y-130000000D01*
X85010000Y-130000000D02*
X85010000Y-131200000D01*
X85010000Y-131200000D02*
X85800000Y-131200000D01*
X85800000Y-131200000D02*
X85800000Y-130000000D01*
G36*
X85800000Y-130000000D02*
G01*
X85010000Y-130000000D01*
X85010000Y-131200000D01*
X85800000Y-131200000D01*
X85800000Y-130000000D01*
G37*
X87240000Y-130020000D02*
X86450000Y-130020000D01*
X86450000Y-130020000D02*
X86450000Y-131220000D01*
X86450000Y-131220000D02*
X87240000Y-131220000D01*
X87240000Y-131220000D02*
X87240000Y-130020000D01*
G36*
X87240000Y-130020000D02*
G01*
X86450000Y-130020000D01*
X86450000Y-131220000D01*
X87240000Y-131220000D01*
X87240000Y-130020000D01*
G37*
X90910000Y-130050000D02*
X90120000Y-130050000D01*
X90120000Y-130050000D02*
X90120000Y-131250000D01*
X90120000Y-131250000D02*
X90910000Y-131250000D01*
X90910000Y-131250000D02*
X90910000Y-130050000D01*
G36*
X90910000Y-130050000D02*
G01*
X90120000Y-130050000D01*
X90120000Y-131250000D01*
X90910000Y-131250000D01*
X90910000Y-130050000D01*
G37*
X101175000Y-116130000D02*
X101965000Y-116130000D01*
X101965000Y-116130000D02*
X101965000Y-114930000D01*
X101965000Y-114930000D02*
X101175000Y-114930000D01*
X101175000Y-114930000D02*
X101175000Y-116130000D01*
G36*
X101175000Y-116130000D02*
G01*
X101965000Y-116130000D01*
X101965000Y-114930000D01*
X101175000Y-114930000D01*
X101175000Y-116130000D01*
G37*
X104205000Y-116130000D02*
X104995000Y-116130000D01*
X104995000Y-116130000D02*
X104995000Y-114930000D01*
X104995000Y-114930000D02*
X104205000Y-114930000D01*
X104205000Y-114930000D02*
X104205000Y-116130000D01*
G36*
X104205000Y-116130000D02*
G01*
X104995000Y-116130000D01*
X104995000Y-114930000D01*
X104205000Y-114930000D01*
X104205000Y-116130000D01*
G37*
X102765000Y-116110000D02*
X103555000Y-116110000D01*
X103555000Y-116110000D02*
X103555000Y-114910000D01*
X103555000Y-114910000D02*
X102765000Y-114910000D01*
X102765000Y-114910000D02*
X102765000Y-116110000D01*
G36*
X102765000Y-116110000D02*
G01*
X103555000Y-116110000D01*
X103555000Y-114910000D01*
X102765000Y-114910000D01*
X102765000Y-116110000D01*
G37*
X99095000Y-116080000D02*
X99885000Y-116080000D01*
X99885000Y-116080000D02*
X99885000Y-114880000D01*
X99885000Y-114880000D02*
X99095000Y-114880000D01*
X99095000Y-114880000D02*
X99095000Y-116080000D01*
G36*
X99095000Y-116080000D02*
G01*
X99885000Y-116080000D01*
X99885000Y-114880000D01*
X99095000Y-114880000D01*
X99095000Y-116080000D01*
G37*
X101170000Y-114000000D02*
X101960000Y-114000000D01*
X101960000Y-114000000D02*
X101960000Y-112800000D01*
X101960000Y-112800000D02*
X101170000Y-112800000D01*
X101170000Y-112800000D02*
X101170000Y-114000000D01*
G36*
X101170000Y-114000000D02*
G01*
X101960000Y-114000000D01*
X101960000Y-112800000D01*
X101170000Y-112800000D01*
X101170000Y-114000000D01*
G37*
X104200000Y-114000000D02*
X104990000Y-114000000D01*
X104990000Y-114000000D02*
X104990000Y-112800000D01*
X104990000Y-112800000D02*
X104200000Y-112800000D01*
X104200000Y-112800000D02*
X104200000Y-114000000D01*
G36*
X104200000Y-114000000D02*
G01*
X104990000Y-114000000D01*
X104990000Y-112800000D01*
X104200000Y-112800000D01*
X104200000Y-114000000D01*
G37*
X102760000Y-113980000D02*
X103550000Y-113980000D01*
X103550000Y-113980000D02*
X103550000Y-112780000D01*
X103550000Y-112780000D02*
X102760000Y-112780000D01*
X102760000Y-112780000D02*
X102760000Y-113980000D01*
G36*
X102760000Y-113980000D02*
G01*
X103550000Y-113980000D01*
X103550000Y-112780000D01*
X102760000Y-112780000D01*
X102760000Y-113980000D01*
G37*
X99090000Y-113950000D02*
X99880000Y-113950000D01*
X99880000Y-113950000D02*
X99880000Y-112750000D01*
X99880000Y-112750000D02*
X99090000Y-112750000D01*
X99090000Y-112750000D02*
X99090000Y-113950000D01*
G36*
X99090000Y-113950000D02*
G01*
X99880000Y-113950000D01*
X99880000Y-112750000D01*
X99090000Y-112750000D01*
X99090000Y-113950000D01*
G37*
X101175000Y-131130000D02*
X101965000Y-131130000D01*
X101965000Y-131130000D02*
X101965000Y-129930000D01*
X101965000Y-129930000D02*
X101175000Y-129930000D01*
X101175000Y-129930000D02*
X101175000Y-131130000D01*
G36*
X101175000Y-131130000D02*
G01*
X101965000Y-131130000D01*
X101965000Y-129930000D01*
X101175000Y-129930000D01*
X101175000Y-131130000D01*
G37*
X104205000Y-131130000D02*
X104995000Y-131130000D01*
X104995000Y-131130000D02*
X104995000Y-129930000D01*
X104995000Y-129930000D02*
X104205000Y-129930000D01*
X104205000Y-129930000D02*
X104205000Y-131130000D01*
G36*
X104205000Y-131130000D02*
G01*
X104995000Y-131130000D01*
X104995000Y-129930000D01*
X104205000Y-129930000D01*
X104205000Y-131130000D01*
G37*
X102765000Y-131110000D02*
X103555000Y-131110000D01*
X103555000Y-131110000D02*
X103555000Y-129910000D01*
X103555000Y-129910000D02*
X102765000Y-129910000D01*
X102765000Y-129910000D02*
X102765000Y-131110000D01*
G36*
X102765000Y-131110000D02*
G01*
X103555000Y-131110000D01*
X103555000Y-129910000D01*
X102765000Y-129910000D01*
X102765000Y-131110000D01*
G37*
X99095000Y-131080000D02*
X99885000Y-131080000D01*
X99885000Y-131080000D02*
X99885000Y-129880000D01*
X99885000Y-129880000D02*
X99095000Y-129880000D01*
X99095000Y-129880000D02*
X99095000Y-131080000D01*
G36*
X99095000Y-131080000D02*
G01*
X99885000Y-131080000D01*
X99885000Y-129880000D01*
X99095000Y-129880000D01*
X99095000Y-131080000D01*
G37*
X101170000Y-129000000D02*
X101960000Y-129000000D01*
X101960000Y-129000000D02*
X101960000Y-127800000D01*
X101960000Y-127800000D02*
X101170000Y-127800000D01*
X101170000Y-127800000D02*
X101170000Y-129000000D01*
G36*
X101170000Y-129000000D02*
G01*
X101960000Y-129000000D01*
X101960000Y-127800000D01*
X101170000Y-127800000D01*
X101170000Y-129000000D01*
G37*
X104200000Y-129000000D02*
X104990000Y-129000000D01*
X104990000Y-129000000D02*
X104990000Y-127800000D01*
X104990000Y-127800000D02*
X104200000Y-127800000D01*
X104200000Y-127800000D02*
X104200000Y-129000000D01*
G36*
X104200000Y-129000000D02*
G01*
X104990000Y-129000000D01*
X104990000Y-127800000D01*
X104200000Y-127800000D01*
X104200000Y-129000000D01*
G37*
X102760000Y-128980000D02*
X103550000Y-128980000D01*
X103550000Y-128980000D02*
X103550000Y-127780000D01*
X103550000Y-127780000D02*
X102760000Y-127780000D01*
X102760000Y-127780000D02*
X102760000Y-128980000D01*
G36*
X102760000Y-128980000D02*
G01*
X103550000Y-128980000D01*
X103550000Y-127780000D01*
X102760000Y-127780000D01*
X102760000Y-128980000D01*
G37*
X99090000Y-128950000D02*
X99880000Y-128950000D01*
X99880000Y-128950000D02*
X99880000Y-127750000D01*
X99880000Y-127750000D02*
X99090000Y-127750000D01*
X99090000Y-127750000D02*
X99090000Y-128950000D01*
G36*
X99090000Y-128950000D02*
G01*
X99880000Y-128950000D01*
X99880000Y-127750000D01*
X99090000Y-127750000D01*
X99090000Y-128950000D01*
G37*
D11*
X115697000Y-58044000D03*
X115697000Y-59944000D03*
D12*
X133626315Y-69976089D03*
X131726315Y-69976089D03*
D13*
X54150000Y-68565000D03*
X54150000Y-65615000D03*
D14*
X91263000Y-111584000D03*
X90761000Y-111584000D03*
X90259000Y-111584000D03*
X89757000Y-111584000D03*
X89255000Y-111584000D03*
X88753000Y-111584000D03*
X88251000Y-111584000D03*
X87749000Y-111584000D03*
X87247000Y-111584000D03*
X86745000Y-111584000D03*
X86243000Y-111584000D03*
X85741000Y-111584000D03*
X85239000Y-111584000D03*
X84737000Y-111584000D03*
X84750000Y-117416000D03*
X85250000Y-117416000D03*
X85750000Y-117416000D03*
X86250000Y-117416000D03*
X86750000Y-117416000D03*
X87247000Y-117416000D03*
X87750000Y-117416000D03*
X88251000Y-117416000D03*
X88753000Y-117416000D03*
X89255000Y-117416000D03*
X89757000Y-117416000D03*
X90250000Y-117416000D03*
X90761000Y-117416000D03*
X91250000Y-117416000D03*
D15*
X105475000Y-78100000D03*
X102525000Y-78100000D03*
D16*
X90180000Y-65440000D03*
X97790000Y-65440000D03*
D17*
X88257500Y-52590000D03*
X90082500Y-52590000D03*
D18*
X54450000Y-57290000D03*
X54450000Y-55465000D03*
D17*
X54937500Y-53377500D03*
X56762500Y-53377500D03*
D19*
X73200000Y-72900000D03*
X73200000Y-75850000D03*
D20*
X52850000Y-49190000D03*
X55775000Y-49190000D03*
D12*
X137126315Y-63556089D03*
X135226315Y-63556089D03*
D11*
X79770000Y-56955000D03*
X79770000Y-58855000D03*
D21*
X109014900Y-44907200D03*
X107189900Y-44907200D03*
D22*
X83870000Y-56755000D03*
X83870000Y-58855000D03*
D23*
X113726000Y-45142500D03*
X113726000Y-46967500D03*
D24*
X100875000Y-65145000D03*
X105500000Y-65145000D03*
D11*
X85017500Y-48835000D03*
X85017500Y-50735000D03*
D21*
X86692000Y-52570000D03*
X84867000Y-52570000D03*
D25*
X111567000Y-46950000D03*
X111567000Y-45050000D03*
D23*
X112572800Y-41657900D03*
X112572800Y-43482900D03*
D26*
X83935000Y-75077500D03*
X86125000Y-75077500D03*
D27*
X83935000Y-73167500D03*
X86125000Y-73167500D03*
D28*
X83125000Y-77080000D03*
X84395000Y-77080000D03*
X85665000Y-77080000D03*
X86935000Y-77080000D03*
X83125000Y-71480000D03*
X84395000Y-71480000D03*
X85665000Y-71480000D03*
X86935000Y-71480000D03*
D29*
X97900000Y-58293000D03*
X95100000Y-58293000D03*
D11*
X120965000Y-54503000D03*
X120965000Y-56403000D03*
D30*
X69960000Y-56020000D03*
X69960000Y-60320000D03*
D31*
X124775200Y-67726600D03*
X125425200Y-67726600D03*
X126075200Y-67726600D03*
X126075200Y-65826600D03*
X125425200Y-65826600D03*
X124775200Y-65826600D03*
D32*
X134350000Y-49400000D03*
X137300000Y-49400000D03*
D12*
X122826315Y-64176089D03*
X120926315Y-64176089D03*
D33*
X137176315Y-65576089D03*
X136226315Y-65576089D03*
X135276315Y-65576089D03*
X135276315Y-67851089D03*
X137176315Y-67851089D03*
D18*
X124300000Y-50112500D03*
X124300000Y-48287500D03*
D25*
X75670000Y-57140000D03*
X75670000Y-55240000D03*
D18*
X106261500Y-58949500D03*
X106261500Y-57124500D03*
X128200000Y-50112500D03*
X128200000Y-48287500D03*
D17*
X86870000Y-48605000D03*
X88695000Y-48605000D03*
D18*
X130100000Y-50112500D03*
X130100000Y-48287500D03*
D34*
X117312400Y-54899800D03*
X117312400Y-55549800D03*
X117312400Y-56199800D03*
X119212400Y-56199800D03*
X119212400Y-55549800D03*
X119212400Y-54899800D03*
D21*
X88695000Y-50605000D03*
X86870000Y-50605000D03*
D32*
X111225000Y-74900000D03*
X114175000Y-74900000D03*
D24*
X100887500Y-74825001D03*
X105512500Y-74825001D03*
D32*
X111200000Y-78100000D03*
X114150000Y-78100000D03*
D35*
X79536500Y-66295000D03*
X79536500Y-64105000D03*
D36*
X77626500Y-66295000D03*
X77626500Y-64105000D03*
D28*
X81539000Y-67105000D03*
X81539000Y-65835000D03*
X81539000Y-64565000D03*
X81539000Y-63295000D03*
X75939000Y-67105000D03*
X75939000Y-65835000D03*
X75939000Y-64565000D03*
X75939000Y-63295000D03*
D11*
X60050000Y-55540000D03*
X60050000Y-57440000D03*
D37*
X124426315Y-69376089D03*
X126326315Y-69376089D03*
D21*
X113812500Y-48700000D03*
X111987500Y-48700000D03*
D11*
X121031000Y-58044000D03*
X121031000Y-59944000D03*
D31*
X122493800Y-65826600D03*
X121843800Y-65826600D03*
X121193800Y-65826600D03*
X121193800Y-67726600D03*
X121843800Y-67726600D03*
X122493800Y-67726600D03*
D38*
X73250000Y-66975000D03*
X73250000Y-64025000D03*
D11*
X110363000Y-55652000D03*
X110363000Y-57552000D03*
D35*
X79497500Y-73295000D03*
X79497500Y-71105000D03*
D36*
X77587500Y-73295000D03*
X77587500Y-71105000D03*
D28*
X81500000Y-74105000D03*
X81500000Y-72835000D03*
X81500000Y-71565000D03*
X81500000Y-70295000D03*
X75900000Y-74105000D03*
X75900000Y-72835000D03*
X75900000Y-71565000D03*
X75900000Y-70295000D03*
D17*
X100015000Y-55878000D03*
X101840000Y-55878000D03*
D29*
X97899750Y-55199000D03*
X95099750Y-55199000D03*
D39*
X58250000Y-62590000D03*
X53850000Y-62590000D03*
D18*
X104356500Y-59103900D03*
X104356500Y-57278900D03*
D40*
X97538000Y-50386000D03*
X99688000Y-50386000D03*
X99688000Y-48836000D03*
X97538000Y-48836000D03*
D14*
X91263000Y-126584000D03*
X90761000Y-126584000D03*
X90259000Y-126584000D03*
X89757000Y-126584000D03*
X89255000Y-126584000D03*
X88753000Y-126584000D03*
X88251000Y-126584000D03*
X87749000Y-126584000D03*
X87247000Y-126584000D03*
X86745000Y-126584000D03*
X86243000Y-126584000D03*
X85741000Y-126584000D03*
X85239000Y-126584000D03*
X84737000Y-126584000D03*
X84750000Y-132416000D03*
X85250000Y-132416000D03*
X85750000Y-132416000D03*
X86250000Y-132416000D03*
X86750000Y-132416000D03*
X87247000Y-132416000D03*
X87750000Y-132416000D03*
X88251000Y-132416000D03*
X88753000Y-132416000D03*
X89255000Y-132416000D03*
X89757000Y-132416000D03*
X90250000Y-132416000D03*
X90761000Y-132416000D03*
X91250000Y-132416000D03*
D25*
X82870000Y-48240000D03*
X82870000Y-46340000D03*
D12*
X122826315Y-69376089D03*
X120926315Y-69376089D03*
D18*
X108166500Y-58949500D03*
X108166500Y-57124500D03*
D32*
X111225000Y-71700000D03*
X114175000Y-71700000D03*
D23*
X73780000Y-49945000D03*
X73780000Y-51770000D03*
D18*
X126200000Y-50112500D03*
X126200000Y-48287500D03*
D41*
X63710000Y-71150000D03*
X63710000Y-77650000D03*
D33*
X58200000Y-55340000D03*
X57250000Y-55340000D03*
X56300000Y-55340000D03*
X56300000Y-57615000D03*
X57250000Y-57615000D03*
X58200000Y-57615000D03*
D14*
X98737000Y-117416000D03*
X99239000Y-117416000D03*
X99741000Y-117416000D03*
X100243000Y-117416000D03*
X100745000Y-117416000D03*
X101247000Y-117416000D03*
X101749000Y-117416000D03*
X102251000Y-117416000D03*
X102753000Y-117416000D03*
X103255000Y-117416000D03*
X103757000Y-117416000D03*
X104259000Y-117416000D03*
X104761000Y-117416000D03*
X105263000Y-117416000D03*
X105250000Y-111584000D03*
X104750000Y-111584000D03*
X104250000Y-111584000D03*
X103750000Y-111584000D03*
X103250000Y-111584000D03*
X102753000Y-111584000D03*
X102250000Y-111584000D03*
X101749000Y-111584000D03*
X101247000Y-111584000D03*
X100745000Y-111584000D03*
X100243000Y-111584000D03*
X99750000Y-111584000D03*
X99239000Y-111584000D03*
X98750000Y-111584000D03*
D12*
X137126315Y-69856089D03*
X135226315Y-69856089D03*
D42*
X58250000Y-65290000D03*
X58250000Y-68890000D03*
D17*
X91589250Y-55245000D03*
X93414250Y-55245000D03*
D21*
X130058815Y-69876089D03*
X128233815Y-69876089D03*
D37*
X124426315Y-64176089D03*
X126326315Y-64176089D03*
D17*
X74147500Y-53520000D03*
X75972500Y-53520000D03*
D25*
X80870000Y-48230000D03*
X80870000Y-46330000D03*
D33*
X133676315Y-65696089D03*
X132726315Y-65696089D03*
X131776315Y-65696089D03*
X131776315Y-67971089D03*
X133676315Y-67971089D03*
D12*
X101880500Y-46252000D03*
X99980500Y-46252000D03*
D37*
X131726315Y-63576089D03*
X133626315Y-63576089D03*
D14*
X98737000Y-132416000D03*
X99239000Y-132416000D03*
X99741000Y-132416000D03*
X100243000Y-132416000D03*
X100745000Y-132416000D03*
X101247000Y-132416000D03*
X101749000Y-132416000D03*
X102251000Y-132416000D03*
X102753000Y-132416000D03*
X103255000Y-132416000D03*
X103757000Y-132416000D03*
X104259000Y-132416000D03*
X104761000Y-132416000D03*
X105263000Y-132416000D03*
X105250000Y-126584000D03*
X104750000Y-126584000D03*
X104250000Y-126584000D03*
X103750000Y-126584000D03*
X103250000Y-126584000D03*
X102753000Y-126584000D03*
X102250000Y-126584000D03*
X101749000Y-126584000D03*
X101247000Y-126584000D03*
X100745000Y-126584000D03*
X100243000Y-126584000D03*
X99750000Y-126584000D03*
X99239000Y-126584000D03*
X98750000Y-126584000D03*
D18*
X75770000Y-51792500D03*
X75770000Y-49967500D03*
D12*
X99650000Y-52222400D03*
X97750000Y-52222400D03*
D43*
X88672500Y-58580000D03*
X85747500Y-58580000D03*
D25*
X78870000Y-46405000D03*
X78870000Y-44505000D03*
D21*
X75470000Y-48105000D03*
X73645000Y-48105000D03*
D44*
X101718000Y-48302000D03*
X101718000Y-48802000D03*
X101718000Y-49302000D03*
X101718000Y-49802000D03*
X101718000Y-50302000D03*
X101718000Y-50802000D03*
X101718000Y-51302000D03*
X101718000Y-51802000D03*
X101718000Y-52302000D03*
X101718000Y-52802000D03*
X101718000Y-53302000D03*
X101718000Y-53802000D03*
D45*
X103130500Y-55214500D03*
X103630500Y-55214500D03*
X104130500Y-55214500D03*
X104630500Y-55214500D03*
X105130500Y-55214500D03*
X105630500Y-55214500D03*
X106130500Y-55214500D03*
X106630500Y-55214500D03*
X107130500Y-55214500D03*
X107630500Y-55214500D03*
X108130500Y-55214500D03*
X108630500Y-55214500D03*
D44*
X110043000Y-53802000D03*
X110043000Y-53302000D03*
X110043000Y-52802000D03*
X110043000Y-52302000D03*
X110043000Y-51802000D03*
X110043000Y-51302000D03*
X110043000Y-50802000D03*
X110043000Y-50302000D03*
X110043000Y-49802000D03*
X110043000Y-49302000D03*
X110043000Y-48802000D03*
X110043000Y-48302000D03*
D45*
X108630500Y-46889500D03*
X108130500Y-46889500D03*
X107630500Y-46889500D03*
X107130500Y-46889500D03*
X106630500Y-46889500D03*
X106130500Y-46889500D03*
X105630500Y-46889500D03*
X105130500Y-46889500D03*
X104630500Y-46889500D03*
X104130500Y-46889500D03*
X103630500Y-46889500D03*
X103130500Y-46889500D03*
D46*
X109850000Y-121260000D03*
X109350000Y-121260000D03*
X108850000Y-121260000D03*
X108850000Y-122740000D03*
X109350000Y-122740000D03*
X109850000Y-122740000D03*
D32*
X111225000Y-65300000D03*
X114175000Y-65300000D03*
D47*
X120191000Y-49484000D03*
X116151000Y-49484000D03*
X120191000Y-48214000D03*
X116151000Y-48214000D03*
X120191000Y-46944000D03*
X116151000Y-46944000D03*
X120191000Y-45674000D03*
X116151000Y-45674000D03*
X120191000Y-44404000D03*
X116151000Y-44404000D03*
D15*
X105475000Y-71600000D03*
X102525000Y-71600000D03*
D48*
X64900000Y-64187500D03*
X64900000Y-57812500D03*
D32*
X111225000Y-68500000D03*
X114175000Y-68500000D03*
D49*
X96500000Y-41238000D03*
X96500000Y-44188000D03*
D17*
X91589500Y-58339000D03*
X93414500Y-58339000D03*
X103786300Y-44907200D03*
X105611300Y-44907200D03*
D16*
X90180000Y-74838000D03*
X97790000Y-74838000D03*
D11*
X95565000Y-48788000D03*
X95565000Y-50688000D03*
D50*
X91522000Y-45902000D03*
X91522000Y-43602000D03*
D51*
X85222000Y-43602000D03*
D50*
X91522000Y-41302000D03*
D21*
X102207700Y-44297600D03*
X100382700Y-44297600D03*
D52*
X82070000Y-51142500D03*
D53*
X81207500Y-51142500D03*
X80207500Y-51142500D03*
D54*
X79345000Y-51142500D03*
D55*
X82070000Y-52005000D03*
D56*
X81207500Y-52005000D03*
X80207500Y-52005000D03*
D57*
X79345000Y-52005000D03*
D55*
X82070000Y-53005000D03*
D56*
X81207500Y-53005000D03*
X80207500Y-53005000D03*
D57*
X79345000Y-53005000D03*
D58*
X82070000Y-53867500D03*
D59*
X81207500Y-53867500D03*
X80207500Y-53867500D03*
D60*
X79345000Y-53867500D03*
D61*
X82457500Y-50067500D03*
X81957500Y-50067500D03*
X81457500Y-50067500D03*
X80957500Y-50067500D03*
X80457500Y-50067500D03*
X79957500Y-50067500D03*
X79457500Y-50067500D03*
X78957500Y-50067500D03*
D62*
X78270000Y-50755000D03*
X78270000Y-51255000D03*
X78270000Y-51755000D03*
X78270000Y-52255000D03*
X78270000Y-52755000D03*
X78270000Y-53255000D03*
X78270000Y-53755000D03*
X78270000Y-54255000D03*
D61*
X78957500Y-54942500D03*
X79457500Y-54942500D03*
X79957500Y-54942500D03*
X80457500Y-54942500D03*
X80957500Y-54942500D03*
X81457500Y-54942500D03*
X81957500Y-54942500D03*
X82457500Y-54942500D03*
D62*
X83145000Y-54255000D03*
X83145000Y-53755000D03*
X83145000Y-53255000D03*
X83145000Y-52755000D03*
X83145000Y-52255000D03*
X83145000Y-51755000D03*
X83145000Y-51255000D03*
X83145000Y-50755000D03*
D11*
X115631000Y-54503000D03*
X115631000Y-56403000D03*
D63*
X128196315Y-67703589D03*
X130096315Y-67703589D03*
X129146315Y-65828589D03*
D26*
X86190000Y-65190000D03*
X84000000Y-65190000D03*
D27*
X86190000Y-67100000D03*
X84000000Y-67100000D03*
D28*
X87000000Y-63187500D03*
X85730000Y-63187500D03*
X84460000Y-63187500D03*
X83190000Y-63187500D03*
X87000000Y-68787500D03*
X85730000Y-68787500D03*
X84460000Y-68787500D03*
X83190000Y-68787500D03*
D15*
X105475000Y-68400000D03*
X102525000Y-68400000D03*
D64*
X130400000Y-46380000D03*
X129600000Y-46380000D03*
D65*
X128450000Y-46380000D03*
X127450000Y-46380000D03*
X126950000Y-46380000D03*
X125950000Y-46380000D03*
D64*
X124800000Y-46380000D03*
X124000000Y-46380000D03*
X124000000Y-46380000D03*
X124800000Y-46380000D03*
D65*
X125450000Y-46380000D03*
X126450000Y-46380000D03*
X127950000Y-46380000D03*
X128950000Y-46380000D03*
D64*
X129600000Y-46380000D03*
X130400000Y-46380000D03*
D66*
X131520000Y-45805000D03*
D67*
X131520000Y-41625000D03*
D66*
X122880000Y-45805000D03*
D67*
X122880000Y-41625000D03*
D34*
X117363200Y-58328800D03*
X117363200Y-58978800D03*
X117363200Y-59628800D03*
X119263200Y-59628800D03*
X119263200Y-58978800D03*
X119263200Y-58328800D03*
D19*
X69900000Y-72875000D03*
X69900000Y-75825000D03*
D38*
X70000000Y-66975000D03*
X70000000Y-64025000D03*
D22*
X77770000Y-56855000D03*
X77770000Y-58955000D03*
D12*
X78970000Y-48155000D03*
X77070000Y-48155000D03*
D21*
X76970000Y-46205000D03*
X75145000Y-46205000D03*
D25*
X81870000Y-58855000D03*
X81870000Y-56955000D03*
D11*
X85970000Y-54755000D03*
X85970000Y-56655000D03*
D17*
X128233815Y-63576089D03*
X130058815Y-63576089D03*
D18*
X112413000Y-56028500D03*
X112413000Y-54203500D03*
D68*
X56825000Y-59890000D03*
X53875000Y-59890000D03*
D49*
X94087000Y-43397000D03*
X94087000Y-46347000D03*
D18*
X80970000Y-44805000D03*
X80970000Y-42980000D03*
M02*
