G04 #@! TF.GenerationSoftware,KiCad,Pcbnew,7.0.7-7.0.7~ubuntu22.04.1*
G04 #@! TF.CreationDate,2024-01-15T12:07:44+01:00*
G04 #@! TF.ProjectId,qaxe,71617865-2e6b-4696-9361-645f70636258,rev?*
G04 #@! TF.SameCoordinates,Original*
G04 #@! TF.FileFunction,Paste,Bot*
G04 #@! TF.FilePolarity,Positive*
%FSLAX46Y46*%
G04 Gerber Fmt 4.6, Leading zero omitted, Abs format (unit mm)*
G04 Created by KiCad (PCBNEW 7.0.7-7.0.7~ubuntu22.04.1) date 2024-01-15 12:07:44*
%MOMM*%
%LPD*%
G01*
G04 APERTURE LIST*
G04 Aperture macros list*
%AMRoundRect*
0 Rectangle with rounded corners*
0 $1 Rounding radius*
0 $2 $3 $4 $5 $6 $7 $8 $9 X,Y pos of 4 corners*
0 Add a 4 corners polygon primitive as box body*
4,1,4,$2,$3,$4,$5,$6,$7,$8,$9,$2,$3,0*
0 Add four circle primitives for the rounded corners*
1,1,$1+$1,$2,$3*
1,1,$1+$1,$4,$5*
1,1,$1+$1,$6,$7*
1,1,$1+$1,$8,$9*
0 Add four rect primitives between the rounded corners*
20,1,$1+$1,$2,$3,$4,$5,0*
20,1,$1+$1,$4,$5,$6,$7,0*
20,1,$1+$1,$6,$7,$8,$9,0*
20,1,$1+$1,$8,$9,$2,$3,0*%
G04 Aperture macros list end*
%ADD10RoundRect,0.150000X0.250000X0.430000X-0.250000X0.430000X-0.250000X-0.430000X0.250000X-0.430000X0*%
%ADD11RoundRect,0.150000X0.430000X-0.250000X0.430000X0.250000X-0.430000X0.250000X-0.430000X-0.250000X0*%
%ADD12RoundRect,0.042500X0.977500X-0.787500X0.977500X0.787500X-0.977500X0.787500X-0.977500X-0.787500X0*%
%ADD13RoundRect,0.150000X-0.430000X0.250000X-0.430000X-0.250000X0.430000X-0.250000X0.430000X0.250000X0*%
%ADD14RoundRect,0.147500X0.262500X0.412500X-0.262500X0.412500X-0.262500X-0.412500X0.262500X-0.412500X0*%
%ADD15RoundRect,0.147500X-0.262500X-0.412500X0.262500X-0.412500X0.262500X0.412500X-0.262500X0.412500X0*%
%ADD16RoundRect,0.150000X-0.250000X-0.430000X0.250000X-0.430000X0.250000X0.430000X-0.250000X0.430000X0*%
%ADD17RoundRect,0.042500X-0.977500X0.787500X-0.977500X-0.787500X0.977500X-0.787500X0.977500X0.787500X0*%
%ADD18RoundRect,0.147500X-0.412500X0.262500X-0.412500X-0.262500X0.412500X-0.262500X0.412500X0.262500X0*%
%ADD19R,0.800000X0.720000*%
%ADD20RoundRect,0.147500X0.412500X-0.262500X0.412500X0.262500X-0.412500X0.262500X-0.412500X-0.262500X0*%
%ADD21RoundRect,0.000000X0.120000X-0.268000X0.120000X0.268000X-0.120000X0.268000X-0.120000X-0.268000X0*%
%ADD22RoundRect,0.042500X-0.787500X-0.977500X0.787500X-0.977500X0.787500X0.977500X-0.787500X0.977500X0*%
G04 APERTURE END LIST*
D10*
X91760000Y-126310000D03*
X89860000Y-126310000D03*
X106650000Y-125100000D03*
X104750000Y-125100000D03*
D11*
X101000000Y-109650000D03*
X101000000Y-107750000D03*
D12*
X95000000Y-129612500D03*
X95000000Y-123387500D03*
D11*
X96500000Y-137250000D03*
X96500000Y-135350000D03*
D13*
X93300000Y-135350000D03*
X93300000Y-137250000D03*
D10*
X91650000Y-118325000D03*
X89750000Y-118325000D03*
D13*
X90043000Y-69281000D03*
X90043000Y-71181000D03*
X104900000Y-107750000D03*
X104900000Y-109650000D03*
D14*
X87925000Y-123100000D03*
X86100000Y-123100000D03*
D10*
X90000000Y-130270000D03*
X88100000Y-130270000D03*
D13*
X88875000Y-135000000D03*
X88875000Y-136900000D03*
D11*
X83100000Y-109575000D03*
X83100000Y-107675000D03*
D15*
X101987500Y-121100000D03*
X103812500Y-121100000D03*
D16*
X105450000Y-123100000D03*
X107350000Y-123100000D03*
D17*
X95050000Y-114487500D03*
X95050000Y-120712500D03*
D16*
X99920000Y-113670000D03*
X101820000Y-113670000D03*
X99950000Y-131600000D03*
X101850000Y-131600000D03*
X100000000Y-127600000D03*
X101900000Y-127600000D03*
X99920000Y-115670000D03*
X101820000Y-115670000D03*
D10*
X84450000Y-121100000D03*
X82550000Y-121100000D03*
D13*
X93100000Y-131650000D03*
X93100000Y-133550000D03*
D11*
X100900000Y-136875000D03*
X100900000Y-134975000D03*
X104700000Y-136850000D03*
X104700000Y-134950000D03*
X109100000Y-122300000D03*
X109100000Y-120400000D03*
D10*
X91700000Y-120325000D03*
X89800000Y-120325000D03*
D18*
X86875000Y-135037500D03*
X86875000Y-136862500D03*
D16*
X83300000Y-119100000D03*
X85200000Y-119100000D03*
D11*
X98900000Y-136875000D03*
X98900000Y-134975000D03*
D16*
X83350000Y-125100000D03*
X85250000Y-125100000D03*
D10*
X91750000Y-124325000D03*
X89850000Y-124325000D03*
D13*
X93300000Y-106800000D03*
X93300000Y-108700000D03*
D16*
X98310000Y-119610000D03*
X100210000Y-119610000D03*
D10*
X89950000Y-116300000D03*
X88050000Y-116300000D03*
X90000000Y-114300000D03*
X88100000Y-114300000D03*
D11*
X96900000Y-133550000D03*
X96900000Y-131650000D03*
D13*
X83000000Y-104175000D03*
X83000000Y-106075000D03*
D11*
X106900000Y-109650000D03*
X106900000Y-107750000D03*
D16*
X98310000Y-117630000D03*
X100210000Y-117630000D03*
D13*
X91100000Y-107575000D03*
X91100000Y-109475000D03*
D16*
X98310000Y-125610000D03*
X100210000Y-125610000D03*
D11*
X98990000Y-109650000D03*
X98990000Y-107750000D03*
D19*
X84975000Y-104425000D03*
X87125000Y-104425000D03*
X87125000Y-105975000D03*
X84975000Y-105975000D03*
D16*
X99920000Y-111670000D03*
X101820000Y-111670000D03*
X100000000Y-129600000D03*
X101900000Y-129600000D03*
D10*
X106650000Y-119100000D03*
X104750000Y-119100000D03*
D20*
X113700000Y-69512500D03*
X113700000Y-67687500D03*
X102930000Y-109612500D03*
X102930000Y-107787500D03*
D11*
X84875000Y-136900000D03*
X84875000Y-135000000D03*
D13*
X82875000Y-135000000D03*
X82875000Y-136900000D03*
D10*
X91750000Y-122325000D03*
X89850000Y-122325000D03*
D20*
X111700000Y-69512500D03*
X111700000Y-67687500D03*
D10*
X90000000Y-128270000D03*
X88100000Y-128270000D03*
D21*
X88500000Y-70844000D03*
X88000000Y-70844000D03*
X87500000Y-70844000D03*
X87500000Y-69364000D03*
X88000000Y-69364000D03*
X88500000Y-69364000D03*
D10*
X90000000Y-132270000D03*
X88100000Y-132270000D03*
X89950000Y-112300000D03*
X88050000Y-112300000D03*
D13*
X106700000Y-134950000D03*
X106700000Y-136850000D03*
D18*
X87100000Y-107725000D03*
X87100000Y-109550000D03*
D13*
X89100000Y-107575000D03*
X89100000Y-109475000D03*
D22*
X97487500Y-103500000D03*
X103712500Y-103500000D03*
D13*
X90875000Y-135000000D03*
X90875000Y-136900000D03*
D16*
X98310000Y-123610000D03*
X100210000Y-123610000D03*
D11*
X97000000Y-112200000D03*
X97000000Y-110300000D03*
D13*
X85100000Y-107675000D03*
X85100000Y-109575000D03*
D16*
X105450000Y-121100000D03*
X107350000Y-121100000D03*
D13*
X93100000Y-110300000D03*
X93100000Y-112200000D03*
D11*
X96700000Y-108700000D03*
X96700000Y-106800000D03*
D16*
X98260000Y-121610000D03*
X100160000Y-121610000D03*
D10*
X84450000Y-123100000D03*
X82550000Y-123100000D03*
M02*
