G04 #@! TF.GenerationSoftware,KiCad,Pcbnew,8.0.1-8.0.1-1~ubuntu22.04.1*
G04 #@! TF.CreationDate,2024-03-26T16:59:47+01:00*
G04 #@! TF.ProjectId,qaxe,71617865-2e6b-4696-9361-645f70636258,rev?*
G04 #@! TF.SameCoordinates,Original*
G04 #@! TF.FileFunction,Soldermask,Top*
G04 #@! TF.FilePolarity,Negative*
%FSLAX46Y46*%
G04 Gerber Fmt 4.6, Leading zero omitted, Abs format (unit mm)*
G04 Created by KiCad (PCBNEW 8.0.1-8.0.1-1~ubuntu22.04.1) date 2024-03-26 16:59:47*
%MOMM*%
%LPD*%
G01*
G04 APERTURE LIST*
G04 Aperture macros list*
%AMRoundRect*
0 Rectangle with rounded corners*
0 $1 Rounding radius*
0 $2 $3 $4 $5 $6 $7 $8 $9 X,Y pos of 4 corners*
0 Add a 4 corners polygon primitive as box body*
4,1,4,$2,$3,$4,$5,$6,$7,$8,$9,$2,$3,0*
0 Add four circle primitives for the rounded corners*
1,1,$1+$1,$2,$3*
1,1,$1+$1,$4,$5*
1,1,$1+$1,$6,$7*
1,1,$1+$1,$8,$9*
0 Add four rect primitives between the rounded corners*
20,1,$1+$1,$2,$3,$4,$5,0*
20,1,$1+$1,$4,$5,$6,$7,0*
20,1,$1+$1,$6,$7,$8,$9,0*
20,1,$1+$1,$8,$9,$2,$3,0*%
G04 Aperture macros list end*
%ADD10C,0.120000*%
%ADD11RoundRect,0.250000X-0.475000X0.250000X-0.475000X-0.250000X0.475000X-0.250000X0.475000X0.250000X0*%
%ADD12RoundRect,0.250000X0.250000X0.475000X-0.250000X0.475000X-0.250000X-0.475000X0.250000X-0.475000X0*%
%ADD13RoundRect,0.250000X0.650000X-0.325000X0.650000X0.325000X-0.650000X0.325000X-0.650000X-0.325000X0*%
%ADD14R,0.221000X0.792000*%
%ADD15RoundRect,0.250000X0.325000X1.100000X-0.325000X1.100000X-0.325000X-1.100000X0.325000X-1.100000X0*%
%ADD16R,3.300000X2.800000*%
%ADD17RoundRect,0.250000X-0.262500X-0.450000X0.262500X-0.450000X0.262500X0.450000X-0.262500X0.450000X0*%
%ADD18RoundRect,0.250000X0.450000X-0.262500X0.450000X0.262500X-0.450000X0.262500X-0.450000X-0.262500X0*%
%ADD19C,0.800000*%
%ADD20C,6.400000*%
%ADD21RoundRect,0.250000X-1.100000X0.325000X-1.100000X-0.325000X1.100000X-0.325000X1.100000X0.325000X0*%
%ADD22RoundRect,0.250000X-0.312500X-1.075000X0.312500X-1.075000X0.312500X1.075000X-0.312500X1.075000X0*%
%ADD23RoundRect,0.112500X-0.112500X0.187500X-0.112500X-0.187500X0.112500X-0.187500X0.112500X0.187500X0*%
%ADD24RoundRect,0.250000X-0.450000X0.262500X-0.450000X-0.262500X0.450000X-0.262500X0.450000X0.262500X0*%
%ADD25RoundRect,0.250000X-0.362500X-1.075000X0.362500X-1.075000X0.362500X1.075000X-0.362500X1.075000X0*%
%ADD26RoundRect,0.250000X0.262500X0.450000X-0.262500X0.450000X-0.262500X-0.450000X0.262500X-0.450000X0*%
%ADD27RoundRect,0.250000X0.475000X-0.250000X0.475000X0.250000X-0.475000X0.250000X-0.475000X-0.250000X0*%
%ADD28C,4.000000*%
%ADD29R,0.700000X0.700000*%
%ADD30R,4.510000X4.350000*%
%ADD31RoundRect,0.250000X0.375000X0.625000X-0.375000X0.625000X-0.375000X-0.625000X0.375000X-0.625000X0*%
%ADD32RoundRect,0.250000X-0.900000X1.000000X-0.900000X-1.000000X0.900000X-1.000000X0.900000X1.000000X0*%
%ADD33R,2.000000X2.000000*%
%ADD34R,0.400000X0.650000*%
%ADD35RoundRect,0.250000X-0.325000X-1.100000X0.325000X-1.100000X0.325000X1.100000X-0.325000X1.100000X0*%
%ADD36R,1.700000X1.700000*%
%ADD37O,1.700000X1.700000*%
%ADD38RoundRect,0.150000X-0.150000X0.512500X-0.150000X-0.512500X0.150000X-0.512500X0.150000X0.512500X0*%
%ADD39R,1.000000X1.000000*%
%ADD40O,1.000000X1.000000*%
%ADD41C,1.100000*%
%ADD42R,2.030000X1.730000*%
%ADD43O,2.030000X1.730000*%
%ADD44R,0.650000X0.400000*%
%ADD45RoundRect,0.250000X1.100000X-0.325000X1.100000X0.325000X-1.100000X0.325000X-1.100000X-0.325000X0*%
%ADD46R,4.350000X4.510000*%
%ADD47RoundRect,0.250000X-0.250000X-0.475000X0.250000X-0.475000X0.250000X0.475000X-0.250000X0.475000X0*%
%ADD48RoundRect,0.250000X0.450000X0.800000X-0.450000X0.800000X-0.450000X-0.800000X0.450000X-0.800000X0*%
%ADD49R,1.000000X0.900000*%
%ADD50RoundRect,0.250000X-1.000000X1.500000X-1.000000X-1.500000X1.000000X-1.500000X1.000000X1.500000X0*%
%ADD51R,4.000000X1.500000*%
%ADD52RoundRect,0.250000X0.312500X0.625000X-0.312500X0.625000X-0.312500X-0.625000X0.312500X-0.625000X0*%
%ADD53RoundRect,0.075000X-0.662500X-0.075000X0.662500X-0.075000X0.662500X0.075000X-0.662500X0.075000X0*%
%ADD54RoundRect,0.075000X-0.075000X-0.662500X0.075000X-0.662500X0.075000X0.662500X-0.075000X0.662500X0*%
%ADD55RoundRect,0.050000X-0.100000X0.285000X-0.100000X-0.285000X0.100000X-0.285000X0.100000X0.285000X0*%
%ADD56R,2.600000X2.600000*%
%ADD57C,2.600000*%
%ADD58R,2.760000X0.650000*%
%ADD59R,3.810000X4.245000*%
%ADD60RoundRect,0.250000X-0.650000X0.325000X-0.650000X-0.325000X0.650000X-0.325000X0.650000X0.325000X0*%
%ADD61RoundRect,0.250000X-0.787500X-1.025000X0.787500X-1.025000X0.787500X1.025000X-0.787500X1.025000X0*%
%ADD62R,2.000000X1.500000*%
%ADD63R,2.000000X3.800000*%
%ADD64RoundRect,0.062500X-0.062500X0.375000X-0.062500X-0.375000X0.062500X-0.375000X0.062500X0.375000X0*%
%ADD65RoundRect,0.062500X-0.375000X0.062500X-0.375000X-0.062500X0.375000X-0.062500X0.375000X0.062500X0*%
%ADD66R,3.450000X3.450000*%
%ADD67RoundRect,0.150000X0.150000X-0.587500X0.150000X0.587500X-0.150000X0.587500X-0.150000X-0.587500X0*%
%ADD68C,0.650000*%
%ADD69R,0.600000X1.150000*%
%ADD70R,0.300000X1.150000*%
%ADD71O,1.000000X2.100000*%
%ADD72O,1.000000X1.800000*%
%ADD73RoundRect,0.250000X0.325000X0.650000X-0.325000X0.650000X-0.325000X-0.650000X0.325000X-0.650000X0*%
G04 APERTURE END LIST*
G36*
X98400000Y-130400000D02*
G01*
X99900000Y-130400000D01*
X99900000Y-134600000D01*
X98400000Y-134600000D01*
X98400000Y-130400000D01*
G37*
G36*
X90100000Y-130400000D02*
G01*
X91600000Y-130400000D01*
X91600000Y-134600000D01*
X90100000Y-134600000D01*
X90100000Y-130400000D01*
G37*
G36*
X98400000Y-115400000D02*
G01*
X99900000Y-115400000D01*
X99900000Y-119600000D01*
X98400000Y-119600000D01*
X98400000Y-115400000D01*
G37*
G36*
X90100000Y-115400000D02*
G01*
X91600000Y-115400000D01*
X91600000Y-119600000D01*
X90100000Y-119600000D01*
X90100000Y-115400000D01*
G37*
D10*
X83920000Y-117220000D02*
X86280000Y-117220000D01*
X86280000Y-115420000D01*
X83920000Y-115420000D01*
X83920000Y-117220000D01*
G36*
X83920000Y-117220000D02*
G01*
X86280000Y-117220000D01*
X86280000Y-115420000D01*
X83920000Y-115420000D01*
X83920000Y-117220000D01*
G37*
X83920000Y-119570000D02*
X86280000Y-119570000D01*
X86280000Y-117770000D01*
X83920000Y-117770000D01*
X83920000Y-119570000D01*
G36*
X83920000Y-119570000D02*
G01*
X86280000Y-119570000D01*
X86280000Y-117770000D01*
X83920000Y-117770000D01*
X83920000Y-119570000D01*
G37*
X86730000Y-119590000D02*
X89090000Y-119590000D01*
X89090000Y-117790000D01*
X86730000Y-117790000D01*
X86730000Y-119590000D01*
G36*
X86730000Y-119590000D02*
G01*
X89090000Y-119590000D01*
X89090000Y-117790000D01*
X86730000Y-117790000D01*
X86730000Y-119590000D01*
G37*
X86740000Y-117220000D02*
X89100000Y-117220000D01*
X89100000Y-115420000D01*
X86740000Y-115420000D01*
X86740000Y-117220000D01*
G36*
X86740000Y-117220000D02*
G01*
X89100000Y-117220000D01*
X89100000Y-115420000D01*
X86740000Y-115420000D01*
X86740000Y-117220000D01*
G37*
X89670000Y-117200000D02*
X91550000Y-117200000D01*
X91550000Y-115620000D01*
X89670000Y-115620000D01*
X89670000Y-117200000D01*
G36*
X89670000Y-117200000D02*
G01*
X91550000Y-117200000D01*
X91550000Y-115620000D01*
X89670000Y-115620000D01*
X89670000Y-117200000D01*
G37*
X89680000Y-119370000D02*
X91550000Y-119370000D01*
X91550000Y-117790000D01*
X89680000Y-117790000D01*
X89680000Y-119370000D01*
G36*
X89680000Y-119370000D02*
G01*
X91550000Y-119370000D01*
X91550000Y-117790000D01*
X89680000Y-117790000D01*
X89680000Y-119370000D01*
G37*
X83920000Y-132220000D02*
X86280000Y-132220000D01*
X86280000Y-130420000D01*
X83920000Y-130420000D01*
X83920000Y-132220000D01*
G36*
X83920000Y-132220000D02*
G01*
X86280000Y-132220000D01*
X86280000Y-130420000D01*
X83920000Y-130420000D01*
X83920000Y-132220000D01*
G37*
X83920000Y-134570000D02*
X86280000Y-134570000D01*
X86280000Y-132770000D01*
X83920000Y-132770000D01*
X83920000Y-134570000D01*
G36*
X83920000Y-134570000D02*
G01*
X86280000Y-134570000D01*
X86280000Y-132770000D01*
X83920000Y-132770000D01*
X83920000Y-134570000D01*
G37*
X86730000Y-134590000D02*
X89090000Y-134590000D01*
X89090000Y-132790000D01*
X86730000Y-132790000D01*
X86730000Y-134590000D01*
G36*
X86730000Y-134590000D02*
G01*
X89090000Y-134590000D01*
X89090000Y-132790000D01*
X86730000Y-132790000D01*
X86730000Y-134590000D01*
G37*
X86740000Y-132220000D02*
X89100000Y-132220000D01*
X89100000Y-130420000D01*
X86740000Y-130420000D01*
X86740000Y-132220000D01*
G36*
X86740000Y-132220000D02*
G01*
X89100000Y-132220000D01*
X89100000Y-130420000D01*
X86740000Y-130420000D01*
X86740000Y-132220000D01*
G37*
X89670000Y-132200000D02*
X91550000Y-132200000D01*
X91550000Y-130620000D01*
X89670000Y-130620000D01*
X89670000Y-132200000D01*
G36*
X89670000Y-132200000D02*
G01*
X91550000Y-132200000D01*
X91550000Y-130620000D01*
X89670000Y-130620000D01*
X89670000Y-132200000D01*
G37*
X89680000Y-134370000D02*
X91550000Y-134370000D01*
X91550000Y-132790000D01*
X89680000Y-132790000D01*
X89680000Y-134370000D01*
G36*
X89680000Y-134370000D02*
G01*
X91550000Y-134370000D01*
X91550000Y-132790000D01*
X89680000Y-132790000D01*
X89680000Y-134370000D01*
G37*
X100320000Y-115630000D02*
X98450000Y-115630000D01*
X98450000Y-117210000D01*
X100320000Y-117210000D01*
X100320000Y-115630000D01*
G36*
X100320000Y-115630000D02*
G01*
X98450000Y-115630000D01*
X98450000Y-117210000D01*
X100320000Y-117210000D01*
X100320000Y-115630000D01*
G37*
X100330000Y-117800000D02*
X98450000Y-117800000D01*
X98450000Y-119380000D01*
X100330000Y-119380000D01*
X100330000Y-117800000D01*
G36*
X100330000Y-117800000D02*
G01*
X98450000Y-117800000D01*
X98450000Y-119380000D01*
X100330000Y-119380000D01*
X100330000Y-117800000D01*
G37*
X103260000Y-117780000D02*
X100900000Y-117780000D01*
X100900000Y-119580000D01*
X103260000Y-119580000D01*
X103260000Y-117780000D01*
G36*
X103260000Y-117780000D02*
G01*
X100900000Y-117780000D01*
X100900000Y-119580000D01*
X103260000Y-119580000D01*
X103260000Y-117780000D01*
G37*
X103270000Y-115410000D02*
X100910000Y-115410000D01*
X100910000Y-117210000D01*
X103270000Y-117210000D01*
X103270000Y-115410000D01*
G36*
X103270000Y-115410000D02*
G01*
X100910000Y-115410000D01*
X100910000Y-117210000D01*
X103270000Y-117210000D01*
X103270000Y-115410000D01*
G37*
X106080000Y-115430000D02*
X103720000Y-115430000D01*
X103720000Y-117230000D01*
X106080000Y-117230000D01*
X106080000Y-115430000D01*
G36*
X106080000Y-115430000D02*
G01*
X103720000Y-115430000D01*
X103720000Y-117230000D01*
X106080000Y-117230000D01*
X106080000Y-115430000D01*
G37*
X106080000Y-117780000D02*
X103720000Y-117780000D01*
X103720000Y-119580000D01*
X106080000Y-119580000D01*
X106080000Y-117780000D01*
G36*
X106080000Y-117780000D02*
G01*
X103720000Y-117780000D01*
X103720000Y-119580000D01*
X106080000Y-119580000D01*
X106080000Y-117780000D01*
G37*
X100320000Y-130630000D02*
X98450000Y-130630000D01*
X98450000Y-132210000D01*
X100320000Y-132210000D01*
X100320000Y-130630000D01*
G36*
X100320000Y-130630000D02*
G01*
X98450000Y-130630000D01*
X98450000Y-132210000D01*
X100320000Y-132210000D01*
X100320000Y-130630000D01*
G37*
X100330000Y-132800000D02*
X98450000Y-132800000D01*
X98450000Y-134380000D01*
X100330000Y-134380000D01*
X100330000Y-132800000D01*
G36*
X100330000Y-132800000D02*
G01*
X98450000Y-132800000D01*
X98450000Y-134380000D01*
X100330000Y-134380000D01*
X100330000Y-132800000D01*
G37*
X103260000Y-132780000D02*
X100900000Y-132780000D01*
X100900000Y-134580000D01*
X103260000Y-134580000D01*
X103260000Y-132780000D01*
G36*
X103260000Y-132780000D02*
G01*
X100900000Y-132780000D01*
X100900000Y-134580000D01*
X103260000Y-134580000D01*
X103260000Y-132780000D01*
G37*
X103270000Y-130410000D02*
X100910000Y-130410000D01*
X100910000Y-132210000D01*
X103270000Y-132210000D01*
X103270000Y-130410000D01*
G36*
X103270000Y-130410000D02*
G01*
X100910000Y-130410000D01*
X100910000Y-132210000D01*
X103270000Y-132210000D01*
X103270000Y-130410000D01*
G37*
X106080000Y-130430000D02*
X103720000Y-130430000D01*
X103720000Y-132230000D01*
X106080000Y-132230000D01*
X106080000Y-130430000D01*
G36*
X106080000Y-130430000D02*
G01*
X103720000Y-130430000D01*
X103720000Y-132230000D01*
X106080000Y-132230000D01*
X106080000Y-130430000D01*
G37*
X106080000Y-132780000D02*
X103720000Y-132780000D01*
X103720000Y-134580000D01*
X106080000Y-134580000D01*
X106080000Y-132780000D01*
G36*
X106080000Y-132780000D02*
G01*
X103720000Y-132780000D01*
X103720000Y-134580000D01*
X106080000Y-134580000D01*
X106080000Y-132780000D01*
G37*
D11*
X115697000Y-58044000D03*
X115697000Y-59944000D03*
D12*
X133626315Y-69976089D03*
X131726315Y-69976089D03*
D13*
X54150000Y-68565000D03*
X54150000Y-65615000D03*
D14*
X91264000Y-114584000D03*
X90762000Y-114584000D03*
X90260000Y-114584000D03*
X89758000Y-114584000D03*
X89256000Y-114584000D03*
X88754000Y-114584000D03*
X88252000Y-114584000D03*
X87750000Y-114584000D03*
X87248000Y-114584000D03*
X86746000Y-114584000D03*
X86244000Y-114584000D03*
X85742000Y-114584000D03*
X85240000Y-114584000D03*
X84738000Y-114584000D03*
X84236000Y-114584000D03*
X84236000Y-120416000D03*
X84751000Y-120416000D03*
X85251000Y-120416000D03*
X85751000Y-120416000D03*
X86251000Y-120416000D03*
X86751000Y-120416000D03*
X87248000Y-120416000D03*
X87751000Y-120416000D03*
X88252000Y-120416000D03*
X88754000Y-120416000D03*
X89256000Y-120416000D03*
X89758000Y-120416000D03*
X90251000Y-120416000D03*
X90762000Y-120416000D03*
X91251000Y-120416000D03*
D15*
X105475000Y-78100000D03*
X102525000Y-78100000D03*
D16*
X90180000Y-65440000D03*
X97790000Y-65440000D03*
D17*
X88257500Y-52590000D03*
X90082500Y-52590000D03*
D18*
X54450000Y-57290000D03*
X54450000Y-55465000D03*
D17*
X54937500Y-53377500D03*
X56762500Y-53377500D03*
D19*
X52600000Y-43000000D03*
X53302944Y-41302944D03*
X53302944Y-44697056D03*
X55000000Y-40600000D03*
D20*
X55000000Y-43000000D03*
D19*
X55000000Y-45400000D03*
X56697056Y-41302944D03*
X56697056Y-44697056D03*
X57400000Y-43000000D03*
D21*
X73200000Y-72900000D03*
X73200000Y-75850000D03*
D22*
X52850000Y-49190000D03*
X55775000Y-49190000D03*
D12*
X137126315Y-63556089D03*
X135226315Y-63556089D03*
D11*
X79770000Y-56955000D03*
X79770000Y-58855000D03*
D18*
X114400000Y-42812500D03*
X114400000Y-40987500D03*
D23*
X83870000Y-56755000D03*
X83870000Y-58855000D03*
D24*
X113726000Y-45142500D03*
X113726000Y-46967500D03*
D25*
X100875000Y-65145000D03*
X105500000Y-65145000D03*
D11*
X85017500Y-48835000D03*
X85017500Y-50735000D03*
D26*
X86692000Y-52570000D03*
X84867000Y-52570000D03*
D27*
X111567000Y-46950000D03*
X111567000Y-45050000D03*
D28*
X132500000Y-162500000D03*
D26*
X112512500Y-42800000D03*
X110687500Y-42800000D03*
D29*
X83125000Y-77080000D03*
X84395000Y-77080000D03*
X85665000Y-77080000D03*
X86935000Y-77080000D03*
D30*
X85030000Y-73950000D03*
D29*
X83125000Y-71480000D03*
X84395000Y-71480000D03*
X85665000Y-71480000D03*
X86935000Y-71480000D03*
D31*
X97900000Y-58293000D03*
X95100000Y-58293000D03*
D11*
X120965000Y-54503000D03*
X120965000Y-56403000D03*
D32*
X69960000Y-56020000D03*
X69960000Y-60320000D03*
D33*
X103700000Y-82600000D03*
D34*
X124775200Y-67726600D03*
X125425200Y-67726600D03*
X126075200Y-67726600D03*
X126075200Y-65826600D03*
X125425200Y-65826600D03*
X124775200Y-65826600D03*
D35*
X134350000Y-49400000D03*
X137300000Y-49400000D03*
D12*
X122826315Y-64176089D03*
X120926315Y-64176089D03*
D36*
X108100000Y-41325000D03*
D37*
X108100000Y-43865000D03*
D38*
X137176315Y-65576089D03*
X136226315Y-65576089D03*
X135276315Y-65576089D03*
X135276315Y-67851089D03*
X137176315Y-67851089D03*
D39*
X129875000Y-72900000D03*
D40*
X128605000Y-72900000D03*
X127335000Y-72900000D03*
X126065000Y-72900000D03*
X124795000Y-72900000D03*
X123525000Y-72900000D03*
D18*
X124300000Y-50112500D03*
X124300000Y-48287500D03*
D27*
X75670000Y-57140000D03*
X75670000Y-55240000D03*
D41*
X133303000Y-55740000D03*
D42*
X135463000Y-60820000D03*
D43*
X135463000Y-58280000D03*
X135463000Y-55740000D03*
X135463000Y-53200000D03*
D33*
X114300000Y-82600000D03*
D18*
X106261500Y-58949500D03*
X106261500Y-57124500D03*
D28*
X57500000Y-162500000D03*
D36*
X104500000Y-41325000D03*
D37*
X104500000Y-43865000D03*
D28*
X57500000Y-87500000D03*
D13*
X107700000Y-65175000D03*
X107700000Y-62225000D03*
D18*
X128200000Y-50112500D03*
X128200000Y-48287500D03*
D17*
X86870000Y-48605000D03*
X88695000Y-48605000D03*
D18*
X130100000Y-50112500D03*
X130100000Y-48287500D03*
D44*
X117312400Y-54899800D03*
X117312400Y-55549800D03*
X117312400Y-56199800D03*
X119212400Y-56199800D03*
X119212400Y-55549800D03*
X119212400Y-54899800D03*
D26*
X88695000Y-50605000D03*
X86870000Y-50605000D03*
D45*
X110500000Y-65175000D03*
X110500000Y-62225000D03*
D25*
X100887500Y-74825001D03*
X105512500Y-74825001D03*
D29*
X81539000Y-67105000D03*
X81539000Y-65835000D03*
X81539000Y-64565000D03*
X81539000Y-63295000D03*
D46*
X78409000Y-65200000D03*
D29*
X75939000Y-67105000D03*
X75939000Y-65835000D03*
X75939000Y-64565000D03*
X75939000Y-63295000D03*
D11*
X60050000Y-55540000D03*
X60050000Y-57440000D03*
D47*
X124426315Y-69376089D03*
X126326315Y-69376089D03*
D26*
X113812500Y-48700000D03*
X111987500Y-48700000D03*
D11*
X121031000Y-58044000D03*
X121031000Y-59944000D03*
D34*
X122493800Y-65826600D03*
X121843800Y-65826600D03*
X121193800Y-65826600D03*
X121193800Y-67726600D03*
X121843800Y-67726600D03*
X122493800Y-67726600D03*
D45*
X73250000Y-66975000D03*
X73250000Y-64025000D03*
D11*
X110363000Y-55652000D03*
X110363000Y-57552000D03*
D19*
X133600000Y-43000000D03*
X134302944Y-41302944D03*
X134302944Y-44697056D03*
X136000000Y-40600000D03*
D20*
X136000000Y-43000000D03*
D19*
X136000000Y-45400000D03*
X137697056Y-41302944D03*
X137697056Y-44697056D03*
X138400000Y-43000000D03*
D29*
X81500000Y-74105000D03*
X81500000Y-72835000D03*
X81500000Y-71565000D03*
X81500000Y-70295000D03*
D46*
X78370000Y-72200000D03*
D29*
X75900000Y-74105000D03*
X75900000Y-72835000D03*
X75900000Y-71565000D03*
X75900000Y-70295000D03*
D17*
X100015000Y-55878000D03*
X101840000Y-55878000D03*
D31*
X97899750Y-55199000D03*
X95099750Y-55199000D03*
D48*
X58250000Y-62590000D03*
X53850000Y-62590000D03*
D28*
X132500000Y-87500000D03*
D18*
X104300000Y-59175000D03*
X104300000Y-57350000D03*
D49*
X97538000Y-50386000D03*
X99688000Y-50386000D03*
X99688000Y-48836000D03*
X97538000Y-48836000D03*
D14*
X91264000Y-129584000D03*
X90762000Y-129584000D03*
X90260000Y-129584000D03*
X89758000Y-129584000D03*
X89256000Y-129584000D03*
X88754000Y-129584000D03*
X88252000Y-129584000D03*
X87750000Y-129584000D03*
X87248000Y-129584000D03*
X86746000Y-129584000D03*
X86244000Y-129584000D03*
X85742000Y-129584000D03*
X85240000Y-129584000D03*
X84738000Y-129584000D03*
X84236000Y-129584000D03*
X84236000Y-135416000D03*
X84751000Y-135416000D03*
X85251000Y-135416000D03*
X85751000Y-135416000D03*
X86251000Y-135416000D03*
X86751000Y-135416000D03*
X87248000Y-135416000D03*
X87751000Y-135416000D03*
X88252000Y-135416000D03*
X88754000Y-135416000D03*
X89256000Y-135416000D03*
X89758000Y-135416000D03*
X90251000Y-135416000D03*
X90762000Y-135416000D03*
X91251000Y-135416000D03*
D27*
X82870000Y-48240000D03*
X82870000Y-46340000D03*
D12*
X122826315Y-69376089D03*
X120926315Y-69376089D03*
D18*
X108166500Y-58949500D03*
X108166500Y-57124500D03*
D19*
X133600000Y-172000000D03*
X134302944Y-170302944D03*
X134302944Y-173697056D03*
X136000000Y-169600000D03*
D20*
X136000000Y-172000000D03*
D19*
X136000000Y-174400000D03*
X137697056Y-170302944D03*
X137697056Y-173697056D03*
X138400000Y-172000000D03*
D15*
X105475000Y-68400000D03*
X102525000Y-68400000D03*
D24*
X73780000Y-49945000D03*
X73780000Y-51770000D03*
D18*
X126200000Y-50112500D03*
X126200000Y-48287500D03*
D50*
X63710000Y-71150000D03*
X63710000Y-77650000D03*
D38*
X58200000Y-55340000D03*
X57250000Y-55340000D03*
X56300000Y-55340000D03*
X56300000Y-57615000D03*
X57250000Y-57615000D03*
X58200000Y-57615000D03*
D14*
X98736000Y-120416000D03*
X99238000Y-120416000D03*
X99740000Y-120416000D03*
X100242000Y-120416000D03*
X100744000Y-120416000D03*
X101246000Y-120416000D03*
X101748000Y-120416000D03*
X102250000Y-120416000D03*
X102752000Y-120416000D03*
X103254000Y-120416000D03*
X103756000Y-120416000D03*
X104258000Y-120416000D03*
X104760000Y-120416000D03*
X105262000Y-120416000D03*
X105764000Y-120416000D03*
X105764000Y-114584000D03*
X105249000Y-114584000D03*
X104749000Y-114584000D03*
X104249000Y-114584000D03*
X103749000Y-114584000D03*
X103249000Y-114584000D03*
X102752000Y-114584000D03*
X102249000Y-114584000D03*
X101748000Y-114584000D03*
X101246000Y-114584000D03*
X100744000Y-114584000D03*
X100242000Y-114584000D03*
X99749000Y-114584000D03*
X99238000Y-114584000D03*
X98749000Y-114584000D03*
D12*
X137126315Y-69856089D03*
X135226315Y-69856089D03*
D51*
X58250000Y-65290000D03*
X58250000Y-68890000D03*
D17*
X91589250Y-55245000D03*
X93414250Y-55245000D03*
D26*
X130058815Y-69876089D03*
X128233815Y-69876089D03*
D47*
X124426315Y-64176089D03*
X126326315Y-64176089D03*
D17*
X74147500Y-53520000D03*
X75972500Y-53520000D03*
D27*
X80870000Y-48230000D03*
X80870000Y-46330000D03*
D38*
X133676315Y-65696089D03*
X132726315Y-65696089D03*
X131776315Y-65696089D03*
X131776315Y-67971089D03*
X133676315Y-67971089D03*
D19*
X52600000Y-75000000D03*
X53302944Y-73302944D03*
X53302944Y-76697056D03*
X55000000Y-72600000D03*
D20*
X55000000Y-75000000D03*
D19*
X55000000Y-77400000D03*
X56697056Y-73302944D03*
X56697056Y-76697056D03*
X57400000Y-75000000D03*
D12*
X101880500Y-46300000D03*
X99980500Y-46300000D03*
D47*
X131726315Y-63576089D03*
X133626315Y-63576089D03*
D14*
X98736000Y-135416000D03*
X99238000Y-135416000D03*
X99740000Y-135416000D03*
X100242000Y-135416000D03*
X100744000Y-135416000D03*
X101246000Y-135416000D03*
X101748000Y-135416000D03*
X102250000Y-135416000D03*
X102752000Y-135416000D03*
X103254000Y-135416000D03*
X103756000Y-135416000D03*
X104258000Y-135416000D03*
X104760000Y-135416000D03*
X105262000Y-135416000D03*
X105764000Y-135416000D03*
X105764000Y-129584000D03*
X105249000Y-129584000D03*
X104749000Y-129584000D03*
X104249000Y-129584000D03*
X103749000Y-129584000D03*
X103249000Y-129584000D03*
X102752000Y-129584000D03*
X102249000Y-129584000D03*
X101748000Y-129584000D03*
X101246000Y-129584000D03*
X100744000Y-129584000D03*
X100242000Y-129584000D03*
X99749000Y-129584000D03*
X99238000Y-129584000D03*
X98749000Y-129584000D03*
D41*
X124667000Y-55740000D03*
D42*
X126827000Y-60820000D03*
D43*
X126827000Y-58280000D03*
X126827000Y-55740000D03*
X126827000Y-53200000D03*
D19*
X133600000Y-75000000D03*
X134302944Y-73302944D03*
X134302944Y-76697056D03*
X136000000Y-72600000D03*
D20*
X136000000Y-75000000D03*
D19*
X136000000Y-77400000D03*
X137697056Y-73302944D03*
X137697056Y-76697056D03*
X138400000Y-75000000D03*
D18*
X75770000Y-51792500D03*
X75770000Y-49967500D03*
D12*
X99650000Y-52222400D03*
X97750000Y-52222400D03*
D52*
X88672500Y-58580000D03*
X85747500Y-58580000D03*
D27*
X78870000Y-46405000D03*
X78870000Y-44505000D03*
D26*
X75470000Y-48105000D03*
X73645000Y-48105000D03*
D53*
X101718000Y-48302000D03*
X101718000Y-48802000D03*
X101718000Y-49302000D03*
X101718000Y-49802000D03*
X101718000Y-50302000D03*
X101718000Y-50802000D03*
X101718000Y-51302000D03*
X101718000Y-51802000D03*
X101718000Y-52302000D03*
X101718000Y-52802000D03*
X101718000Y-53302000D03*
X101718000Y-53802000D03*
D54*
X103130500Y-55214500D03*
X103630500Y-55214500D03*
X104130500Y-55214500D03*
X104630500Y-55214500D03*
X105130500Y-55214500D03*
X105630500Y-55214500D03*
X106130500Y-55214500D03*
X106630500Y-55214500D03*
X107130500Y-55214500D03*
X107630500Y-55214500D03*
X108130500Y-55214500D03*
X108630500Y-55214500D03*
D53*
X110043000Y-53802000D03*
X110043000Y-53302000D03*
X110043000Y-52802000D03*
X110043000Y-52302000D03*
X110043000Y-51802000D03*
X110043000Y-51302000D03*
X110043000Y-50802000D03*
X110043000Y-50302000D03*
X110043000Y-49802000D03*
X110043000Y-49302000D03*
X110043000Y-48802000D03*
X110043000Y-48302000D03*
D54*
X108630500Y-46889500D03*
X108130500Y-46889500D03*
X107630500Y-46889500D03*
X107130500Y-46889500D03*
X106630500Y-46889500D03*
X106130500Y-46889500D03*
X105630500Y-46889500D03*
X105130500Y-46889500D03*
X104630500Y-46889500D03*
X104130500Y-46889500D03*
X103630500Y-46889500D03*
X103130500Y-46889500D03*
D55*
X109850000Y-124260000D03*
X109350000Y-124260000D03*
X108850000Y-124260000D03*
X108850000Y-125740000D03*
X109350000Y-125740000D03*
X109850000Y-125740000D03*
D33*
X52650000Y-52890000D03*
D56*
X65000000Y-53200000D03*
D57*
X65000000Y-47200000D03*
X60300000Y-50200000D03*
D58*
X120191000Y-49484000D03*
X116151000Y-49484000D03*
X120191000Y-48214000D03*
X116151000Y-48214000D03*
X120191000Y-46944000D03*
X116151000Y-46944000D03*
X120191000Y-45674000D03*
X116151000Y-45674000D03*
X120191000Y-44404000D03*
X116151000Y-44404000D03*
D15*
X105475000Y-71600000D03*
X102525000Y-71600000D03*
D59*
X64900000Y-64187500D03*
X64900000Y-57812500D03*
D60*
X96500000Y-41238000D03*
X96500000Y-44188000D03*
D17*
X91589500Y-58339000D03*
X93414500Y-58339000D03*
X96587500Y-46300000D03*
X98412500Y-46300000D03*
D61*
X107787500Y-78100000D03*
X114012500Y-78100000D03*
D16*
X90180000Y-74838000D03*
X97790000Y-74838000D03*
D11*
X95565000Y-48788000D03*
X95565000Y-50688000D03*
D62*
X91522000Y-45902000D03*
X91522000Y-43602000D03*
D63*
X85222000Y-43602000D03*
D62*
X91522000Y-41302000D03*
D26*
X112512500Y-40900000D03*
X110687500Y-40900000D03*
D64*
X82457500Y-50067500D03*
X81957500Y-50067500D03*
X81457500Y-50067500D03*
X80957500Y-50067500D03*
X80457500Y-50067500D03*
X79957500Y-50067500D03*
X79457500Y-50067500D03*
X78957500Y-50067500D03*
D65*
X78270000Y-50755000D03*
X78270000Y-51255000D03*
X78270000Y-51755000D03*
X78270000Y-52255000D03*
X78270000Y-52755000D03*
X78270000Y-53255000D03*
X78270000Y-53755000D03*
X78270000Y-54255000D03*
D64*
X78957500Y-54942500D03*
X79457500Y-54942500D03*
X79957500Y-54942500D03*
X80457500Y-54942500D03*
X80957500Y-54942500D03*
X81457500Y-54942500D03*
X81957500Y-54942500D03*
X82457500Y-54942500D03*
D65*
X83145000Y-54255000D03*
X83145000Y-53755000D03*
X83145000Y-53255000D03*
X83145000Y-52755000D03*
X83145000Y-52255000D03*
X83145000Y-51755000D03*
X83145000Y-51255000D03*
X83145000Y-50755000D03*
D66*
X80707500Y-52505000D03*
D49*
X100500000Y-40250000D03*
X100500000Y-44350000D03*
X98900000Y-40250000D03*
X98900000Y-44350000D03*
D11*
X115631000Y-54503000D03*
X115631000Y-56403000D03*
D67*
X128196315Y-67703589D03*
X130096315Y-67703589D03*
X129146315Y-65828589D03*
D29*
X87000000Y-63187500D03*
X85730000Y-63187500D03*
X84460000Y-63187500D03*
X83190000Y-63187500D03*
D30*
X85095000Y-66317500D03*
D29*
X87000000Y-68787500D03*
X85730000Y-68787500D03*
X84460000Y-68787500D03*
X83190000Y-68787500D03*
D68*
X130090000Y-45305000D03*
X124310000Y-45305000D03*
D69*
X130400000Y-46380000D03*
X129600000Y-46380000D03*
D70*
X128450000Y-46380000D03*
X127450000Y-46380000D03*
X126950000Y-46380000D03*
X125950000Y-46380000D03*
D69*
X124800000Y-46380000D03*
X124000000Y-46380000D03*
X124000000Y-46380000D03*
X124800000Y-46380000D03*
D70*
X125450000Y-46380000D03*
X126450000Y-46380000D03*
X127950000Y-46380000D03*
X128950000Y-46380000D03*
D69*
X129600000Y-46380000D03*
X130400000Y-46380000D03*
D71*
X131520000Y-45805000D03*
D72*
X131520000Y-41625000D03*
D71*
X122880000Y-45805000D03*
D72*
X122880000Y-41625000D03*
D44*
X117363200Y-58328800D03*
X117363200Y-58978800D03*
X117363200Y-59628800D03*
X119263200Y-59628800D03*
X119263200Y-58978800D03*
X119263200Y-58328800D03*
D61*
X107787500Y-68500000D03*
X114012500Y-68500000D03*
D21*
X69900000Y-72875000D03*
X69900000Y-75825000D03*
D45*
X70000000Y-66975000D03*
X70000000Y-64025000D03*
D23*
X77770000Y-56855000D03*
X77770000Y-58955000D03*
D12*
X78970000Y-48155000D03*
X77070000Y-48155000D03*
D26*
X76970000Y-46205000D03*
X75145000Y-46205000D03*
D27*
X81870000Y-58855000D03*
X81870000Y-56955000D03*
D61*
X107787500Y-73300000D03*
X114012500Y-73300000D03*
D11*
X85970000Y-54755000D03*
X85970000Y-56655000D03*
D17*
X100737500Y-58900000D03*
X102562500Y-58900000D03*
X128233815Y-63576089D03*
X130058815Y-63576089D03*
D18*
X112413000Y-56028500D03*
X112413000Y-54203500D03*
D73*
X56825000Y-59890000D03*
X53875000Y-59890000D03*
D60*
X94087000Y-43397000D03*
X94087000Y-46347000D03*
D19*
X52600000Y-172000000D03*
X53302944Y-170302944D03*
X53302944Y-173697056D03*
X55000000Y-169600000D03*
D20*
X55000000Y-172000000D03*
D19*
X55000000Y-174400000D03*
X56697056Y-170302944D03*
X56697056Y-173697056D03*
X57400000Y-172000000D03*
D18*
X80970000Y-44805000D03*
X80970000Y-42980000D03*
G36*
X90486039Y-40419685D02*
G01*
X90531794Y-40472489D01*
X90543000Y-40524000D01*
X90543000Y-46576000D01*
X90523315Y-46643039D01*
X90470511Y-46688794D01*
X90419000Y-46700000D01*
X86124000Y-46700000D01*
X86056961Y-46680315D01*
X86011206Y-46627511D01*
X86000000Y-46576000D01*
X86000000Y-40524000D01*
X86019685Y-40456961D01*
X86072489Y-40411206D01*
X86124000Y-40400000D01*
X90419000Y-40400000D01*
X90486039Y-40419685D01*
G37*
M02*
