G04 #@! TF.GenerationSoftware,KiCad,Pcbnew,8.0.1-8.0.1-1~ubuntu22.04.1*
G04 #@! TF.CreationDate,2024-04-30T21:46:33+02:00*
G04 #@! TF.ProjectId,qaxe,71617865-2e6b-4696-9361-645f70636258,rev?*
G04 #@! TF.SameCoordinates,Original*
G04 #@! TF.FileFunction,Soldermask,Bot*
G04 #@! TF.FilePolarity,Negative*
%FSLAX46Y46*%
G04 Gerber Fmt 4.6, Leading zero omitted, Abs format (unit mm)*
G04 Created by KiCad (PCBNEW 8.0.1-8.0.1-1~ubuntu22.04.1) date 2024-04-30 21:46:33*
%MOMM*%
%LPD*%
G01*
G04 APERTURE LIST*
G04 Aperture macros list*
%AMRoundRect*
0 Rectangle with rounded corners*
0 $1 Rounding radius*
0 $2 $3 $4 $5 $6 $7 $8 $9 X,Y pos of 4 corners*
0 Add a 4 corners polygon primitive as box body*
4,1,4,$2,$3,$4,$5,$6,$7,$8,$9,$2,$3,0*
0 Add four circle primitives for the rounded corners*
1,1,$1+$1,$2,$3*
1,1,$1+$1,$4,$5*
1,1,$1+$1,$6,$7*
1,1,$1+$1,$8,$9*
0 Add four rect primitives between the rounded corners*
20,1,$1+$1,$2,$3,$4,$5,0*
20,1,$1+$1,$4,$5,$6,$7,0*
20,1,$1+$1,$6,$7,$8,$9,0*
20,1,$1+$1,$8,$9,$2,$3,0*%
G04 Aperture macros list end*
%ADD10C,1.500000*%
%ADD11C,0.800000*%
%ADD12C,6.400000*%
%ADD13C,4.000000*%
%ADD14R,1.700000X1.700000*%
%ADD15O,1.700000X1.700000*%
%ADD16R,1.000000X1.000000*%
%ADD17O,1.000000X1.000000*%
%ADD18C,1.100000*%
%ADD19R,2.030000X1.730000*%
%ADD20O,2.030000X1.730000*%
%ADD21R,2.600000X2.600000*%
%ADD22C,2.600000*%
%ADD23C,0.650000*%
%ADD24O,1.000000X2.100000*%
%ADD25O,1.000000X1.800000*%
%ADD26RoundRect,0.250000X0.250000X0.475000X-0.250000X0.475000X-0.250000X-0.475000X0.250000X-0.475000X0*%
%ADD27RoundRect,0.250000X0.475000X-0.250000X0.475000X0.250000X-0.475000X0.250000X-0.475000X-0.250000X0*%
%ADD28RoundRect,0.250000X0.450000X-0.262500X0.450000X0.262500X-0.450000X0.262500X-0.450000X-0.262500X0*%
%ADD29RoundRect,0.250000X-0.475000X0.250000X-0.475000X-0.250000X0.475000X-0.250000X0.475000X0.250000X0*%
%ADD30RoundRect,0.250000X-0.450000X0.262500X-0.450000X-0.262500X0.450000X-0.262500X0.450000X0.262500X0*%
%ADD31RoundRect,0.250000X0.262500X0.450000X-0.262500X0.450000X-0.262500X-0.450000X0.262500X-0.450000X0*%
%ADD32RoundRect,0.250000X-0.262500X-0.450000X0.262500X-0.450000X0.262500X0.450000X-0.262500X0.450000X0*%
%ADD33RoundRect,0.250000X-0.250000X-0.475000X0.250000X-0.475000X0.250000X0.475000X-0.250000X0.475000X0*%
%ADD34R,1.000000X0.900000*%
%ADD35RoundRect,0.250000X1.100000X-0.325000X1.100000X0.325000X-1.100000X0.325000X-1.100000X-0.325000X0*%
%ADD36RoundRect,0.250000X-1.100000X0.325000X-1.100000X-0.325000X1.100000X-0.325000X1.100000X0.325000X0*%
%ADD37RoundRect,0.050000X0.100000X-0.285000X0.100000X0.285000X-0.100000X0.285000X-0.100000X-0.285000X0*%
G04 APERTURE END LIST*
D10*
X62000000Y-92000000D03*
D11*
X52600000Y-43000000D03*
X53302944Y-41302944D03*
X53302944Y-44697056D03*
X55000000Y-40600000D03*
D12*
X55000000Y-43000000D03*
D11*
X55000000Y-45400000D03*
X56697056Y-41302944D03*
X56697056Y-44697056D03*
X57400000Y-43000000D03*
D13*
X132500000Y-162500000D03*
D14*
X108100000Y-41325000D03*
D15*
X108100000Y-43865000D03*
D16*
X129875000Y-72900000D03*
D17*
X128605000Y-72900000D03*
X127335000Y-72900000D03*
X126065000Y-72900000D03*
X124795000Y-72900000D03*
X123525000Y-72900000D03*
D18*
X133303000Y-55740000D03*
D19*
X135463000Y-60820000D03*
D20*
X135463000Y-58280000D03*
X135463000Y-55740000D03*
X135463000Y-53200000D03*
D13*
X57500000Y-162500000D03*
D14*
X104500000Y-41325000D03*
D15*
X104500000Y-43865000D03*
D13*
X57500000Y-87500000D03*
D10*
X62000000Y-158000000D03*
D11*
X133600000Y-43000000D03*
X134302944Y-41302944D03*
X134302944Y-44697056D03*
X136000000Y-40600000D03*
D12*
X136000000Y-43000000D03*
D11*
X136000000Y-45400000D03*
X137697056Y-41302944D03*
X137697056Y-44697056D03*
X138400000Y-43000000D03*
D13*
X132500000Y-87500000D03*
D10*
X128000000Y-158000000D03*
D11*
X133600000Y-172000000D03*
X134302944Y-170302944D03*
X134302944Y-173697056D03*
X136000000Y-169600000D03*
D12*
X136000000Y-172000000D03*
D11*
X136000000Y-174400000D03*
X137697056Y-170302944D03*
X137697056Y-173697056D03*
X138400000Y-172000000D03*
X52600000Y-75000000D03*
X53302944Y-73302944D03*
X53302944Y-76697056D03*
X55000000Y-72600000D03*
D12*
X55000000Y-75000000D03*
D11*
X55000000Y-77400000D03*
X56697056Y-73302944D03*
X56697056Y-76697056D03*
X57400000Y-75000000D03*
D18*
X124667000Y-55740000D03*
D19*
X126827000Y-60820000D03*
D20*
X126827000Y-58280000D03*
X126827000Y-55740000D03*
X126827000Y-53200000D03*
D11*
X133600000Y-75000000D03*
X134302944Y-73302944D03*
X134302944Y-76697056D03*
X136000000Y-72600000D03*
D12*
X136000000Y-75000000D03*
D11*
X136000000Y-77400000D03*
X137697056Y-73302944D03*
X137697056Y-76697056D03*
X138400000Y-75000000D03*
D21*
X65000000Y-53200000D03*
D22*
X65000000Y-47200000D03*
X60300000Y-50200000D03*
D23*
X130090000Y-45305000D03*
X124310000Y-45305000D03*
D24*
X131520000Y-45805000D03*
D25*
X131520000Y-41625000D03*
D24*
X122880000Y-45805000D03*
D25*
X122880000Y-41625000D03*
D10*
X128000000Y-92000000D03*
D11*
X52600000Y-172000000D03*
X53302944Y-170302944D03*
X53302944Y-173697056D03*
X55000000Y-169600000D03*
D12*
X55000000Y-172000000D03*
D11*
X55000000Y-174400000D03*
X56697056Y-170302944D03*
X56697056Y-173697056D03*
X57400000Y-172000000D03*
D26*
X91760000Y-129310000D03*
X89860000Y-129310000D03*
X106650000Y-128100000D03*
X104750000Y-128100000D03*
D27*
X101000000Y-112650000D03*
X101000000Y-110750000D03*
X96500000Y-140250000D03*
X96500000Y-138350000D03*
D28*
X103020000Y-122372500D03*
X103020000Y-120547500D03*
D29*
X93300000Y-138350000D03*
X93300000Y-140250000D03*
D26*
X91650000Y-121325000D03*
X89750000Y-121325000D03*
D30*
X102800000Y-137987500D03*
X102800000Y-139812500D03*
D29*
X90043000Y-69281000D03*
X90043000Y-71181000D03*
X104900000Y-110750000D03*
X104900000Y-112650000D03*
D30*
X86910000Y-127637500D03*
X86910000Y-129462500D03*
D31*
X87925000Y-125850000D03*
X86100000Y-125850000D03*
D26*
X90000000Y-133270000D03*
X88100000Y-133270000D03*
D29*
X88875000Y-138000000D03*
X88875000Y-139900000D03*
D27*
X83100000Y-112575000D03*
X83100000Y-110675000D03*
D32*
X101987500Y-124100000D03*
X103812500Y-124100000D03*
D33*
X105450000Y-126100000D03*
X107350000Y-126100000D03*
X99920000Y-116670000D03*
X101820000Y-116670000D03*
X99950000Y-134600000D03*
X101850000Y-134600000D03*
X100000000Y-130600000D03*
X101900000Y-130600000D03*
X99920000Y-118670000D03*
X101820000Y-118670000D03*
D26*
X84450000Y-124100000D03*
X82550000Y-124100000D03*
D29*
X93100000Y-134650000D03*
X93100000Y-136550000D03*
D27*
X100850000Y-139875000D03*
X100850000Y-137975000D03*
X104750000Y-139850000D03*
X104750000Y-137950000D03*
X109100000Y-125300000D03*
X109100000Y-123400000D03*
D26*
X91700000Y-123325000D03*
X89800000Y-123325000D03*
D30*
X86875000Y-138037500D03*
X86875000Y-139862500D03*
D33*
X83300000Y-122100000D03*
X85200000Y-122100000D03*
D27*
X98875000Y-139875000D03*
X98875000Y-137975000D03*
D33*
X83290000Y-128160000D03*
X85190000Y-128160000D03*
D26*
X91750000Y-127325000D03*
X89850000Y-127325000D03*
D29*
X93300000Y-109800000D03*
X93300000Y-111700000D03*
D33*
X98310000Y-122610000D03*
X100210000Y-122610000D03*
D26*
X89950000Y-119300000D03*
X88050000Y-119300000D03*
X90000000Y-117300000D03*
X88100000Y-117300000D03*
D27*
X96900000Y-136550000D03*
X96900000Y-134650000D03*
D29*
X83000000Y-107175000D03*
X83000000Y-109075000D03*
D27*
X106900000Y-112650000D03*
X106900000Y-110750000D03*
D33*
X98310000Y-120630000D03*
X100210000Y-120630000D03*
D30*
X87100000Y-110775000D03*
X87100000Y-112600000D03*
D29*
X91100000Y-110575000D03*
X91100000Y-112475000D03*
D33*
X98310000Y-128610000D03*
X100210000Y-128610000D03*
D27*
X98990000Y-112650000D03*
X98990000Y-110750000D03*
D34*
X84975000Y-107425000D03*
X87125000Y-107425000D03*
X87125000Y-108975000D03*
X84975000Y-108975000D03*
D33*
X99920000Y-114670000D03*
X101820000Y-114670000D03*
X100000000Y-132600000D03*
X101900000Y-132600000D03*
D26*
X106650000Y-122100000D03*
X104750000Y-122100000D03*
D31*
X86237500Y-114650000D03*
X84412500Y-114650000D03*
D35*
X94900000Y-129775000D03*
X94900000Y-126825000D03*
D28*
X111900000Y-72162500D03*
X111900000Y-70337500D03*
X102930000Y-112612500D03*
X102930000Y-110787500D03*
D27*
X84875000Y-139900000D03*
X84875000Y-138000000D03*
D29*
X82875000Y-138000000D03*
X82875000Y-139900000D03*
D26*
X91750000Y-125325000D03*
X89850000Y-125325000D03*
D28*
X109900000Y-72162500D03*
X109900000Y-70337500D03*
D26*
X90000000Y-131270000D03*
X88100000Y-131270000D03*
D36*
X94900000Y-120525000D03*
X94900000Y-123475000D03*
D37*
X88500000Y-70844000D03*
X88000000Y-70844000D03*
X87500000Y-70844000D03*
X87500000Y-69364000D03*
X88000000Y-69364000D03*
X88500000Y-69364000D03*
D26*
X90000000Y-135270000D03*
X88100000Y-135270000D03*
X89950000Y-115300000D03*
X88050000Y-115300000D03*
D29*
X106725000Y-137950000D03*
X106725000Y-139850000D03*
X89100000Y-110575000D03*
X89100000Y-112475000D03*
X90875000Y-138000000D03*
X90875000Y-139900000D03*
D33*
X98310000Y-126610000D03*
X100210000Y-126610000D03*
D27*
X97000000Y-115200000D03*
X97000000Y-113300000D03*
D29*
X85100000Y-110675000D03*
X85100000Y-112575000D03*
D33*
X105450000Y-124100000D03*
X107350000Y-124100000D03*
D29*
X93100000Y-113300000D03*
X93100000Y-115200000D03*
D27*
X96700000Y-111700000D03*
X96700000Y-109800000D03*
D33*
X98260000Y-124610000D03*
X100160000Y-124610000D03*
D26*
X84450000Y-126100000D03*
X82550000Y-126100000D03*
M02*
