G04 #@! TF.GenerationSoftware,KiCad,Pcbnew,8.0.1-8.0.1-1~ubuntu22.04.1*
G04 #@! TF.CreationDate,2024-03-26T16:59:47+01:00*
G04 #@! TF.ProjectId,qaxe,71617865-2e6b-4696-9361-645f70636258,rev?*
G04 #@! TF.SameCoordinates,Original*
G04 #@! TF.FileFunction,Paste,Top*
G04 #@! TF.FilePolarity,Positive*
%FSLAX46Y46*%
G04 Gerber Fmt 4.6, Leading zero omitted, Abs format (unit mm)*
G04 Created by KiCad (PCBNEW 8.0.1-8.0.1-1~ubuntu22.04.1) date 2024-03-26 16:59:47*
%MOMM*%
%LPD*%
G01*
G04 APERTURE LIST*
G04 Aperture macros list*
%AMRoundRect*
0 Rectangle with rounded corners*
0 $1 Rounding radius*
0 $2 $3 $4 $5 $6 $7 $8 $9 X,Y pos of 4 corners*
0 Add a 4 corners polygon primitive as box body*
4,1,4,$2,$3,$4,$5,$6,$7,$8,$9,$2,$3,0*
0 Add four circle primitives for the rounded corners*
1,1,$1+$1,$2,$3*
1,1,$1+$1,$4,$5*
1,1,$1+$1,$6,$7*
1,1,$1+$1,$8,$9*
0 Add four rect primitives between the rounded corners*
20,1,$1+$1,$2,$3,$4,$5,0*
20,1,$1+$1,$4,$5,$6,$7,0*
20,1,$1+$1,$6,$7,$8,$9,0*
20,1,$1+$1,$8,$9,$2,$3,0*%
%AMFreePoly0*
4,1,19,0.250763,0.273032,0.287330,0.222702,0.292257,0.191596,0.292257,-0.108205,0.273032,-0.167372,0.262774,-0.179383,0.179383,-0.262774,0.123952,-0.291018,0.108205,-0.292257,-0.191596,-0.292257,-0.250763,-0.273032,-0.287330,-0.222702,-0.292257,-0.191596,-0.292257,0.191596,-0.273032,0.250763,-0.222702,0.287330,-0.191596,0.292257,0.191596,0.292257,0.250763,0.273032,0.250763,0.273032,
$1*%
%AMFreePoly1*
4,1,21,0.195247,0.383971,0.200509,0.379148,0.268292,0.311365,0.291946,0.260640,0.292257,0.253509,0.292257,-0.253509,0.273115,-0.306103,0.268292,-0.311365,0.200509,-0.379148,0.149784,-0.402802,0.142653,-0.403113,-0.210436,-0.403113,-0.263030,-0.383971,-0.291014,-0.335500,-0.292257,-0.321292,-0.292257,0.321292,-0.273115,0.373886,-0.224644,0.401870,-0.210436,0.403113,0.142653,0.403113,
0.195247,0.383971,0.195247,0.383971,$1*%
%AMFreePoly2*
4,1,19,0.167372,0.273032,0.179383,0.262774,0.262774,0.179383,0.291018,0.123952,0.292257,0.108205,0.292257,-0.191596,0.273032,-0.250763,0.222702,-0.287330,0.191596,-0.292257,-0.191596,-0.292257,-0.250763,-0.273032,-0.287330,-0.222702,-0.292257,-0.191596,-0.292257,0.191596,-0.273032,0.250763,-0.222702,0.287330,-0.191596,0.292257,0.108205,0.292257,0.167372,0.273032,0.167372,0.273032,
$1*%
%AMFreePoly3*
4,1,21,0.373886,0.273115,0.401870,0.224644,0.403113,0.210436,0.403113,-0.142653,0.383971,-0.195247,0.379148,-0.200509,0.311365,-0.268292,0.260640,-0.291946,0.253509,-0.292257,-0.253509,-0.292257,-0.306103,-0.273115,-0.311365,-0.268292,-0.379148,-0.200509,-0.402802,-0.149784,-0.403113,-0.142653,-0.403113,0.210436,-0.383971,0.263030,-0.335500,0.291014,-0.321292,0.292257,0.321292,0.292257,
0.373886,0.273115,0.373886,0.273115,$1*%
%AMFreePoly4*
4,1,21,0.306103,0.273115,0.311365,0.268292,0.379148,0.200509,0.402802,0.149784,0.403113,0.142653,0.403113,-0.210436,0.383971,-0.263030,0.335500,-0.291014,0.321292,-0.292257,-0.321292,-0.292257,-0.373886,-0.273115,-0.401870,-0.224644,-0.403113,-0.210436,-0.403113,0.142653,-0.383971,0.195247,-0.379148,0.200509,-0.311365,0.268292,-0.260640,0.291946,-0.253509,0.292257,0.253509,0.292257,
0.306103,0.273115,0.306103,0.273115,$1*%
%AMFreePoly5*
4,1,19,0.250763,0.273032,0.287330,0.222702,0.292257,0.191596,0.292257,-0.191596,0.273032,-0.250763,0.222702,-0.287330,0.191596,-0.292257,-0.108205,-0.292257,-0.167372,-0.273032,-0.179383,-0.262774,-0.262774,-0.179383,-0.291018,-0.123952,-0.292257,-0.108205,-0.292257,0.191596,-0.273032,0.250763,-0.222702,0.287330,-0.191596,0.292257,0.191596,0.292257,0.250763,0.273032,0.250763,0.273032,
$1*%
%AMFreePoly6*
4,1,21,0.263030,0.383971,0.291014,0.335500,0.292257,0.321292,0.292257,-0.321292,0.273115,-0.373886,0.224644,-0.401870,0.210436,-0.403113,-0.142653,-0.403113,-0.195247,-0.383971,-0.200509,-0.379148,-0.268292,-0.311365,-0.291946,-0.260640,-0.292257,-0.253509,-0.292257,0.253509,-0.273115,0.306103,-0.268292,0.311365,-0.200509,0.379148,-0.149784,0.402802,-0.142653,0.403113,0.210436,0.403113,
0.263030,0.383971,0.263030,0.383971,$1*%
%AMFreePoly7*
4,1,19,0.250763,0.273032,0.287330,0.222702,0.292257,0.191596,0.292257,-0.191596,0.273032,-0.250763,0.222702,-0.287330,0.191596,-0.292257,-0.191596,-0.292257,-0.250763,-0.273032,-0.287330,-0.222702,-0.292257,-0.191596,-0.292257,0.108205,-0.273032,0.167372,-0.262774,0.179383,-0.179383,0.262774,-0.123952,0.291018,-0.108205,0.292257,0.191596,0.292257,0.250763,0.273032,0.250763,0.273032,
$1*%
G04 Aperture macros list end*
%ADD10C,0.001000*%
%ADD11RoundRect,0.200000X-0.380000X0.200000X-0.380000X-0.200000X0.380000X-0.200000X0.380000X0.200000X0*%
%ADD12RoundRect,0.200000X0.200000X0.380000X-0.200000X0.380000X-0.200000X-0.380000X0.200000X-0.380000X0*%
%ADD13RoundRect,0.200000X0.520000X-0.260000X0.520000X0.260000X-0.520000X0.260000X-0.520000X-0.260000X0*%
%ADD14R,0.176800X0.633600*%
%ADD15RoundRect,0.200000X0.260000X0.880000X-0.260000X0.880000X-0.260000X-0.880000X0.260000X-0.880000X0*%
%ADD16R,2.640000X2.240000*%
%ADD17RoundRect,0.200000X-0.210000X-0.360000X0.210000X-0.360000X0.210000X0.360000X-0.210000X0.360000X0*%
%ADD18RoundRect,0.200000X0.360000X-0.210000X0.360000X0.210000X-0.360000X0.210000X-0.360000X-0.210000X0*%
%ADD19RoundRect,0.200000X-0.880000X0.260000X-0.880000X-0.260000X0.880000X-0.260000X0.880000X0.260000X0*%
%ADD20RoundRect,0.200000X-0.250000X-0.860000X0.250000X-0.860000X0.250000X0.860000X-0.250000X0.860000X0*%
%ADD21RoundRect,0.090000X-0.090000X0.150000X-0.090000X-0.150000X0.090000X-0.150000X0.090000X0.150000X0*%
%ADD22RoundRect,0.200000X-0.360000X0.210000X-0.360000X-0.210000X0.360000X-0.210000X0.360000X0.210000X0*%
%ADD23RoundRect,0.200000X-0.290000X-0.860000X0.290000X-0.860000X0.290000X0.860000X-0.290000X0.860000X0*%
%ADD24RoundRect,0.200000X0.210000X0.360000X-0.210000X0.360000X-0.210000X-0.360000X0.210000X-0.360000X0*%
%ADD25RoundRect,0.200000X0.380000X-0.200000X0.380000X0.200000X-0.380000X0.200000X-0.380000X-0.200000X0*%
%ADD26R,1.570000X1.235000*%
%ADD27R,1.570000X1.585000*%
%ADD28R,0.490000X0.490000*%
%ADD29RoundRect,0.200000X0.300000X0.500000X-0.300000X0.500000X-0.300000X-0.500000X0.300000X-0.500000X0*%
%ADD30RoundRect,0.200000X-0.720000X0.800000X-0.720000X-0.800000X0.720000X-0.800000X0.720000X0.800000X0*%
%ADD31R,0.320000X0.520000*%
%ADD32RoundRect,0.200000X-0.260000X-0.880000X0.260000X-0.880000X0.260000X0.880000X-0.260000X0.880000X0*%
%ADD33RoundRect,0.120000X-0.120000X0.410000X-0.120000X-0.410000X0.120000X-0.410000X0.120000X0.410000X0*%
%ADD34R,0.520000X0.320000*%
%ADD35RoundRect,0.200000X0.880000X-0.260000X0.880000X0.260000X-0.880000X0.260000X-0.880000X-0.260000X0*%
%ADD36R,1.235000X1.570000*%
%ADD37R,1.585000X1.570000*%
%ADD38RoundRect,0.200000X-0.200000X-0.380000X0.200000X-0.380000X0.200000X0.380000X-0.200000X0.380000X0*%
%ADD39RoundRect,0.200000X0.360000X0.640000X-0.360000X0.640000X-0.360000X-0.640000X0.360000X-0.640000X0*%
%ADD40R,0.800000X0.720000*%
%ADD41RoundRect,0.200000X-0.800000X1.200000X-0.800000X-1.200000X0.800000X-1.200000X0.800000X1.200000X0*%
%ADD42R,3.200000X1.200000*%
%ADD43RoundRect,0.200000X0.250000X0.500000X-0.250000X0.500000X-0.250000X-0.500000X0.250000X-0.500000X0*%
%ADD44RoundRect,0.060000X-0.530000X-0.060000X0.530000X-0.060000X0.530000X0.060000X-0.530000X0.060000X0*%
%ADD45RoundRect,0.060000X-0.060000X-0.530000X0.060000X-0.530000X0.060000X0.530000X-0.060000X0.530000X0*%
%ADD46RoundRect,0.040000X-0.080000X0.228000X-0.080000X-0.228000X0.080000X-0.228000X0.080000X0.228000X0*%
%ADD47R,2.208000X0.520000*%
%ADD48R,3.048000X3.396000*%
%ADD49RoundRect,0.200000X-0.520000X0.260000X-0.520000X-0.260000X0.520000X-0.260000X0.520000X0.260000X0*%
%ADD50RoundRect,0.200000X-0.630000X-0.820000X0.630000X-0.820000X0.630000X0.820000X-0.630000X0.820000X0*%
%ADD51R,1.600000X1.200000*%
%ADD52R,1.600000X3.040000*%
%ADD53FreePoly0,270.000000*%
%ADD54FreePoly1,270.000000*%
%ADD55FreePoly2,270.000000*%
%ADD56FreePoly3,270.000000*%
%ADD57RoundRect,0.201557X-0.201556X0.201556X-0.201556X-0.201556X0.201556X-0.201556X0.201556X0.201556X0*%
%ADD58FreePoly4,270.000000*%
%ADD59FreePoly5,270.000000*%
%ADD60FreePoly6,270.000000*%
%ADD61FreePoly7,270.000000*%
%ADD62RoundRect,0.050000X-0.050000X0.300000X-0.050000X-0.300000X0.050000X-0.300000X0.050000X0.300000X0*%
%ADD63RoundRect,0.050000X-0.300000X0.050000X-0.300000X-0.050000X0.300000X-0.050000X0.300000X0.050000X0*%
%ADD64RoundRect,0.120000X0.120000X-0.470000X0.120000X0.470000X-0.120000X0.470000X-0.120000X-0.470000X0*%
%ADD65R,0.480000X0.920000*%
%ADD66R,0.240000X0.920000*%
%ADD67O,0.800000X1.680000*%
%ADD68O,0.800000X1.440000*%
%ADD69RoundRect,0.200000X0.260000X0.520000X-0.260000X0.520000X-0.260000X-0.520000X0.260000X-0.520000X0*%
G04 APERTURE END LIST*
D10*
X84080000Y-116910000D02*
X86100000Y-116910000D01*
X86100000Y-115710000D01*
X84080000Y-115710000D01*
X84080000Y-116910000D01*
G36*
X84080000Y-116910000D02*
G01*
X86100000Y-116910000D01*
X86100000Y-115710000D01*
X84080000Y-115710000D01*
X84080000Y-116910000D01*
G37*
X84080000Y-119280000D02*
X86100000Y-119280000D01*
X86100000Y-118080000D01*
X84080000Y-118080000D01*
X84080000Y-119280000D01*
G36*
X84080000Y-119280000D02*
G01*
X86100000Y-119280000D01*
X86100000Y-118080000D01*
X84080000Y-118080000D01*
X84080000Y-119280000D01*
G37*
X86925000Y-119300000D02*
X88955000Y-119300000D01*
X88955000Y-118100000D01*
X86925000Y-118100000D01*
X86925000Y-119300000D01*
G36*
X86925000Y-119300000D02*
G01*
X88955000Y-119300000D01*
X88955000Y-118100000D01*
X86925000Y-118100000D01*
X86925000Y-119300000D01*
G37*
X86930000Y-116910000D02*
X88960000Y-116910000D01*
X88960000Y-115710000D01*
X86930000Y-115710000D01*
X86930000Y-116910000D01*
G36*
X86930000Y-116910000D02*
G01*
X88960000Y-116910000D01*
X88960000Y-115710000D01*
X86930000Y-115710000D01*
X86930000Y-116910000D01*
G37*
X90080000Y-116900000D02*
X91200000Y-116900000D01*
X91200000Y-115700000D01*
X90080000Y-115700000D01*
X90080000Y-116900000D01*
G36*
X90080000Y-116900000D02*
G01*
X91200000Y-116900000D01*
X91200000Y-115700000D01*
X90080000Y-115700000D01*
X90080000Y-116900000D01*
G37*
X90090000Y-119310000D02*
X91200000Y-119310000D01*
X91200000Y-118110000D01*
X90090000Y-118110000D01*
X90090000Y-119310000D01*
G36*
X90090000Y-119310000D02*
G01*
X91200000Y-119310000D01*
X91200000Y-118110000D01*
X90090000Y-118110000D01*
X90090000Y-119310000D01*
G37*
X84080000Y-131910000D02*
X86100000Y-131910000D01*
X86100000Y-130710000D01*
X84080000Y-130710000D01*
X84080000Y-131910000D01*
G36*
X84080000Y-131910000D02*
G01*
X86100000Y-131910000D01*
X86100000Y-130710000D01*
X84080000Y-130710000D01*
X84080000Y-131910000D01*
G37*
X84080000Y-134280000D02*
X86100000Y-134280000D01*
X86100000Y-133080000D01*
X84080000Y-133080000D01*
X84080000Y-134280000D01*
G36*
X84080000Y-134280000D02*
G01*
X86100000Y-134280000D01*
X86100000Y-133080000D01*
X84080000Y-133080000D01*
X84080000Y-134280000D01*
G37*
X86925000Y-134300000D02*
X88955000Y-134300000D01*
X88955000Y-133100000D01*
X86925000Y-133100000D01*
X86925000Y-134300000D01*
G36*
X86925000Y-134300000D02*
G01*
X88955000Y-134300000D01*
X88955000Y-133100000D01*
X86925000Y-133100000D01*
X86925000Y-134300000D01*
G37*
X86930000Y-131910000D02*
X88960000Y-131910000D01*
X88960000Y-130710000D01*
X86930000Y-130710000D01*
X86930000Y-131910000D01*
G36*
X86930000Y-131910000D02*
G01*
X88960000Y-131910000D01*
X88960000Y-130710000D01*
X86930000Y-130710000D01*
X86930000Y-131910000D01*
G37*
X90080000Y-131900000D02*
X91200000Y-131900000D01*
X91200000Y-130700000D01*
X90080000Y-130700000D01*
X90080000Y-131900000D01*
G36*
X90080000Y-131900000D02*
G01*
X91200000Y-131900000D01*
X91200000Y-130700000D01*
X90080000Y-130700000D01*
X90080000Y-131900000D01*
G37*
X90090000Y-134310000D02*
X91200000Y-134310000D01*
X91200000Y-133110000D01*
X90090000Y-133110000D01*
X90090000Y-134310000D01*
G36*
X90090000Y-134310000D02*
G01*
X91200000Y-134310000D01*
X91200000Y-133110000D01*
X90090000Y-133110000D01*
X90090000Y-134310000D01*
G37*
X99910000Y-115690000D02*
X98800000Y-115690000D01*
X98800000Y-116890000D01*
X99910000Y-116890000D01*
X99910000Y-115690000D01*
G36*
X99910000Y-115690000D02*
G01*
X98800000Y-115690000D01*
X98800000Y-116890000D01*
X99910000Y-116890000D01*
X99910000Y-115690000D01*
G37*
X99920000Y-118100000D02*
X98800000Y-118100000D01*
X98800000Y-119300000D01*
X99920000Y-119300000D01*
X99920000Y-118100000D01*
G36*
X99920000Y-118100000D02*
G01*
X98800000Y-118100000D01*
X98800000Y-119300000D01*
X99920000Y-119300000D01*
X99920000Y-118100000D01*
G37*
X103070000Y-118090000D02*
X101040000Y-118090000D01*
X101040000Y-119290000D01*
X103070000Y-119290000D01*
X103070000Y-118090000D01*
G36*
X103070000Y-118090000D02*
G01*
X101040000Y-118090000D01*
X101040000Y-119290000D01*
X103070000Y-119290000D01*
X103070000Y-118090000D01*
G37*
X103075000Y-115700000D02*
X101045000Y-115700000D01*
X101045000Y-116900000D01*
X103075000Y-116900000D01*
X103075000Y-115700000D01*
G36*
X103075000Y-115700000D02*
G01*
X101045000Y-115700000D01*
X101045000Y-116900000D01*
X103075000Y-116900000D01*
X103075000Y-115700000D01*
G37*
X105920000Y-115720000D02*
X103900000Y-115720000D01*
X103900000Y-116920000D01*
X105920000Y-116920000D01*
X105920000Y-115720000D01*
G36*
X105920000Y-115720000D02*
G01*
X103900000Y-115720000D01*
X103900000Y-116920000D01*
X105920000Y-116920000D01*
X105920000Y-115720000D01*
G37*
X105920000Y-118090000D02*
X103900000Y-118090000D01*
X103900000Y-119290000D01*
X105920000Y-119290000D01*
X105920000Y-118090000D01*
G36*
X105920000Y-118090000D02*
G01*
X103900000Y-118090000D01*
X103900000Y-119290000D01*
X105920000Y-119290000D01*
X105920000Y-118090000D01*
G37*
X99910000Y-130690000D02*
X98800000Y-130690000D01*
X98800000Y-131890000D01*
X99910000Y-131890000D01*
X99910000Y-130690000D01*
G36*
X99910000Y-130690000D02*
G01*
X98800000Y-130690000D01*
X98800000Y-131890000D01*
X99910000Y-131890000D01*
X99910000Y-130690000D01*
G37*
X99920000Y-133100000D02*
X98800000Y-133100000D01*
X98800000Y-134300000D01*
X99920000Y-134300000D01*
X99920000Y-133100000D01*
G36*
X99920000Y-133100000D02*
G01*
X98800000Y-133100000D01*
X98800000Y-134300000D01*
X99920000Y-134300000D01*
X99920000Y-133100000D01*
G37*
X103070000Y-133090000D02*
X101040000Y-133090000D01*
X101040000Y-134290000D01*
X103070000Y-134290000D01*
X103070000Y-133090000D01*
G36*
X103070000Y-133090000D02*
G01*
X101040000Y-133090000D01*
X101040000Y-134290000D01*
X103070000Y-134290000D01*
X103070000Y-133090000D01*
G37*
X103075000Y-130700000D02*
X101045000Y-130700000D01*
X101045000Y-131900000D01*
X103075000Y-131900000D01*
X103075000Y-130700000D01*
G36*
X103075000Y-130700000D02*
G01*
X101045000Y-130700000D01*
X101045000Y-131900000D01*
X103075000Y-131900000D01*
X103075000Y-130700000D01*
G37*
X105920000Y-130720000D02*
X103900000Y-130720000D01*
X103900000Y-131920000D01*
X105920000Y-131920000D01*
X105920000Y-130720000D01*
G36*
X105920000Y-130720000D02*
G01*
X103900000Y-130720000D01*
X103900000Y-131920000D01*
X105920000Y-131920000D01*
X105920000Y-130720000D01*
G37*
X105920000Y-133090000D02*
X103900000Y-133090000D01*
X103900000Y-134290000D01*
X105920000Y-134290000D01*
X105920000Y-133090000D01*
G36*
X105920000Y-133090000D02*
G01*
X103900000Y-133090000D01*
X103900000Y-134290000D01*
X105920000Y-134290000D01*
X105920000Y-133090000D01*
G37*
D11*
X115697000Y-58044000D03*
X115697000Y-59944000D03*
D12*
X133626315Y-69976089D03*
X131726315Y-69976089D03*
D13*
X54150000Y-68565000D03*
X54150000Y-65615000D03*
D14*
X91264000Y-114584000D03*
X90762000Y-114584000D03*
X90260000Y-114584000D03*
X89758000Y-114584000D03*
X89256000Y-114584000D03*
X88754000Y-114584000D03*
X88252000Y-114584000D03*
X87750000Y-114584000D03*
X87248000Y-114584000D03*
X86746000Y-114584000D03*
X86244000Y-114584000D03*
X85742000Y-114584000D03*
X85240000Y-114584000D03*
X84738000Y-114584000D03*
X84236000Y-114584000D03*
X84236000Y-120416000D03*
X84751000Y-120416000D03*
X85251000Y-120416000D03*
X85751000Y-120416000D03*
X86251000Y-120416000D03*
X86751000Y-120416000D03*
X87248000Y-120416000D03*
X87751000Y-120416000D03*
X88252000Y-120416000D03*
X88754000Y-120416000D03*
X89256000Y-120416000D03*
X89758000Y-120416000D03*
X90251000Y-120416000D03*
X90762000Y-120416000D03*
X91251000Y-120416000D03*
D15*
X105475000Y-78100000D03*
X102525000Y-78100000D03*
D16*
X90180000Y-65440000D03*
X97790000Y-65440000D03*
D17*
X88257500Y-52590000D03*
X90082500Y-52590000D03*
D18*
X54450000Y-57290000D03*
X54450000Y-55465000D03*
D17*
X54937500Y-53377500D03*
X56762500Y-53377500D03*
D19*
X73200000Y-72900000D03*
X73200000Y-75850000D03*
D20*
X52850000Y-49190000D03*
X55775000Y-49190000D03*
D12*
X137126315Y-63556089D03*
X135226315Y-63556089D03*
D11*
X79770000Y-56955000D03*
X79770000Y-58855000D03*
D18*
X114400000Y-42812500D03*
X114400000Y-40987500D03*
D21*
X83870000Y-56755000D03*
X83870000Y-58855000D03*
D22*
X113726000Y-45142500D03*
X113726000Y-46967500D03*
D23*
X100875000Y-65145000D03*
X105500000Y-65145000D03*
D11*
X85017500Y-48835000D03*
X85017500Y-50735000D03*
D24*
X86692000Y-52570000D03*
X84867000Y-52570000D03*
D25*
X111567000Y-46950000D03*
X111567000Y-45050000D03*
D24*
X112512500Y-42800000D03*
X110687500Y-42800000D03*
D26*
X83935000Y-75077500D03*
X86125000Y-75077500D03*
D27*
X83935000Y-73167500D03*
X86125000Y-73167500D03*
D28*
X83125000Y-77080000D03*
X84395000Y-77080000D03*
X85665000Y-77080000D03*
X86935000Y-77080000D03*
X83125000Y-71480000D03*
X84395000Y-71480000D03*
X85665000Y-71480000D03*
X86935000Y-71480000D03*
D29*
X97900000Y-58293000D03*
X95100000Y-58293000D03*
D11*
X120965000Y-54503000D03*
X120965000Y-56403000D03*
D30*
X69960000Y-56020000D03*
X69960000Y-60320000D03*
D31*
X124775200Y-67726600D03*
X125425200Y-67726600D03*
X126075200Y-67726600D03*
X126075200Y-65826600D03*
X125425200Y-65826600D03*
X124775200Y-65826600D03*
D32*
X134350000Y-49400000D03*
X137300000Y-49400000D03*
D12*
X122826315Y-64176089D03*
X120926315Y-64176089D03*
D33*
X137176315Y-65576089D03*
X136226315Y-65576089D03*
X135276315Y-65576089D03*
X135276315Y-67851089D03*
X137176315Y-67851089D03*
D18*
X124300000Y-50112500D03*
X124300000Y-48287500D03*
D25*
X75670000Y-57140000D03*
X75670000Y-55240000D03*
D18*
X106261500Y-58949500D03*
X106261500Y-57124500D03*
D13*
X107700000Y-65175000D03*
X107700000Y-62225000D03*
D18*
X128200000Y-50112500D03*
X128200000Y-48287500D03*
D17*
X86870000Y-48605000D03*
X88695000Y-48605000D03*
D18*
X130100000Y-50112500D03*
X130100000Y-48287500D03*
D34*
X117312400Y-54899800D03*
X117312400Y-55549800D03*
X117312400Y-56199800D03*
X119212400Y-56199800D03*
X119212400Y-55549800D03*
X119212400Y-54899800D03*
D24*
X88695000Y-50605000D03*
X86870000Y-50605000D03*
D35*
X110500000Y-65175000D03*
X110500000Y-62225000D03*
D23*
X100887500Y-74825001D03*
X105512500Y-74825001D03*
D36*
X79536500Y-66295000D03*
X79536500Y-64105000D03*
D37*
X77626500Y-66295000D03*
X77626500Y-64105000D03*
D28*
X81539000Y-67105000D03*
X81539000Y-65835000D03*
X81539000Y-64565000D03*
X81539000Y-63295000D03*
X75939000Y-67105000D03*
X75939000Y-65835000D03*
X75939000Y-64565000D03*
X75939000Y-63295000D03*
D11*
X60050000Y-55540000D03*
X60050000Y-57440000D03*
D38*
X124426315Y-69376089D03*
X126326315Y-69376089D03*
D24*
X113812500Y-48700000D03*
X111987500Y-48700000D03*
D11*
X121031000Y-58044000D03*
X121031000Y-59944000D03*
D31*
X122493800Y-65826600D03*
X121843800Y-65826600D03*
X121193800Y-65826600D03*
X121193800Y-67726600D03*
X121843800Y-67726600D03*
X122493800Y-67726600D03*
D35*
X73250000Y-66975000D03*
X73250000Y-64025000D03*
D11*
X110363000Y-55652000D03*
X110363000Y-57552000D03*
D36*
X79497500Y-73295000D03*
X79497500Y-71105000D03*
D37*
X77587500Y-73295000D03*
X77587500Y-71105000D03*
D28*
X81500000Y-74105000D03*
X81500000Y-72835000D03*
X81500000Y-71565000D03*
X81500000Y-70295000D03*
X75900000Y-74105000D03*
X75900000Y-72835000D03*
X75900000Y-71565000D03*
X75900000Y-70295000D03*
D17*
X100015000Y-55878000D03*
X101840000Y-55878000D03*
D29*
X97899750Y-55199000D03*
X95099750Y-55199000D03*
D39*
X58250000Y-62590000D03*
X53850000Y-62590000D03*
D18*
X104300000Y-59175000D03*
X104300000Y-57350000D03*
D40*
X97538000Y-50386000D03*
X99688000Y-50386000D03*
X99688000Y-48836000D03*
X97538000Y-48836000D03*
D14*
X91264000Y-129584000D03*
X90762000Y-129584000D03*
X90260000Y-129584000D03*
X89758000Y-129584000D03*
X89256000Y-129584000D03*
X88754000Y-129584000D03*
X88252000Y-129584000D03*
X87750000Y-129584000D03*
X87248000Y-129584000D03*
X86746000Y-129584000D03*
X86244000Y-129584000D03*
X85742000Y-129584000D03*
X85240000Y-129584000D03*
X84738000Y-129584000D03*
X84236000Y-129584000D03*
X84236000Y-135416000D03*
X84751000Y-135416000D03*
X85251000Y-135416000D03*
X85751000Y-135416000D03*
X86251000Y-135416000D03*
X86751000Y-135416000D03*
X87248000Y-135416000D03*
X87751000Y-135416000D03*
X88252000Y-135416000D03*
X88754000Y-135416000D03*
X89256000Y-135416000D03*
X89758000Y-135416000D03*
X90251000Y-135416000D03*
X90762000Y-135416000D03*
X91251000Y-135416000D03*
D25*
X82870000Y-48240000D03*
X82870000Y-46340000D03*
D12*
X122826315Y-69376089D03*
X120926315Y-69376089D03*
D18*
X108166500Y-58949500D03*
X108166500Y-57124500D03*
D15*
X105475000Y-68400000D03*
X102525000Y-68400000D03*
D22*
X73780000Y-49945000D03*
X73780000Y-51770000D03*
D18*
X126200000Y-50112500D03*
X126200000Y-48287500D03*
D41*
X63710000Y-71150000D03*
X63710000Y-77650000D03*
D33*
X58200000Y-55340000D03*
X57250000Y-55340000D03*
X56300000Y-55340000D03*
X56300000Y-57615000D03*
X57250000Y-57615000D03*
X58200000Y-57615000D03*
D14*
X98736000Y-120416000D03*
X99238000Y-120416000D03*
X99740000Y-120416000D03*
X100242000Y-120416000D03*
X100744000Y-120416000D03*
X101246000Y-120416000D03*
X101748000Y-120416000D03*
X102250000Y-120416000D03*
X102752000Y-120416000D03*
X103254000Y-120416000D03*
X103756000Y-120416000D03*
X104258000Y-120416000D03*
X104760000Y-120416000D03*
X105262000Y-120416000D03*
X105764000Y-120416000D03*
X105764000Y-114584000D03*
X105249000Y-114584000D03*
X104749000Y-114584000D03*
X104249000Y-114584000D03*
X103749000Y-114584000D03*
X103249000Y-114584000D03*
X102752000Y-114584000D03*
X102249000Y-114584000D03*
X101748000Y-114584000D03*
X101246000Y-114584000D03*
X100744000Y-114584000D03*
X100242000Y-114584000D03*
X99749000Y-114584000D03*
X99238000Y-114584000D03*
X98749000Y-114584000D03*
D12*
X137126315Y-69856089D03*
X135226315Y-69856089D03*
D42*
X58250000Y-65290000D03*
X58250000Y-68890000D03*
D17*
X91589250Y-55245000D03*
X93414250Y-55245000D03*
D24*
X130058815Y-69876089D03*
X128233815Y-69876089D03*
D38*
X124426315Y-64176089D03*
X126326315Y-64176089D03*
D17*
X74147500Y-53520000D03*
X75972500Y-53520000D03*
D25*
X80870000Y-48230000D03*
X80870000Y-46330000D03*
D33*
X133676315Y-65696089D03*
X132726315Y-65696089D03*
X131776315Y-65696089D03*
X131776315Y-67971089D03*
X133676315Y-67971089D03*
D12*
X101880500Y-46300000D03*
X99980500Y-46300000D03*
D38*
X131726315Y-63576089D03*
X133626315Y-63576089D03*
D14*
X98736000Y-135416000D03*
X99238000Y-135416000D03*
X99740000Y-135416000D03*
X100242000Y-135416000D03*
X100744000Y-135416000D03*
X101246000Y-135416000D03*
X101748000Y-135416000D03*
X102250000Y-135416000D03*
X102752000Y-135416000D03*
X103254000Y-135416000D03*
X103756000Y-135416000D03*
X104258000Y-135416000D03*
X104760000Y-135416000D03*
X105262000Y-135416000D03*
X105764000Y-135416000D03*
X105764000Y-129584000D03*
X105249000Y-129584000D03*
X104749000Y-129584000D03*
X104249000Y-129584000D03*
X103749000Y-129584000D03*
X103249000Y-129584000D03*
X102752000Y-129584000D03*
X102249000Y-129584000D03*
X101748000Y-129584000D03*
X101246000Y-129584000D03*
X100744000Y-129584000D03*
X100242000Y-129584000D03*
X99749000Y-129584000D03*
X99238000Y-129584000D03*
X98749000Y-129584000D03*
D18*
X75770000Y-51792500D03*
X75770000Y-49967500D03*
D12*
X99650000Y-52222400D03*
X97750000Y-52222400D03*
D43*
X88672500Y-58580000D03*
X85747500Y-58580000D03*
D25*
X78870000Y-46405000D03*
X78870000Y-44505000D03*
D24*
X75470000Y-48105000D03*
X73645000Y-48105000D03*
D44*
X101718000Y-48302000D03*
X101718000Y-48802000D03*
X101718000Y-49302000D03*
X101718000Y-49802000D03*
X101718000Y-50302000D03*
X101718000Y-50802000D03*
X101718000Y-51302000D03*
X101718000Y-51802000D03*
X101718000Y-52302000D03*
X101718000Y-52802000D03*
X101718000Y-53302000D03*
X101718000Y-53802000D03*
D45*
X103130500Y-55214500D03*
X103630500Y-55214500D03*
X104130500Y-55214500D03*
X104630500Y-55214500D03*
X105130500Y-55214500D03*
X105630500Y-55214500D03*
X106130500Y-55214500D03*
X106630500Y-55214500D03*
X107130500Y-55214500D03*
X107630500Y-55214500D03*
X108130500Y-55214500D03*
X108630500Y-55214500D03*
D44*
X110043000Y-53802000D03*
X110043000Y-53302000D03*
X110043000Y-52802000D03*
X110043000Y-52302000D03*
X110043000Y-51802000D03*
X110043000Y-51302000D03*
X110043000Y-50802000D03*
X110043000Y-50302000D03*
X110043000Y-49802000D03*
X110043000Y-49302000D03*
X110043000Y-48802000D03*
X110043000Y-48302000D03*
D45*
X108630500Y-46889500D03*
X108130500Y-46889500D03*
X107630500Y-46889500D03*
X107130500Y-46889500D03*
X106630500Y-46889500D03*
X106130500Y-46889500D03*
X105630500Y-46889500D03*
X105130500Y-46889500D03*
X104630500Y-46889500D03*
X104130500Y-46889500D03*
X103630500Y-46889500D03*
X103130500Y-46889500D03*
D46*
X109850000Y-124260000D03*
X109350000Y-124260000D03*
X108850000Y-124260000D03*
X108850000Y-125740000D03*
X109350000Y-125740000D03*
X109850000Y-125740000D03*
D47*
X120191000Y-49484000D03*
X116151000Y-49484000D03*
X120191000Y-48214000D03*
X116151000Y-48214000D03*
X120191000Y-46944000D03*
X116151000Y-46944000D03*
X120191000Y-45674000D03*
X116151000Y-45674000D03*
X120191000Y-44404000D03*
X116151000Y-44404000D03*
D15*
X105475000Y-71600000D03*
X102525000Y-71600000D03*
D48*
X64900000Y-64187500D03*
X64900000Y-57812500D03*
D49*
X96500000Y-41238000D03*
X96500000Y-44188000D03*
D17*
X91589500Y-58339000D03*
X93414500Y-58339000D03*
X96587500Y-46300000D03*
X98412500Y-46300000D03*
D50*
X107787500Y-78100000D03*
X114012500Y-78100000D03*
D16*
X90180000Y-74838000D03*
X97790000Y-74838000D03*
D11*
X95565000Y-48788000D03*
X95565000Y-50688000D03*
D51*
X91522000Y-45902000D03*
X91522000Y-43602000D03*
D52*
X85222000Y-43602000D03*
D51*
X91522000Y-41302000D03*
D24*
X112512500Y-40900000D03*
X110687500Y-40900000D03*
D53*
X82070000Y-51142500D03*
D54*
X81207500Y-51142500D03*
X80207500Y-51142500D03*
D55*
X79345000Y-51142500D03*
D56*
X82070000Y-52005000D03*
D57*
X81207500Y-52005000D03*
X80207500Y-52005000D03*
D58*
X79345000Y-52005000D03*
D56*
X82070000Y-53005000D03*
D57*
X81207500Y-53005000D03*
X80207500Y-53005000D03*
D58*
X79345000Y-53005000D03*
D59*
X82070000Y-53867500D03*
D60*
X81207500Y-53867500D03*
X80207500Y-53867500D03*
D61*
X79345000Y-53867500D03*
D62*
X82457500Y-50067500D03*
X81957500Y-50067500D03*
X81457500Y-50067500D03*
X80957500Y-50067500D03*
X80457500Y-50067500D03*
X79957500Y-50067500D03*
X79457500Y-50067500D03*
X78957500Y-50067500D03*
D63*
X78270000Y-50755000D03*
X78270000Y-51255000D03*
X78270000Y-51755000D03*
X78270000Y-52255000D03*
X78270000Y-52755000D03*
X78270000Y-53255000D03*
X78270000Y-53755000D03*
X78270000Y-54255000D03*
D62*
X78957500Y-54942500D03*
X79457500Y-54942500D03*
X79957500Y-54942500D03*
X80457500Y-54942500D03*
X80957500Y-54942500D03*
X81457500Y-54942500D03*
X81957500Y-54942500D03*
X82457500Y-54942500D03*
D63*
X83145000Y-54255000D03*
X83145000Y-53755000D03*
X83145000Y-53255000D03*
X83145000Y-52755000D03*
X83145000Y-52255000D03*
X83145000Y-51755000D03*
X83145000Y-51255000D03*
X83145000Y-50755000D03*
D40*
X100500000Y-40250000D03*
X100500000Y-44350000D03*
X98900000Y-40250000D03*
X98900000Y-44350000D03*
D11*
X115631000Y-54503000D03*
X115631000Y-56403000D03*
D64*
X128196315Y-67703589D03*
X130096315Y-67703589D03*
X129146315Y-65828589D03*
D26*
X86190000Y-65190000D03*
X84000000Y-65190000D03*
D27*
X86190000Y-67100000D03*
X84000000Y-67100000D03*
D28*
X87000000Y-63187500D03*
X85730000Y-63187500D03*
X84460000Y-63187500D03*
X83190000Y-63187500D03*
X87000000Y-68787500D03*
X85730000Y-68787500D03*
X84460000Y-68787500D03*
X83190000Y-68787500D03*
D65*
X130400000Y-46380000D03*
X129600000Y-46380000D03*
D66*
X128450000Y-46380000D03*
X127450000Y-46380000D03*
X126950000Y-46380000D03*
X125950000Y-46380000D03*
D65*
X124800000Y-46380000D03*
X124000000Y-46380000D03*
X124000000Y-46380000D03*
X124800000Y-46380000D03*
D66*
X125450000Y-46380000D03*
X126450000Y-46380000D03*
X127950000Y-46380000D03*
X128950000Y-46380000D03*
D65*
X129600000Y-46380000D03*
X130400000Y-46380000D03*
D67*
X131520000Y-45805000D03*
D68*
X131520000Y-41625000D03*
D67*
X122880000Y-45805000D03*
D68*
X122880000Y-41625000D03*
D34*
X117363200Y-58328800D03*
X117363200Y-58978800D03*
X117363200Y-59628800D03*
X119263200Y-59628800D03*
X119263200Y-58978800D03*
X119263200Y-58328800D03*
D50*
X107787500Y-68500000D03*
X114012500Y-68500000D03*
D19*
X69900000Y-72875000D03*
X69900000Y-75825000D03*
D35*
X70000000Y-66975000D03*
X70000000Y-64025000D03*
D21*
X77770000Y-56855000D03*
X77770000Y-58955000D03*
D12*
X78970000Y-48155000D03*
X77070000Y-48155000D03*
D24*
X76970000Y-46205000D03*
X75145000Y-46205000D03*
D25*
X81870000Y-58855000D03*
X81870000Y-56955000D03*
D50*
X107787500Y-73300000D03*
X114012500Y-73300000D03*
D11*
X85970000Y-54755000D03*
X85970000Y-56655000D03*
D17*
X100737500Y-58900000D03*
X102562500Y-58900000D03*
X128233815Y-63576089D03*
X130058815Y-63576089D03*
D18*
X112413000Y-56028500D03*
X112413000Y-54203500D03*
D69*
X56825000Y-59890000D03*
X53875000Y-59890000D03*
D49*
X94087000Y-43397000D03*
X94087000Y-46347000D03*
D18*
X80970000Y-44805000D03*
X80970000Y-42980000D03*
M02*
