G04 #@! TF.GenerationSoftware,KiCad,Pcbnew,8.0.1-8.0.1-1~ubuntu22.04.1*
G04 #@! TF.CreationDate,2024-05-15T13:20:28+02:00*
G04 #@! TF.ProjectId,qaxe,71617865-2e6b-4696-9361-645f70636258,rev?*
G04 #@! TF.SameCoordinates,Original*
G04 #@! TF.FileFunction,Paste,Bot*
G04 #@! TF.FilePolarity,Positive*
%FSLAX46Y46*%
G04 Gerber Fmt 4.6, Leading zero omitted, Abs format (unit mm)*
G04 Created by KiCad (PCBNEW 8.0.1-8.0.1-1~ubuntu22.04.1) date 2024-05-15 13:20:28*
%MOMM*%
%LPD*%
G01*
G04 APERTURE LIST*
G04 Aperture macros list*
%AMRoundRect*
0 Rectangle with rounded corners*
0 $1 Rounding radius*
0 $2 $3 $4 $5 $6 $7 $8 $9 X,Y pos of 4 corners*
0 Add a 4 corners polygon primitive as box body*
4,1,4,$2,$3,$4,$5,$6,$7,$8,$9,$2,$3,0*
0 Add four circle primitives for the rounded corners*
1,1,$1+$1,$2,$3*
1,1,$1+$1,$4,$5*
1,1,$1+$1,$6,$7*
1,1,$1+$1,$8,$9*
0 Add four rect primitives between the rounded corners*
20,1,$1+$1,$2,$3,$4,$5,0*
20,1,$1+$1,$4,$5,$6,$7,0*
20,1,$1+$1,$6,$7,$8,$9,0*
20,1,$1+$1,$8,$9,$2,$3,0*%
G04 Aperture macros list end*
%ADD10RoundRect,0.200000X-0.360000X0.210000X-0.360000X-0.210000X0.360000X-0.210000X0.360000X0.210000X0*%
%ADD11RoundRect,0.200000X0.200000X0.380000X-0.200000X0.380000X-0.200000X-0.380000X0.200000X-0.380000X0*%
%ADD12RoundRect,0.200000X0.380000X-0.200000X0.380000X0.200000X-0.380000X0.200000X-0.380000X-0.200000X0*%
%ADD13RoundRect,0.200000X0.360000X-0.210000X0.360000X0.210000X-0.360000X0.210000X-0.360000X-0.210000X0*%
%ADD14RoundRect,0.200000X-0.380000X0.200000X-0.380000X-0.200000X0.380000X-0.200000X0.380000X0.200000X0*%
%ADD15RoundRect,0.200000X0.210000X0.360000X-0.210000X0.360000X-0.210000X-0.360000X0.210000X-0.360000X0*%
%ADD16RoundRect,0.200000X-0.210000X-0.360000X0.210000X-0.360000X0.210000X0.360000X-0.210000X0.360000X0*%
%ADD17RoundRect,0.200000X-0.200000X-0.380000X0.200000X-0.380000X0.200000X0.380000X-0.200000X0.380000X0*%
%ADD18R,0.800000X0.720000*%
%ADD19RoundRect,0.200000X0.880000X-0.260000X0.880000X0.260000X-0.880000X0.260000X-0.880000X-0.260000X0*%
%ADD20RoundRect,0.200000X-0.880000X0.260000X-0.880000X-0.260000X0.880000X-0.260000X0.880000X0.260000X0*%
%ADD21RoundRect,0.040000X0.080000X-0.228000X0.080000X0.228000X-0.080000X0.228000X-0.080000X-0.228000X0*%
G04 APERTURE END LIST*
D10*
X102235000Y-126087500D03*
X102235000Y-127912500D03*
X94945200Y-134698100D03*
X94945200Y-136523100D03*
X88011000Y-124102500D03*
X88011000Y-122277500D03*
D11*
X91760000Y-129310000D03*
X89860000Y-129310000D03*
X106650000Y-128100000D03*
X104750000Y-128100000D03*
D12*
X101000000Y-112650000D03*
X101000000Y-110750000D03*
X96500000Y-140250000D03*
X96500000Y-138350000D03*
D13*
X103020000Y-122372500D03*
X103020000Y-120547500D03*
D14*
X93300000Y-138350000D03*
X93300000Y-140250000D03*
D11*
X91650000Y-121325000D03*
X89750000Y-121325000D03*
D10*
X102800000Y-137987500D03*
X102800000Y-139812500D03*
D14*
X90043000Y-69281000D03*
X90043000Y-71181000D03*
X104900000Y-110750000D03*
X104900000Y-112650000D03*
D10*
X86910000Y-127637500D03*
X86910000Y-129462500D03*
D15*
X87925000Y-125850000D03*
X86100000Y-125850000D03*
D11*
X90000000Y-133270000D03*
X88100000Y-133270000D03*
D14*
X88875000Y-138000000D03*
X88875000Y-139900000D03*
D12*
X83100000Y-112575000D03*
X83100000Y-110675000D03*
D16*
X101987500Y-124100000D03*
X103812500Y-124100000D03*
D17*
X105450000Y-126100000D03*
X107350000Y-126100000D03*
X99920000Y-116670000D03*
X101820000Y-116670000D03*
X99950000Y-134600000D03*
X101850000Y-134600000D03*
X100000000Y-130600000D03*
X101900000Y-130600000D03*
X99920000Y-118670000D03*
X101820000Y-118670000D03*
D11*
X84450000Y-124100000D03*
X82550000Y-124100000D03*
D14*
X92964000Y-134650000D03*
X92964000Y-136550000D03*
D12*
X100850000Y-139875000D03*
X100850000Y-137975000D03*
X104750000Y-139850000D03*
X104750000Y-137950000D03*
X109100000Y-125300000D03*
X109100000Y-123400000D03*
D11*
X91700000Y-123325000D03*
X89800000Y-123325000D03*
D10*
X86875000Y-138037500D03*
X86875000Y-139862500D03*
D17*
X83300000Y-122100000D03*
X85200000Y-122100000D03*
D12*
X98875000Y-139875000D03*
X98875000Y-137975000D03*
D17*
X83290000Y-128160000D03*
X85190000Y-128160000D03*
D11*
X91750000Y-127325000D03*
X89850000Y-127325000D03*
D14*
X93300000Y-109800000D03*
X93300000Y-111700000D03*
D17*
X98310000Y-122610000D03*
X100210000Y-122610000D03*
D11*
X89950000Y-119300000D03*
X88050000Y-119300000D03*
X90000000Y-117300000D03*
X88100000Y-117300000D03*
D12*
X96901000Y-136545400D03*
X96901000Y-134645400D03*
D14*
X83000000Y-107175000D03*
X83000000Y-109075000D03*
D12*
X106900000Y-112650000D03*
X106900000Y-110750000D03*
D17*
X98310000Y-120630000D03*
X100210000Y-120630000D03*
D10*
X87100000Y-110775000D03*
X87100000Y-112600000D03*
D14*
X91100000Y-110575000D03*
X91100000Y-112475000D03*
D17*
X98310000Y-128610000D03*
X100210000Y-128610000D03*
D12*
X98990000Y-112650000D03*
X98990000Y-110750000D03*
D18*
X84975000Y-107425000D03*
X87125000Y-107425000D03*
X87125000Y-108975000D03*
X84975000Y-108975000D03*
D17*
X99920000Y-114670000D03*
X101820000Y-114670000D03*
X100000000Y-132600000D03*
X101900000Y-132600000D03*
D11*
X106650000Y-122100000D03*
X104750000Y-122100000D03*
D15*
X86237500Y-114650000D03*
X84412500Y-114650000D03*
D19*
X94900000Y-129775000D03*
X94900000Y-126825000D03*
D13*
X111900000Y-72162500D03*
X111900000Y-70337500D03*
X102930000Y-112612500D03*
X102930000Y-110787500D03*
D12*
X84875000Y-139900000D03*
X84875000Y-138000000D03*
D14*
X82875000Y-138000000D03*
X82875000Y-139900000D03*
D11*
X91750000Y-125325000D03*
X89850000Y-125325000D03*
D13*
X109900000Y-72162500D03*
X109900000Y-70337500D03*
D11*
X90000000Y-131270000D03*
X88100000Y-131270000D03*
D20*
X94900000Y-120525000D03*
X94900000Y-123475000D03*
D21*
X88500000Y-70844000D03*
X88000000Y-70844000D03*
X87500000Y-70844000D03*
X87500000Y-69364000D03*
X88000000Y-69364000D03*
X88500000Y-69364000D03*
D11*
X90000000Y-135270000D03*
X88100000Y-135270000D03*
X89950000Y-115300000D03*
X88050000Y-115300000D03*
D14*
X106725000Y-137950000D03*
X106725000Y-139850000D03*
X89100000Y-110575000D03*
X89100000Y-112475000D03*
X90875000Y-138000000D03*
X90875000Y-139900000D03*
D17*
X98310000Y-126610000D03*
X100210000Y-126610000D03*
D12*
X97000000Y-115200000D03*
X97000000Y-113300000D03*
D14*
X85100000Y-110675000D03*
X85100000Y-112575000D03*
D17*
X105450000Y-124100000D03*
X107350000Y-124100000D03*
D14*
X93100000Y-113300000D03*
X93100000Y-115200000D03*
D12*
X96700000Y-111700000D03*
X96700000Y-109800000D03*
D17*
X98260000Y-124610000D03*
X100160000Y-124610000D03*
D11*
X84450000Y-126100000D03*
X82550000Y-126100000D03*
M02*
