M48
; DRILL file {KiCad 8.0.1-8.0.1-1~ubuntu22.04.1} date 2024-05-15T13:20:31+0200
; FORMAT={-:-/ absolute / metric / decimal}
; #@! TF.CreationDate,2024-05-15T13:20:31+02:00
; #@! TF.GenerationSoftware,Kicad,Pcbnew,8.0.1-8.0.1-1~ubuntu22.04.1
; #@! TF.FileFunction,Plated,1,4,PTH
FMAT,2
METRIC
; #@! TA.AperFunction,Plated,PTH,ComponentDrill
T1C0.300
; #@! TA.AperFunction,Plated,PTH,ViaDrill
T2C0.400
; #@! TA.AperFunction,Plated,PTH,ComponentDrill
T3C0.500
; #@! TA.AperFunction,Plated,PTH,ComponentDrill
T4C0.600
; #@! TA.AperFunction,Plated,PTH,ComponentDrill
T5C0.650
; #@! TA.AperFunction,Plated,PTH,ComponentDrill
T6C1.000
; #@! TA.AperFunction,Plated,PTH,ComponentDrill
T7C1.020
; #@! TA.AperFunction,Plated,PTH,ComponentDrill
T8C1.600
; #@! TA.AperFunction,Plated,PTH,ComponentDrill
T9C3.200
%
G90
G05
T1
X79.707Y-51.505
X79.707Y-52.505
X79.707Y-53.505
X80.707Y-51.505
X80.707Y-52.505
X80.707Y-53.505
X81.707Y-51.505
X81.707Y-52.505
X81.707Y-53.505
T2
X53.75Y-58.19
X53.875Y-61.09
X54.15Y-64.29
X54.25Y-69.59
X56.85Y-61.19
X57.25Y-54.19
X62.9Y-66.7
X65.75Y-77.125
X65.75Y-78.125
X66.75Y-77.125
X66.75Y-78.125
X67.4Y-66.7
X67.75Y-77.125
X67.75Y-78.125
X68.5Y-62.0
X68.5Y-63.0
X68.75Y-77.125
X68.75Y-78.125
X69.5Y-62.0
X69.5Y-63.0
X69.535Y-57.865
X69.75Y-77.125
X69.75Y-78.125
X70.5Y-62.0
X70.5Y-63.0
X70.75Y-77.125
X70.75Y-78.125
X71.5Y-62.0
X71.5Y-63.0
X71.75Y-77.125
X71.75Y-78.125
X72.5Y-48.1
X72.5Y-62.0
X72.5Y-63.0
X72.75Y-77.125
X72.75Y-78.125
X73.352Y-47.217
X73.5Y-62.0
X73.5Y-63.0
X73.75Y-77.125
X73.75Y-78.125
X73.866Y-52.701
X74.094Y-46.474
X74.5Y-62.0
X74.5Y-63.0
X74.75Y-77.125
X74.75Y-78.125
X74.83Y-49.98
X77.175Y-50.35
X77.175Y-51.375
X77.242Y-54.469
X77.286Y-53.402
X78.47Y-55.405
X78.9Y-43.9
X79.97Y-55.805
X80.982Y-58.923
X81.25Y-69.25
X81.5Y-62.5
X82.0Y-42.98
X82.022Y-49.204
X82.17Y-55.903
X82.25Y-75.25
X82.5Y-63.5
X82.55Y-122.85
X82.55Y-125.05
X82.75Y-61.0
X82.75Y-62.0
X82.75Y-78.0
X82.75Y-79.0
X82.898Y-111.43
X83.0Y-109.9
X83.27Y-136.43
X83.278Y-126.828
X83.387Y-45.902
X83.5Y-113.7
X83.75Y-61.0
X83.75Y-62.0
X83.75Y-78.0
X83.75Y-79.0
X83.87Y-55.005
X84.2Y-107.4
X84.225Y-139.9
X84.37Y-53.87
X84.431Y-127.06
X84.462Y-123.211
X84.5Y-117.0
X84.5Y-118.0
X84.5Y-132.0
X84.5Y-133.0
X84.75Y-61.0
X84.75Y-62.0
X84.75Y-78.0
X84.75Y-79.0
X84.85Y-136.38
X85.232Y-113.6
X85.3Y-128.6
X85.5Y-116.0
X85.5Y-117.0
X85.5Y-118.0
X85.5Y-119.0
X85.5Y-131.0
X85.5Y-132.0
X85.5Y-133.0
X85.5Y-134.0
X85.75Y-61.0
X85.75Y-62.0
X85.75Y-78.0
X85.75Y-79.0
X85.8Y-121.5
X86.022Y-52.461
X86.075Y-139.05
X86.225Y-113.6
X86.4Y-103.6
X86.471Y-111.843
X86.5Y-116.0
X86.5Y-117.0
X86.5Y-118.0
X86.5Y-119.0
X86.5Y-131.0
X86.5Y-132.0
X86.5Y-133.0
X86.5Y-134.0
X86.65Y-128.34
X86.75Y-61.0
X86.75Y-62.0
X86.75Y-78.0
X86.75Y-79.0
X87.333Y-42.617
X87.333Y-43.617
X87.333Y-44.617
X87.4Y-109.661
X87.5Y-116.0
X87.5Y-117.0
X87.5Y-118.0
X87.5Y-119.0
X87.5Y-131.0
X87.5Y-132.0
X87.5Y-133.0
X87.5Y-134.0
X87.598Y-138.018
X87.6Y-54.2
X87.75Y-61.0
X87.75Y-62.0
X87.75Y-76.75
X87.75Y-78.0
X87.75Y-79.0
X87.821Y-107.496
X88.0Y-64.5
X88.114Y-127.098
X88.333Y-42.617
X88.333Y-43.617
X88.333Y-44.617
X88.5Y-116.0
X88.5Y-117.0
X88.5Y-118.0
X88.5Y-119.0
X88.5Y-131.0
X88.5Y-132.0
X88.5Y-133.0
X88.5Y-134.0
X88.961Y-124.352
X89.028Y-109.815
X89.175Y-140.7
X89.291Y-56.85
X89.333Y-42.617
X89.333Y-43.617
X89.333Y-44.617
X90.011Y-49.05
X90.011Y-50.1
X90.17Y-136.779
X90.278Y-122.762
X90.37Y-111.38
X90.423Y-101.021
X90.5Y-116.0
X90.5Y-117.0
X90.5Y-118.0
X90.5Y-119.0
X90.5Y-131.0
X90.5Y-132.0
X90.5Y-133.0
X90.5Y-134.0
X90.694Y-124.282
X90.985Y-125.189
X91.296Y-57.547
X91.313Y-136.779
X91.5Y-113.6
X91.5Y-116.0
X91.5Y-117.0
X91.5Y-118.0
X91.5Y-119.0
X91.5Y-131.0
X91.5Y-132.0
X91.5Y-133.0
X91.5Y-134.0
X91.9Y-99.9
X92.055Y-101.586
X92.246Y-114.243
X92.493Y-131.021
X92.5Y-116.0
X92.5Y-117.0
X92.5Y-118.0
X92.5Y-119.0
X92.5Y-132.0
X92.5Y-133.0
X92.5Y-134.0
X92.54Y-129.62
X92.74Y-135.702
X92.822Y-127.742
X92.945Y-46.233
X94.0Y-41.238
X94.5Y-124.7
X94.592Y-125.67
X94.869Y-133.858
X94.996Y-137.16
X95.5Y-124.7
X95.5Y-125.7
X95.583Y-45.667
X95.6Y-51.6
X96.6Y-48.836
X97.0Y-52.3
X97.5Y-116.0
X97.5Y-117.0
X97.5Y-118.0
X97.5Y-119.0
X97.5Y-131.0
X97.5Y-132.0
X97.5Y-133.0
X97.5Y-134.0
X97.54Y-120.71
X98.003Y-129.46
X98.1Y-114.25
X98.16Y-135.755
X98.5Y-116.0
X98.5Y-117.0
X98.5Y-118.0
X98.5Y-119.0
X98.5Y-131.0
X98.5Y-132.0
X98.5Y-133.0
X98.5Y-134.0
X98.5Y-136.8
X98.806Y-51.181
X98.9Y-42.3
X98.96Y-126.355
X98.99Y-113.6
X99.149Y-125.337
X99.49Y-124.052
X99.5Y-116.0
X99.5Y-117.0
X99.5Y-118.0
X99.5Y-119.0
X99.5Y-131.0
X99.5Y-132.0
X99.5Y-133.0
X99.5Y-134.0
X99.5Y-136.875
X99.85Y-54.95
X99.9Y-58.9
X100.1Y-47.433
X100.31Y-111.88
X100.5Y-52.302
X100.5Y-67.5
X100.5Y-68.5
X100.5Y-69.5
X100.5Y-70.5
X100.5Y-71.5
X100.5Y-72.5
X100.5Y-77.1
X100.5Y-78.1
X100.5Y-79.1
X100.8Y-140.825
X101.0Y-110.0
X101.075Y-127.614
X101.379Y-67.621
X101.4Y-131.0
X101.4Y-132.0
X101.4Y-133.0
X101.4Y-134.0
X101.5Y-68.5
X101.5Y-69.5
X101.5Y-70.5
X101.5Y-71.5
X101.5Y-72.5
X101.5Y-77.1
X101.5Y-78.1
X101.5Y-79.1
X101.5Y-116.0
X101.5Y-117.0
X101.5Y-118.0
X101.5Y-119.0
X101.718Y-47.433
X101.78Y-122.834
X102.118Y-113.394
X102.235Y-125.476
X102.4Y-131.0
X102.4Y-132.0
X102.4Y-133.0
X102.4Y-134.0
X102.5Y-116.0
X102.5Y-117.0
X102.5Y-118.0
X102.5Y-119.0
X102.733Y-64.441
X102.75Y-74.0
X102.903Y-51.798
X103.251Y-48.26
X103.252Y-121.612
X103.4Y-131.0
X103.4Y-132.0
X103.4Y-133.0
X103.4Y-134.0
X103.5Y-116.0
X103.5Y-117.0
X103.5Y-118.0
X103.5Y-119.0
X103.63Y-136.37
X103.782Y-64.441
X103.795Y-74.0
X103.8Y-139.812
X104.1Y-128.6
X104.15Y-53.62
X104.24Y-134.065
X104.4Y-131.0
X104.4Y-132.0
X104.4Y-133.0
X104.5Y-116.0
X104.5Y-117.0
X104.5Y-118.0
X104.5Y-119.0
X104.608Y-121.365
X104.919Y-136.5
X105.0Y-113.6
X105.3Y-58.95
X105.389Y-53.946
X105.4Y-132.0
X105.4Y-133.0
X105.5Y-81.0
X105.5Y-82.0
X105.5Y-83.0
X105.5Y-84.0
X105.5Y-117.0
X105.5Y-118.0
X105.577Y-127.068
X105.748Y-123.148
X105.75Y-139.85
X106.109Y-110.879
X106.3Y-136.5
X106.5Y-81.0
X106.5Y-82.0
X106.5Y-83.0
X106.5Y-84.0
X106.7Y-113.6
X106.807Y-52.578
X106.863Y-123.521
X107.3Y-60.25
X107.3Y-61.25
X107.35Y-125.1
X107.4Y-58.95
X107.5Y-81.0
X107.5Y-82.0
X107.5Y-83.0
X107.5Y-84.0
X107.8Y-109.4
X107.9Y-127.1
X108.083Y-52.622
X108.096Y-54.033
X108.3Y-60.25
X108.3Y-61.25
X108.4Y-102.7
X108.493Y-126.341
X108.5Y-81.0
X108.5Y-82.0
X108.5Y-83.0
X108.5Y-84.0
X108.533Y-51.137
X108.9Y-48.8
X109.1Y-73.3
X109.3Y-60.25
X109.3Y-61.25
X109.3Y-122.4
X109.5Y-81.0
X109.5Y-82.0
X109.5Y-83.0
X109.5Y-84.0
X109.5Y-127.0
X110.3Y-60.25
X110.3Y-61.25
X110.319Y-54.505
X110.363Y-45.085
X110.5Y-81.0
X110.5Y-82.0
X110.5Y-83.0
X110.5Y-84.0
X111.3Y-57.7
X111.3Y-60.25
X111.3Y-61.25
X111.5Y-81.0
X111.5Y-82.0
X111.5Y-83.0
X111.5Y-84.0
X111.987Y-47.7
X112.268Y-57.277
X112.512Y-41.8
X112.8Y-45.142
X112.8Y-73.3
X113.4Y-42.8
X113.805Y-54.478
X114.3Y-53.664
X114.3Y-58.166
X115.5Y-64.0
X115.5Y-65.0
X115.5Y-66.0
X115.5Y-67.0
X115.5Y-68.0
X115.5Y-69.0
X115.5Y-70.0
X115.5Y-71.0
X115.5Y-72.0
X115.5Y-73.0
X115.5Y-74.0
X115.5Y-75.0
X115.5Y-76.0
X115.5Y-77.0
X115.5Y-78.0
X115.5Y-79.0
X115.9Y-43.3
X115.951Y-87.249
X116.332Y-62.357
X116.5Y-64.0
X116.5Y-65.0
X116.5Y-66.0
X116.5Y-67.0
X116.5Y-68.0
X116.5Y-69.0
X116.5Y-70.0
X116.5Y-71.0
X116.5Y-72.0
X116.5Y-73.0
X116.5Y-74.0
X116.5Y-75.0
X116.5Y-76.0
X116.5Y-77.0
X116.5Y-78.0
X116.5Y-79.0
X117.145Y-54.254
X117.221Y-57.734
X117.3Y-88.011
X117.856Y-60.706
X118.023Y-55.524
X118.098Y-48.236
X118.11Y-86.995
X118.186Y-58.953
X118.364Y-50.165
X118.416Y-51.977
X118.872Y-84.328
X119.656Y-62.186
X119.99Y-60.554
X120.015Y-85.471
X120.04Y-54.503
X120.04Y-58.329
X120.726Y-65.453
X120.929Y-67.081
X121.0Y-63.056
X121.556Y-53.418
X121.717Y-68.732
X121.793Y-52.495
X121.868Y-56.998
X121.895Y-66.548
X123.2Y-50.0
X123.317Y-53.0
X123.673Y-69.376
X123.723Y-64.176
X125.4Y-66.853
X125.527Y-64.211
X126.467Y-70.688
X126.492Y-65.453
X128.826Y-68.976
X130.126Y-64.576
X130.326Y-66.676
X130.6Y-69.0
X131.2Y-50.0
X132.463Y-69.111
X132.55Y-64.29
X133.2Y-49.2
X133.676Y-64.5
X133.957Y-68.902
X135.268Y-66.636
X135.9Y-69.2
X135.926Y-64.256
X136.989Y-70.819
X137.176Y-64.456
X138.4Y-49.5
T3
X52.6Y-43.0
X52.6Y-75.0
X52.6Y-172.0
X53.303Y-41.303
X53.303Y-44.697
X53.303Y-73.303
X53.303Y-76.697
X53.303Y-170.303
X53.303Y-173.697
X55.0Y-40.6
X55.0Y-45.4
X55.0Y-72.6
X55.0Y-77.4
X55.0Y-169.6
X55.0Y-174.4
X56.697Y-41.303
X56.697Y-44.697
X56.697Y-73.303
X56.697Y-76.697
X56.697Y-170.303
X56.697Y-173.697
X57.4Y-43.0
X57.4Y-75.0
X57.4Y-172.0
X133.6Y-43.0
X133.6Y-75.0
X133.6Y-172.0
X134.303Y-41.303
X134.303Y-44.697
X134.303Y-73.303
X134.303Y-76.697
X134.303Y-170.303
X134.303Y-173.697
X136.0Y-40.6
X136.0Y-45.4
X136.0Y-72.6
X136.0Y-77.4
X136.0Y-169.6
X136.0Y-174.4
X137.697Y-41.303
X137.697Y-44.697
X137.697Y-73.303
X137.697Y-76.697
X137.697Y-170.303
X137.697Y-173.697
X138.4Y-43.0
X138.4Y-75.0
X138.4Y-172.0
T5
X123.525Y-72.9
X124.795Y-72.9
X126.065Y-72.9
X127.335Y-72.9
X128.605Y-72.9
X129.875Y-72.9
T6
X104.5Y-41.325
X104.5Y-43.865
X108.1Y-41.325
X108.1Y-43.865
T7
X126.827Y-53.2
X126.827Y-55.74
X126.827Y-58.28
X126.827Y-60.82
X135.463Y-53.2
X135.463Y-55.74
X135.463Y-58.28
X135.463Y-60.82
T8
X60.3Y-50.2
X65.0Y-47.2
X65.0Y-53.2
T9
X55.0Y-43.0
X55.0Y-75.0
X55.0Y-172.0
X136.0Y-43.0
X136.0Y-75.0
X136.0Y-172.0
T4
X122.88Y-42.025G85X122.88Y-41.225
G05
X122.88Y-46.355G85X122.88Y-45.255
G05
X131.52Y-42.025G85X131.52Y-41.225
G05
X131.52Y-46.355G85X131.52Y-45.255
G05
M30
