G04 #@! TF.GenerationSoftware,KiCad,Pcbnew,8.0.1-8.0.1-1~ubuntu22.04.1*
G04 #@! TF.CreationDate,2024-09-27T09:22:18+02:00*
G04 #@! TF.ProjectId,nerdqaxe+,6e657264-7161-4786-952b-2e6b69636164,rev?*
G04 #@! TF.SameCoordinates,Original*
G04 #@! TF.FileFunction,Soldermask,Top*
G04 #@! TF.FilePolarity,Negative*
%FSLAX46Y46*%
G04 Gerber Fmt 4.6, Leading zero omitted, Abs format (unit mm)*
G04 Created by KiCad (PCBNEW 8.0.1-8.0.1-1~ubuntu22.04.1) date 2024-09-27 09:22:18*
%MOMM*%
%LPD*%
G01*
G04 APERTURE LIST*
G04 Aperture macros list*
%AMRoundRect*
0 Rectangle with rounded corners*
0 $1 Rounding radius*
0 $2 $3 $4 $5 $6 $7 $8 $9 X,Y pos of 4 corners*
0 Add a 4 corners polygon primitive as box body*
4,1,4,$2,$3,$4,$5,$6,$7,$8,$9,$2,$3,0*
0 Add four circle primitives for the rounded corners*
1,1,$1+$1,$2,$3*
1,1,$1+$1,$4,$5*
1,1,$1+$1,$6,$7*
1,1,$1+$1,$8,$9*
0 Add four rect primitives between the rounded corners*
20,1,$1+$1,$2,$3,$4,$5,0*
20,1,$1+$1,$4,$5,$6,$7,0*
20,1,$1+$1,$6,$7,$8,$9,0*
20,1,$1+$1,$8,$9,$2,$3,0*%
%AMFreePoly0*
4,1,19,0.500000,-0.750000,0.000000,-0.750000,0.000000,-0.744911,-0.071157,-0.744911,-0.207708,-0.704816,-0.327430,-0.627875,-0.420627,-0.520320,-0.479746,-0.390866,-0.500000,-0.250000,-0.500000,0.250000,-0.479746,0.390866,-0.420627,0.520320,-0.327430,0.627875,-0.207708,0.704816,-0.071157,0.744911,0.000000,0.744911,0.000000,0.750000,0.500000,0.750000,0.500000,-0.750000,0.500000,-0.750000,
$1*%
%AMFreePoly1*
4,1,19,0.000000,0.744911,0.071157,0.744911,0.207708,0.704816,0.327430,0.627875,0.420627,0.520320,0.479746,0.390866,0.500000,0.250000,0.500000,-0.250000,0.479746,-0.390866,0.420627,-0.520320,0.327430,-0.627875,0.207708,-0.704816,0.071157,-0.744911,0.000000,-0.744911,0.000000,-0.750000,-0.500000,-0.750000,-0.500000,0.750000,0.000000,0.750000,0.000000,0.744911,0.000000,0.744911,
$1*%
G04 Aperture macros list end*
%ADD10RoundRect,0.250000X-0.325000X-1.100000X0.325000X-1.100000X0.325000X1.100000X-0.325000X1.100000X0*%
%ADD11C,1.500000*%
%ADD12RoundRect,0.250000X-0.450000X0.262500X-0.450000X-0.262500X0.450000X-0.262500X0.450000X0.262500X0*%
%ADD13RoundRect,0.250000X-0.250000X-0.475000X0.250000X-0.475000X0.250000X0.475000X-0.250000X0.475000X0*%
%ADD14RoundRect,0.250000X0.250000X0.475000X-0.250000X0.475000X-0.250000X-0.475000X0.250000X-0.475000X0*%
%ADD15RoundRect,0.250000X-0.650000X0.325000X-0.650000X-0.325000X0.650000X-0.325000X0.650000X0.325000X0*%
%ADD16RoundRect,0.125000X0.000010X-0.325000X0.000010X0.325000X-0.000010X0.325000X-0.000010X-0.325000X0*%
%ADD17R,0.250000X0.450000*%
%ADD18RoundRect,0.125000X-0.000010X0.325000X-0.000010X-0.325000X0.000010X-0.325000X0.000010X0.325000X0*%
%ADD19R,1.750000X1.750000*%
%ADD20R,2.500000X1.750000*%
%ADD21RoundRect,0.250000X-1.100000X0.325000X-1.100000X-0.325000X1.100000X-0.325000X1.100000X0.325000X0*%
%ADD22R,3.300000X2.800000*%
%ADD23C,0.800000*%
%ADD24C,6.400000*%
%ADD25RoundRect,0.250000X1.100000X-0.325000X1.100000X0.325000X-1.100000X0.325000X-1.100000X-0.325000X0*%
%ADD26RoundRect,0.050000X-0.100000X0.285000X-0.100000X-0.285000X0.100000X-0.285000X0.100000X0.285000X0*%
%ADD27RoundRect,0.250000X0.450000X-0.262500X0.450000X0.262500X-0.450000X0.262500X-0.450000X-0.262500X0*%
%ADD28RoundRect,0.062500X0.062500X-0.375000X0.062500X0.375000X-0.062500X0.375000X-0.062500X-0.375000X0*%
%ADD29RoundRect,0.062500X0.375000X-0.062500X0.375000X0.062500X-0.375000X0.062500X-0.375000X-0.062500X0*%
%ADD30R,4.150000X4.150000*%
%ADD31RoundRect,0.250000X0.475000X-0.250000X0.475000X0.250000X-0.475000X0.250000X-0.475000X-0.250000X0*%
%ADD32RoundRect,0.127000X0.373000X0.023000X-0.373000X0.023000X-0.373000X-0.023000X0.373000X-0.023000X0*%
%ADD33R,0.500000X0.300000*%
%ADD34RoundRect,0.127000X0.078000X1.273000X-0.078000X1.273000X-0.078000X-1.273000X0.078000X-1.273000X0*%
%ADD35RoundRect,0.127000X-0.373000X-0.023000X0.373000X-0.023000X0.373000X0.023000X-0.373000X0.023000X0*%
%ADD36R,0.410000X6.300000*%
%ADD37R,3.400000X5.639000*%
%ADD38C,4.000000*%
%ADD39C,1.700000*%
%ADD40RoundRect,0.250000X-0.900000X1.000000X-0.900000X-1.000000X0.900000X-1.000000X0.900000X1.000000X0*%
%ADD41RoundRect,0.100000X-0.100000X0.637500X-0.100000X-0.637500X0.100000X-0.637500X0.100000X0.637500X0*%
%ADD42RoundRect,0.250000X-0.475000X0.250000X-0.475000X-0.250000X0.475000X-0.250000X0.475000X0.250000X0*%
%ADD43RoundRect,0.150000X-0.150000X0.512500X-0.150000X-0.512500X0.150000X-0.512500X0.150000X0.512500X0*%
%ADD44R,1.000000X1.000000*%
%ADD45O,1.000000X1.000000*%
%ADD46C,1.100000*%
%ADD47R,2.030000X1.730000*%
%ADD48O,2.030000X1.730000*%
%ADD49RoundRect,0.250000X-0.262500X-0.450000X0.262500X-0.450000X0.262500X0.450000X-0.262500X0.450000X0*%
%ADD50RoundRect,0.250000X0.262500X0.450000X-0.262500X0.450000X-0.262500X-0.450000X0.262500X-0.450000X0*%
%ADD51RoundRect,0.250000X0.450000X0.800000X-0.450000X0.800000X-0.450000X-0.800000X0.450000X-0.800000X0*%
%ADD52RoundRect,0.250000X1.500000X1.000000X-1.500000X1.000000X-1.500000X-1.000000X1.500000X-1.000000X0*%
%ADD53RoundRect,0.150000X-0.512500X-0.150000X0.512500X-0.150000X0.512500X0.150000X-0.512500X0.150000X0*%
%ADD54R,1.500000X4.000000*%
%ADD55RoundRect,0.225000X-0.250000X0.225000X-0.250000X-0.225000X0.250000X-0.225000X0.250000X0.225000X0*%
%ADD56FreePoly0,90.000000*%
%ADD57FreePoly1,90.000000*%
%ADD58R,0.300000X0.800000*%
%ADD59R,2.000000X2.000000*%
%ADD60R,2.600000X2.600000*%
%ADD61C,2.600000*%
%ADD62RoundRect,0.087500X0.725000X0.087500X-0.725000X0.087500X-0.725000X-0.087500X0.725000X-0.087500X0*%
%ADD63RoundRect,0.225000X0.225000X0.375000X-0.225000X0.375000X-0.225000X-0.375000X0.225000X-0.375000X0*%
%ADD64R,3.810000X4.245000*%
G04 APERTURE END LIST*
D10*
X113500000Y-68250000D03*
X116450000Y-68250000D03*
D11*
X62000000Y-92000000D03*
D12*
X81600000Y-29237500D03*
X81600000Y-31062500D03*
D13*
X95550000Y-38800000D03*
X97450000Y-38800000D03*
D14*
X133626315Y-59976089D03*
X131726315Y-59976089D03*
D15*
X55000000Y-49125000D03*
X55000000Y-52075000D03*
D16*
X91250000Y-114700000D03*
D17*
X91250000Y-114475000D03*
D16*
X90750000Y-114700000D03*
D17*
X90750000Y-114475000D03*
D16*
X90250000Y-114700000D03*
D17*
X90250000Y-114475000D03*
D16*
X89750000Y-114700000D03*
D17*
X89750000Y-114475000D03*
D16*
X89250000Y-114700000D03*
D17*
X89250000Y-114475000D03*
D16*
X88750000Y-114700000D03*
D17*
X88750000Y-114475000D03*
D16*
X88250000Y-114700000D03*
D17*
X88250000Y-114475000D03*
D16*
X87750000Y-114700000D03*
D17*
X87750000Y-114475000D03*
D16*
X87250000Y-114700000D03*
D17*
X87250000Y-114475000D03*
D16*
X86750000Y-114700000D03*
D17*
X86750000Y-114475000D03*
D16*
X86250000Y-114700000D03*
D17*
X86250000Y-114475000D03*
D16*
X85750000Y-114700000D03*
D17*
X85750000Y-114475000D03*
D16*
X85250000Y-114700000D03*
D17*
X85250000Y-114475000D03*
D16*
X84750000Y-114700000D03*
D17*
X84750000Y-114475000D03*
D16*
X84250000Y-114700000D03*
D17*
X84250000Y-114475000D03*
X84250000Y-120527000D03*
D18*
X84250000Y-120302000D03*
D17*
X84750000Y-120527000D03*
D18*
X84750000Y-120302000D03*
D17*
X85250000Y-120527000D03*
D18*
X85250000Y-120302000D03*
D17*
X85750000Y-120527000D03*
D18*
X85750000Y-120302000D03*
D17*
X86250000Y-120527000D03*
D18*
X86250000Y-120302000D03*
D17*
X86750000Y-120527000D03*
D18*
X86750000Y-120302000D03*
D17*
X87250000Y-120527000D03*
D18*
X87250000Y-120302000D03*
D17*
X87750000Y-120527000D03*
D18*
X87750000Y-120302000D03*
D17*
X88250000Y-120527000D03*
D18*
X88250000Y-120302000D03*
D17*
X88750000Y-120527000D03*
D18*
X88750000Y-120302000D03*
D17*
X89250000Y-120527000D03*
D18*
X89250000Y-120302000D03*
D17*
X89750000Y-120527000D03*
D18*
X89750000Y-120302000D03*
D17*
X90250000Y-120527000D03*
D18*
X90250000Y-120302000D03*
D17*
X90750000Y-120527000D03*
D18*
X90750000Y-120302000D03*
D17*
X91250000Y-120527000D03*
D18*
X91250000Y-120302000D03*
D19*
X90725000Y-118575000D03*
X90725000Y-116425000D03*
D20*
X85150000Y-118575000D03*
X88050000Y-118575000D03*
X85150000Y-116425000D03*
X88050000Y-116425000D03*
D21*
X101500000Y-66025000D03*
X101500000Y-68975000D03*
D12*
X79700000Y-29237500D03*
X79700000Y-31062500D03*
X91900000Y-31197500D03*
X91900000Y-33022500D03*
D22*
X90180000Y-55200000D03*
X97790000Y-55200000D03*
D12*
X52862500Y-49156250D03*
X52862500Y-50981250D03*
X52862500Y-52556250D03*
X52862500Y-54381250D03*
D23*
X52600000Y-28000000D03*
X53302944Y-26302944D03*
X53302944Y-29697056D03*
X55000000Y-25600000D03*
D24*
X55000000Y-28000000D03*
D23*
X55000000Y-30400000D03*
X56697056Y-26302944D03*
X56697056Y-29697056D03*
X57400000Y-28000000D03*
D25*
X104750000Y-54450000D03*
X104750000Y-51500000D03*
D21*
X73000000Y-65925000D03*
X73000000Y-68875000D03*
D26*
X109840000Y-124280000D03*
X109340000Y-124280000D03*
X108840000Y-124280000D03*
X108840000Y-125760000D03*
X109340000Y-125760000D03*
X109840000Y-125760000D03*
D27*
X89900000Y-33012500D03*
X89900000Y-31187500D03*
D14*
X137126315Y-53556089D03*
X135226315Y-53556089D03*
D27*
X93493750Y-44912500D03*
X93493750Y-43087500D03*
D13*
X76450000Y-71400000D03*
X78350000Y-71400000D03*
D21*
X63300000Y-65800000D03*
X63300000Y-68750000D03*
D14*
X86850000Y-72100000D03*
X84950000Y-72100000D03*
D28*
X87843750Y-41375000D03*
X88343750Y-41375000D03*
X88843750Y-41375000D03*
X89343750Y-41375000D03*
X89843750Y-41375000D03*
X90343750Y-41375000D03*
X90843750Y-41375000D03*
X91343750Y-41375000D03*
X91843750Y-41375000D03*
X92343750Y-41375000D03*
D29*
X93031250Y-40687500D03*
X93031250Y-40187500D03*
X93031250Y-39687500D03*
X93031250Y-39187500D03*
X93031250Y-38687500D03*
X93031250Y-38187500D03*
X93031250Y-37687500D03*
X93031250Y-37187500D03*
X93031250Y-36687500D03*
X93031250Y-36187500D03*
D28*
X92343750Y-35500000D03*
X91843750Y-35500000D03*
X91343750Y-35500000D03*
X90843750Y-35500000D03*
X90343750Y-35500000D03*
X89843750Y-35500000D03*
X89343750Y-35500000D03*
X88843750Y-35500000D03*
X88343750Y-35500000D03*
X87843750Y-35500000D03*
D29*
X87156250Y-36187500D03*
X87156250Y-36687500D03*
X87156250Y-37187500D03*
X87156250Y-37687500D03*
X87156250Y-38187500D03*
X87156250Y-38687500D03*
X87156250Y-39187500D03*
X87156250Y-39687500D03*
X87156250Y-40187500D03*
X87156250Y-40687500D03*
D30*
X90093750Y-38437500D03*
D12*
X84900000Y-62887500D03*
X84900000Y-64712500D03*
D13*
X79637500Y-36800000D03*
X81537500Y-36800000D03*
D31*
X74400000Y-54950000D03*
X74400000Y-53050000D03*
D32*
X83050000Y-69337500D03*
D33*
X83300000Y-69337500D03*
D32*
X83050000Y-68837500D03*
D33*
X83300000Y-68837500D03*
D32*
X83050000Y-68337500D03*
D33*
X83300000Y-68337500D03*
D32*
X83050000Y-67837500D03*
D33*
X83300000Y-67837500D03*
D32*
X83050000Y-67337500D03*
D33*
X83300000Y-67337500D03*
D34*
X82750000Y-65587500D03*
D32*
X83050000Y-64337500D03*
X83050000Y-64837500D03*
X83050000Y-65337500D03*
X83050000Y-65837500D03*
X83050000Y-66337500D03*
X83050000Y-66837500D03*
D33*
X83300000Y-64337500D03*
X83300000Y-64837500D03*
X83300000Y-65337500D03*
X83300000Y-65837500D03*
X83300000Y-66337500D03*
X83300000Y-66837500D03*
X77900000Y-64337500D03*
X77900000Y-64837500D03*
X77900000Y-65337500D03*
X77900000Y-65837500D03*
X77900000Y-66337500D03*
X77900000Y-66837500D03*
D35*
X78150000Y-64337500D03*
X78150000Y-64837500D03*
X78150000Y-65337500D03*
X78150000Y-65837500D03*
X78150000Y-66337500D03*
X78150000Y-66837500D03*
D34*
X78450000Y-65587500D03*
D33*
X77900000Y-67337500D03*
D35*
X78150000Y-67337500D03*
D33*
X77900000Y-67837500D03*
D35*
X78150000Y-67837500D03*
D33*
X77900000Y-68337500D03*
D35*
X78150000Y-68337500D03*
D33*
X77900000Y-68837500D03*
D35*
X78150000Y-68837500D03*
D33*
X77900000Y-69337500D03*
D35*
X78150000Y-69337500D03*
D36*
X79475000Y-66837500D03*
D37*
X80600000Y-66837500D03*
D36*
X81725000Y-66837500D03*
D31*
X87900000Y-33050000D03*
X87900000Y-31150000D03*
D38*
X132500000Y-162500000D03*
D31*
X76500000Y-64100000D03*
X76500000Y-62200000D03*
D13*
X83350000Y-30850000D03*
X85250000Y-30850000D03*
D27*
X88093750Y-45212500D03*
X88093750Y-43387500D03*
D39*
X88310000Y-25250000D03*
X90850000Y-25250000D03*
X93390000Y-25250000D03*
X95930000Y-25250000D03*
X98470000Y-25250000D03*
X101010000Y-25250000D03*
X103550000Y-25250000D03*
X106090000Y-25250000D03*
X108630000Y-25250000D03*
X111170000Y-25250000D03*
X113710000Y-25250000D03*
X116250000Y-25250000D03*
X116250000Y-48170000D03*
X113710000Y-48170000D03*
X111170000Y-48170000D03*
X108630000Y-48170000D03*
X106090000Y-48170000D03*
X103550000Y-48170000D03*
X101010000Y-48170000D03*
X98470000Y-48170000D03*
X95930000Y-48170000D03*
X93390000Y-48170000D03*
X90850000Y-48170000D03*
X88310000Y-48170000D03*
D12*
X97700000Y-31187500D03*
X97700000Y-33012500D03*
D40*
X69400000Y-45650000D03*
X69400000Y-49950000D03*
D41*
X127980000Y-54077500D03*
X127330000Y-54077500D03*
X126680000Y-54077500D03*
X126030000Y-54077500D03*
X125380000Y-54077500D03*
X124730000Y-54077500D03*
X124080000Y-54077500D03*
X124080000Y-59802500D03*
X124730000Y-59802500D03*
X125380000Y-59802500D03*
X126030000Y-59802500D03*
X126680000Y-59802500D03*
X127330000Y-59802500D03*
X127980000Y-59802500D03*
D14*
X81537500Y-43400000D03*
X79637500Y-43400000D03*
D42*
X129860000Y-54130000D03*
X129860000Y-56030000D03*
D31*
X75600000Y-58850000D03*
X75600000Y-56950000D03*
D10*
X113475000Y-55250000D03*
X116425000Y-55250000D03*
D27*
X138880000Y-55670000D03*
X138880000Y-53845000D03*
D13*
X95550000Y-44800000D03*
X97450000Y-44800000D03*
D14*
X82900000Y-60437500D03*
X81000000Y-60437500D03*
D12*
X95800000Y-31187500D03*
X95800000Y-33012500D03*
D27*
X83600000Y-38012500D03*
X83600000Y-36187500D03*
D10*
X113500000Y-65000000D03*
X116450000Y-65000000D03*
D42*
X90080000Y-43350000D03*
X90080000Y-45250000D03*
X78500000Y-60150000D03*
X78500000Y-62050000D03*
D43*
X137176315Y-55576089D03*
X136226315Y-55576089D03*
X135276315Y-55576089D03*
X135276315Y-57851089D03*
X137176315Y-57851089D03*
D44*
X129875000Y-62900000D03*
D45*
X128605000Y-62900000D03*
X127335000Y-62900000D03*
X126065000Y-62900000D03*
X124795000Y-62900000D03*
X123525000Y-62900000D03*
D42*
X84950000Y-57350000D03*
X84950000Y-59250000D03*
D46*
X77660000Y-44980000D03*
D47*
X75500000Y-39900000D03*
D48*
X75500000Y-42440000D03*
X75500000Y-44980000D03*
X75500000Y-47520000D03*
D38*
X57500000Y-162500000D03*
D12*
X93800000Y-31207500D03*
X93800000Y-33032500D03*
D38*
X57500000Y-87500000D03*
D49*
X83787500Y-41200000D03*
X85612500Y-41200000D03*
D10*
X113475000Y-61750000D03*
X116425000Y-61750000D03*
D42*
X84900000Y-68387500D03*
X84900000Y-70287500D03*
D25*
X104750000Y-64225000D03*
X104750000Y-61275000D03*
X101500000Y-54475000D03*
X101500000Y-51525000D03*
D21*
X66500000Y-65875000D03*
X66500000Y-68825000D03*
D13*
X95550000Y-40800000D03*
X97450000Y-40800000D03*
X56750000Y-38700000D03*
X58650000Y-38700000D03*
D11*
X62000000Y-158000000D03*
D25*
X68550000Y-55275000D03*
X68550000Y-52325000D03*
D23*
X133600000Y-28000000D03*
X134302944Y-26302944D03*
X134302944Y-29697056D03*
X136000000Y-25600000D03*
D24*
X136000000Y-28000000D03*
D23*
X136000000Y-30400000D03*
X137697056Y-26302944D03*
X137697056Y-29697056D03*
X138400000Y-28000000D03*
D50*
X97412500Y-42800000D03*
X95587500Y-42800000D03*
D12*
X85500000Y-36187500D03*
X85500000Y-38012500D03*
D51*
X59500000Y-41200000D03*
X55100000Y-41200000D03*
D38*
X132500000Y-87500000D03*
D11*
X128000000Y-158000000D03*
D16*
X91250000Y-129700000D03*
D17*
X91250000Y-129475000D03*
D16*
X90750000Y-129700000D03*
D17*
X90750000Y-129475000D03*
D16*
X90250000Y-129700000D03*
D17*
X90250000Y-129475000D03*
D16*
X89750000Y-129700000D03*
D17*
X89750000Y-129475000D03*
D16*
X89250000Y-129700000D03*
D17*
X89250000Y-129475000D03*
D16*
X88750000Y-129700000D03*
D17*
X88750000Y-129475000D03*
D16*
X88250000Y-129700000D03*
D17*
X88250000Y-129475000D03*
D16*
X87750000Y-129700000D03*
D17*
X87750000Y-129475000D03*
D16*
X87250000Y-129700000D03*
D17*
X87250000Y-129475000D03*
D16*
X86750000Y-129700000D03*
D17*
X86750000Y-129475000D03*
D16*
X86250000Y-129700000D03*
D17*
X86250000Y-129475000D03*
D16*
X85750000Y-129700000D03*
D17*
X85750000Y-129475000D03*
D16*
X85250000Y-129700000D03*
D17*
X85250000Y-129475000D03*
D16*
X84750000Y-129700000D03*
D17*
X84750000Y-129475000D03*
D16*
X84250000Y-129700000D03*
D17*
X84250000Y-129475000D03*
X84250000Y-135527000D03*
D18*
X84250000Y-135302000D03*
D17*
X84750000Y-135527000D03*
D18*
X84750000Y-135302000D03*
D17*
X85250000Y-135527000D03*
D18*
X85250000Y-135302000D03*
D17*
X85750000Y-135527000D03*
D18*
X85750000Y-135302000D03*
D17*
X86250000Y-135527000D03*
D18*
X86250000Y-135302000D03*
D17*
X86750000Y-135527000D03*
D18*
X86750000Y-135302000D03*
D17*
X87250000Y-135527000D03*
D18*
X87250000Y-135302000D03*
D17*
X87750000Y-135527000D03*
D18*
X87750000Y-135302000D03*
D17*
X88250000Y-135527000D03*
D18*
X88250000Y-135302000D03*
D17*
X88750000Y-135527000D03*
D18*
X88750000Y-135302000D03*
D17*
X89250000Y-135527000D03*
D18*
X89250000Y-135302000D03*
D17*
X89750000Y-135527000D03*
D18*
X89750000Y-135302000D03*
D17*
X90250000Y-135527000D03*
D18*
X90250000Y-135302000D03*
D17*
X90750000Y-135527000D03*
D18*
X90750000Y-135302000D03*
D17*
X91250000Y-135527000D03*
D18*
X91250000Y-135302000D03*
D19*
X90725000Y-133575000D03*
X90725000Y-131425000D03*
D20*
X85150000Y-133575000D03*
X88050000Y-133575000D03*
X85150000Y-131425000D03*
X88050000Y-131425000D03*
D31*
X129840000Y-59920000D03*
X129840000Y-58020000D03*
D23*
X133600000Y-172000000D03*
X134302944Y-170302944D03*
X134302944Y-173697056D03*
X136000000Y-169600000D03*
D24*
X136000000Y-172000000D03*
D23*
X136000000Y-174400000D03*
X137697056Y-170302944D03*
X137697056Y-173697056D03*
X138400000Y-172000000D03*
D21*
X101500000Y-56250000D03*
X101500000Y-59200000D03*
D52*
X66150000Y-60550000D03*
X59650000Y-60550000D03*
D53*
X57362500Y-49050000D03*
X57362500Y-50000000D03*
X57362500Y-50950000D03*
X59637500Y-50950000D03*
X59637500Y-50000000D03*
X59637500Y-49050000D03*
D18*
X98750000Y-120300000D03*
D17*
X98750000Y-120525000D03*
D18*
X99250000Y-120300000D03*
D17*
X99250000Y-120525000D03*
D18*
X99750000Y-120300000D03*
D17*
X99750000Y-120525000D03*
D18*
X100250000Y-120300000D03*
D17*
X100250000Y-120525000D03*
D18*
X100750000Y-120300000D03*
D17*
X100750000Y-120525000D03*
D18*
X101250000Y-120300000D03*
D17*
X101250000Y-120525000D03*
D18*
X101750000Y-120300000D03*
D17*
X101750000Y-120525000D03*
D18*
X102250000Y-120300000D03*
D17*
X102250000Y-120525000D03*
D18*
X102750000Y-120300000D03*
D17*
X102750000Y-120525000D03*
D18*
X103250000Y-120300000D03*
D17*
X103250000Y-120525000D03*
D18*
X103750000Y-120300000D03*
D17*
X103750000Y-120525000D03*
D18*
X104250000Y-120300000D03*
D17*
X104250000Y-120525000D03*
D18*
X104750000Y-120300000D03*
D17*
X104750000Y-120525000D03*
D18*
X105250000Y-120300000D03*
D17*
X105250000Y-120525000D03*
D18*
X105750000Y-120300000D03*
D17*
X105750000Y-120525000D03*
X105750000Y-114473000D03*
D16*
X105750000Y-114698000D03*
D17*
X105250000Y-114473000D03*
D16*
X105250000Y-114698000D03*
D17*
X104750000Y-114473000D03*
D16*
X104750000Y-114698000D03*
D17*
X104250000Y-114473000D03*
D16*
X104250000Y-114698000D03*
D17*
X103750000Y-114473000D03*
D16*
X103750000Y-114698000D03*
D17*
X103250000Y-114473000D03*
D16*
X103250000Y-114698000D03*
D17*
X102750000Y-114473000D03*
D16*
X102750000Y-114698000D03*
D17*
X102250000Y-114473000D03*
D16*
X102250000Y-114698000D03*
D17*
X101750000Y-114473000D03*
D16*
X101750000Y-114698000D03*
D17*
X101250000Y-114473000D03*
D16*
X101250000Y-114698000D03*
D17*
X100750000Y-114473000D03*
D16*
X100750000Y-114698000D03*
D17*
X100250000Y-114473000D03*
D16*
X100250000Y-114698000D03*
D17*
X99750000Y-114473000D03*
D16*
X99750000Y-114698000D03*
D17*
X99250000Y-114473000D03*
D16*
X99250000Y-114698000D03*
D17*
X98750000Y-114473000D03*
D16*
X98750000Y-114698000D03*
D19*
X99275000Y-116425000D03*
X99275000Y-118575000D03*
D20*
X104850000Y-116425000D03*
X101950000Y-116425000D03*
X104850000Y-118575000D03*
X101950000Y-118575000D03*
D14*
X137126315Y-59856089D03*
X135226315Y-59856089D03*
D54*
X59500000Y-45500000D03*
X55900000Y-45500000D03*
D12*
X84950000Y-52287500D03*
X84950000Y-54112500D03*
D43*
X133676315Y-55696089D03*
X132726315Y-55696089D03*
X131776315Y-55696089D03*
X131776315Y-57971089D03*
X133676315Y-57971089D03*
D23*
X52600000Y-65000000D03*
X53302944Y-63302944D03*
X53302944Y-66697056D03*
X55000000Y-62600000D03*
D24*
X55000000Y-65000000D03*
D23*
X55000000Y-67400000D03*
X56697056Y-63302944D03*
X56697056Y-66697056D03*
X57400000Y-65000000D03*
D14*
X82425000Y-71137500D03*
X80525000Y-71137500D03*
X133626315Y-53576089D03*
X131726315Y-53576089D03*
D27*
X84100000Y-44812500D03*
X84100000Y-42987500D03*
D18*
X98750000Y-135300000D03*
D17*
X98750000Y-135525000D03*
D18*
X99250000Y-135300000D03*
D17*
X99250000Y-135525000D03*
D18*
X99750000Y-135300000D03*
D17*
X99750000Y-135525000D03*
D18*
X100250000Y-135300000D03*
D17*
X100250000Y-135525000D03*
D18*
X100750000Y-135300000D03*
D17*
X100750000Y-135525000D03*
D18*
X101250000Y-135300000D03*
D17*
X101250000Y-135525000D03*
D18*
X101750000Y-135300000D03*
D17*
X101750000Y-135525000D03*
D18*
X102250000Y-135300000D03*
D17*
X102250000Y-135525000D03*
D18*
X102750000Y-135300000D03*
D17*
X102750000Y-135525000D03*
D18*
X103250000Y-135300000D03*
D17*
X103250000Y-135525000D03*
D18*
X103750000Y-135300000D03*
D17*
X103750000Y-135525000D03*
D18*
X104250000Y-135300000D03*
D17*
X104250000Y-135525000D03*
D18*
X104750000Y-135300000D03*
D17*
X104750000Y-135525000D03*
D18*
X105250000Y-135300000D03*
D17*
X105250000Y-135525000D03*
D18*
X105750000Y-135300000D03*
D17*
X105750000Y-135525000D03*
X105750000Y-129473000D03*
D16*
X105750000Y-129698000D03*
D17*
X105250000Y-129473000D03*
D16*
X105250000Y-129698000D03*
D17*
X104750000Y-129473000D03*
D16*
X104750000Y-129698000D03*
D17*
X104250000Y-129473000D03*
D16*
X104250000Y-129698000D03*
D17*
X103750000Y-129473000D03*
D16*
X103750000Y-129698000D03*
D17*
X103250000Y-129473000D03*
D16*
X103250000Y-129698000D03*
D17*
X102750000Y-129473000D03*
D16*
X102750000Y-129698000D03*
D17*
X102250000Y-129473000D03*
D16*
X102250000Y-129698000D03*
D17*
X101750000Y-129473000D03*
D16*
X101750000Y-129698000D03*
D17*
X101250000Y-129473000D03*
D16*
X101250000Y-129698000D03*
D17*
X100750000Y-129473000D03*
D16*
X100750000Y-129698000D03*
D17*
X100250000Y-129473000D03*
D16*
X100250000Y-129698000D03*
D17*
X99750000Y-129473000D03*
D16*
X99750000Y-129698000D03*
D17*
X99250000Y-129473000D03*
D16*
X99250000Y-129698000D03*
D17*
X98750000Y-129473000D03*
D16*
X98750000Y-129698000D03*
D19*
X99275000Y-131425000D03*
X99275000Y-133575000D03*
D20*
X104850000Y-131425000D03*
X101950000Y-131425000D03*
X104850000Y-133575000D03*
X101950000Y-133575000D03*
D27*
X86900000Y-70250000D03*
X86900000Y-68425000D03*
D14*
X97450000Y-34800000D03*
X95550000Y-34800000D03*
D46*
X77660000Y-33180000D03*
D47*
X75500000Y-28100000D03*
D48*
X75500000Y-30640000D03*
X75500000Y-33180000D03*
X75500000Y-35720000D03*
D14*
X83200000Y-51737500D03*
X81300000Y-51737500D03*
D23*
X133600000Y-65000000D03*
X134302944Y-63302944D03*
X134302944Y-66697056D03*
X136000000Y-62600000D03*
D24*
X136000000Y-65000000D03*
D23*
X136000000Y-67400000D03*
X137697056Y-63302944D03*
X137697056Y-66697056D03*
X138400000Y-65000000D03*
D42*
X86100000Y-42900000D03*
X86100000Y-44800000D03*
D55*
X91793750Y-43425000D03*
X91793750Y-44975000D03*
D56*
X52700000Y-43650000D03*
D57*
X52700000Y-42350000D03*
D27*
X86950000Y-59212500D03*
X86950000Y-57387500D03*
D14*
X97450000Y-36800000D03*
X95550000Y-36800000D03*
D58*
X79837500Y-41700000D03*
X80337500Y-41700000D03*
X80837500Y-41700000D03*
X81337500Y-41700000D03*
X81337500Y-38600000D03*
X80837500Y-38600000D03*
X80337500Y-38600000D03*
X79837500Y-38600000D03*
D59*
X52850000Y-46500000D03*
D60*
X64400000Y-38200000D03*
D61*
X64400000Y-32200000D03*
X59700000Y-35200000D03*
D62*
X84500000Y-34600000D03*
X84500000Y-34100000D03*
X84500000Y-33600000D03*
X84500000Y-33100000D03*
X84500000Y-32600000D03*
X80275000Y-32600000D03*
X80275000Y-33100000D03*
X80275000Y-33600000D03*
X80275000Y-34100000D03*
X80275000Y-34600000D03*
D25*
X101500000Y-64225000D03*
X101500000Y-61275000D03*
D63*
X115900000Y-28530000D03*
X112600000Y-28530000D03*
D64*
X64300000Y-49187500D03*
X64300000Y-42812500D03*
D32*
X83025000Y-58637500D03*
D33*
X83275000Y-58637500D03*
D32*
X83025000Y-58137500D03*
D33*
X83275000Y-58137500D03*
D32*
X83025000Y-57637500D03*
D33*
X83275000Y-57637500D03*
D32*
X83025000Y-57137500D03*
D33*
X83275000Y-57137500D03*
D32*
X83025000Y-56637500D03*
D33*
X83275000Y-56637500D03*
D34*
X82725000Y-54887500D03*
D32*
X83025000Y-53637500D03*
X83025000Y-54137500D03*
X83025000Y-54637500D03*
X83025000Y-55137500D03*
X83025000Y-55637500D03*
X83025000Y-56137500D03*
D33*
X83275000Y-53637500D03*
X83275000Y-54137500D03*
X83275000Y-54637500D03*
X83275000Y-55137500D03*
X83275000Y-55637500D03*
X83275000Y-56137500D03*
X77875000Y-53637500D03*
X77875000Y-54137500D03*
X77875000Y-54637500D03*
X77875000Y-55137500D03*
X77875000Y-55637500D03*
X77875000Y-56137500D03*
D35*
X78125000Y-53637500D03*
X78125000Y-54137500D03*
X78125000Y-54637500D03*
X78125000Y-55137500D03*
X78125000Y-55637500D03*
X78125000Y-56137500D03*
D34*
X78425000Y-54887500D03*
D33*
X77875000Y-56637500D03*
D35*
X78125000Y-56637500D03*
D33*
X77875000Y-57137500D03*
D35*
X78125000Y-57137500D03*
D33*
X77875000Y-57637500D03*
D35*
X78125000Y-57637500D03*
D33*
X77875000Y-58137500D03*
D35*
X78125000Y-58137500D03*
D33*
X77875000Y-58637500D03*
D35*
X78125000Y-58637500D03*
D36*
X79450000Y-56137500D03*
D37*
X80575000Y-56137500D03*
D36*
X81700000Y-56137500D03*
D22*
X90180000Y-65100000D03*
X97790000Y-65100000D03*
D31*
X76400000Y-54950000D03*
X76400000Y-53050000D03*
D14*
X82925000Y-62437500D03*
X81025000Y-62437500D03*
X86950000Y-61100000D03*
X85050000Y-61100000D03*
D11*
X128000000Y-92000000D03*
D21*
X69700000Y-65875000D03*
X69700000Y-68825000D03*
X104750000Y-66025000D03*
X104750000Y-68975000D03*
D25*
X71800000Y-55275000D03*
X71800000Y-52325000D03*
D31*
X75600000Y-69587500D03*
X75600000Y-67687500D03*
D21*
X104750000Y-56250000D03*
X104750000Y-59200000D03*
D31*
X74500000Y-64100000D03*
X74500000Y-62200000D03*
D14*
X59750000Y-52700000D03*
X57850000Y-52700000D03*
D23*
X52600000Y-172000000D03*
X53302944Y-170302944D03*
X53302944Y-173697056D03*
X55000000Y-169600000D03*
D24*
X55000000Y-172000000D03*
D23*
X55000000Y-174400000D03*
X56697056Y-170302944D03*
X56697056Y-173697056D03*
X57400000Y-172000000D03*
D10*
X113500000Y-58500000D03*
X116450000Y-58500000D03*
M02*
