M48
; DRILL file {KiCad 8.0.1-8.0.1-1~ubuntu22.04.1} date 2024-08-12T21:33:43+0200
; FORMAT={-:-/ absolute / metric / decimal}
; #@! TF.CreationDate,2024-08-12T21:33:43+02:00
; #@! TF.GenerationSoftware,Kicad,Pcbnew,8.0.1-8.0.1-1~ubuntu22.04.1
; #@! TF.FileFunction,Plated,1,4,PTH
FMAT,2
METRIC
; #@! TA.AperFunction,Plated,PTH,ViaDrill
T1C0.300
; #@! TA.AperFunction,Plated,PTH,ComponentDrill
T2C0.300
; #@! TA.AperFunction,Plated,PTH,ViaDrill
T3C0.400
; #@! TA.AperFunction,Plated,PTH,ComponentDrill
T4C0.500
; #@! TA.AperFunction,Plated,PTH,ComponentDrill
T5C0.650
; #@! TA.AperFunction,Plated,PTH,ComponentDrill
T6C1.000
; #@! TA.AperFunction,Plated,PTH,ComponentDrill
T7C1.020
; #@! TA.AperFunction,Plated,PTH,ComponentDrill
T8C1.600
; #@! TA.AperFunction,Plated,PTH,ComponentDrill
T9C1.850
; #@! TA.AperFunction,Plated,PTH,ComponentDrill
T10C3.200
%
G90
G05
T1
X53.762Y-54.469
X54.3Y-52.9
X55.0Y-52.9
X55.7Y-52.9
X57.1Y-52.0
X57.1Y-52.7
X57.1Y-53.4
X58.5Y-49.9
X58.5Y-50.6
X58.5Y-51.3
X76.789Y-69.733
X77.075Y-58.605
X77.102Y-57.755
X77.13Y-68.49
X77.56Y-69.968
X78.489Y-59.197
X79.0Y-70.9
X79.1Y-53.6
X79.1Y-54.9
X79.1Y-56.15
X79.1Y-57.442
X79.1Y-68.1
X79.11Y-64.3
X79.11Y-65.6
X79.11Y-66.85
X79.148Y-58.661
X79.222Y-69.37
X79.5Y-62.2
X80.188Y-40.7
X80.487Y-29.237
X80.987Y-40.8
X81.537Y-33.1
X81.737Y-38.55
X81.737Y-41.7
X82.05Y-53.6
X82.05Y-54.9
X82.05Y-56.2
X82.05Y-57.4
X82.05Y-58.7
X82.05Y-64.3
X82.05Y-65.6
X82.05Y-66.9
X82.05Y-68.1
X82.05Y-69.4
X82.237Y-37.05
X82.55Y-122.85
X82.55Y-125.05
X82.562Y-30.125
X82.8Y-59.2
X82.888Y-41.375
X82.898Y-111.43
X83.0Y-38.7
X83.0Y-69.8
X83.0Y-109.9
X83.27Y-136.43
X83.278Y-126.828
X83.438Y-32.35
X83.448Y-113.567
X83.542Y-39.4
X83.981Y-58.462
X84.02Y-69.417
X84.2Y-72.0
X84.2Y-107.4
X84.225Y-139.9
X84.431Y-127.06
X84.462Y-123.211
X84.575Y-70.95
X84.8Y-40.1
X84.8Y-41.8
X84.85Y-136.38
X84.9Y-43.3
X85.2Y-44.812
X85.232Y-113.6
X85.3Y-128.6
X85.628Y-58.728
X85.787Y-32.575
X85.8Y-121.5
X85.88Y-38.98
X85.987Y-31.2
X86.075Y-139.05
X86.087Y-33.475
X86.12Y-39.809
X86.225Y-113.6
X86.4Y-103.6
X86.471Y-111.843
X86.65Y-128.34
X86.9Y-71.0
X87.0Y-58.7
X87.4Y-109.661
X87.598Y-138.018
X87.821Y-107.496
X88.114Y-127.098
X88.743Y-42.358
X88.961Y-124.352
X89.028Y-109.815
X89.1Y-45.212
X89.175Y-140.7
X89.522Y-34.623
X89.583Y-42.226
X89.6Y-26.4
X89.685Y-128.685
X89.75Y-121.325
X89.8Y-136.447
X89.9Y-113.6
X90.278Y-122.762
X90.37Y-111.38
X90.423Y-101.021
X90.433Y-136.877
X90.543Y-42.205
X90.594Y-34.6
X90.694Y-124.282
X90.985Y-125.189
X91.175Y-30.275
X91.313Y-136.779
X91.5Y-113.6
X91.882Y-45.489
X91.9Y-99.9
X92.055Y-101.586
X92.2Y-48.9
X92.246Y-114.243
X92.38Y-30.5
X92.732Y-42.146
X92.74Y-135.702
X92.822Y-127.742
X93.0Y-130.2
X93.296Y-41.51
X93.4Y-51.7
X93.746Y-34.3
X93.81Y-30.59
X94.5Y-124.7
X94.592Y-125.67
X94.6Y-39.975
X94.996Y-137.16
X95.5Y-124.7
X95.5Y-125.7
X97.0Y-45.6
X97.05Y-30.25
X97.144Y-37.7
X97.144Y-40.0
X97.54Y-120.71
X97.81Y-129.58
X98.0Y-28.8
X98.1Y-114.25
X98.16Y-135.755
X98.4Y-44.7
X98.5Y-39.4
X98.5Y-136.8
X98.96Y-126.355
X98.99Y-113.6
X99.149Y-125.337
X99.38Y-37.92
X99.416Y-136.945
X99.49Y-124.052
X100.068Y-136.525
X100.1Y-39.6
X100.2Y-121.807
X100.24Y-128.55
X100.31Y-111.88
X100.546Y-113.601
X100.8Y-140.825
X101.0Y-110.0
X101.075Y-127.614
X101.78Y-122.834
X102.118Y-113.394
X102.235Y-125.476
X103.252Y-121.612
X103.63Y-136.37
X103.8Y-139.812
X104.1Y-128.6
X104.608Y-121.365
X104.919Y-136.5
X105.0Y-113.6
X105.577Y-127.068
X105.748Y-123.148
X105.75Y-139.85
X106.109Y-110.879
X106.65Y-136.5
X106.7Y-113.6
X106.863Y-123.521
X107.35Y-125.1
X107.8Y-109.4
X107.9Y-127.1
X108.4Y-102.7
X108.493Y-126.341
X109.3Y-122.4
X109.5Y-127.0
X114.135Y-68.737
X115.735Y-68.737
X117.65Y-47.8
X118.4Y-48.5
X124.1Y-55.1
X126.0Y-55.1
X127.0Y-50.8
X127.0Y-52.4
X127.2Y-61.3
X128.64Y-59.92
X128.69Y-54.13
X129.82Y-56.82
T2
X88.594Y-36.938
X88.594Y-37.938
X88.594Y-38.938
X88.594Y-39.938
X89.594Y-36.938
X89.594Y-37.938
X89.594Y-38.938
X89.594Y-39.938
X90.594Y-36.938
X90.594Y-37.938
X90.594Y-38.938
X90.594Y-39.938
X91.594Y-36.938
X91.594Y-37.938
X91.594Y-38.938
X91.594Y-39.938
T3
X56.25Y-40.25
X56.25Y-41.25
X56.25Y-42.25
X56.6Y-59.5
X56.6Y-60.5
X56.6Y-61.5
X57.6Y-59.5
X57.6Y-60.5
X57.6Y-61.5
X62.6Y-69.85
X62.6Y-70.85
X63.6Y-69.85
X63.6Y-70.85
X64.6Y-69.85
X64.6Y-70.85
X65.6Y-69.85
X65.6Y-70.85
X66.6Y-69.85
X66.6Y-70.85
X67.6Y-69.85
X67.6Y-70.85
X68.2Y-51.4
X68.6Y-69.85
X68.6Y-70.85
X69.2Y-51.4
X69.6Y-69.9
X69.6Y-70.9
X70.2Y-51.4
X70.6Y-69.9
X70.6Y-70.9
X71.215Y-50.417
X71.215Y-51.417
X71.6Y-69.9
X71.6Y-70.9
X72.215Y-50.417
X72.215Y-51.417
X72.6Y-69.9
X72.6Y-70.9
X73.215Y-50.417
X73.215Y-51.417
X73.6Y-69.9
X73.6Y-70.9
X74.215Y-50.417
X74.215Y-51.417
X74.4Y-59.5
X74.4Y-60.5
X74.4Y-61.5
X75.215Y-50.417
X75.215Y-51.417
X75.4Y-60.5
X75.4Y-61.5
X76.1Y-51.4
X76.114Y-50.375
X80.6Y-53.6
X80.6Y-54.9
X80.6Y-56.2
X80.6Y-57.4
X80.6Y-58.7
X80.6Y-64.3
X80.6Y-65.6
X80.6Y-66.9
X80.6Y-68.1
X80.6Y-69.4
X84.19Y-117.99
X84.19Y-132.99
X84.2Y-115.84
X84.2Y-119.15
X84.2Y-130.84
X84.2Y-134.15
X84.21Y-117.0
X84.21Y-132.0
X85.14Y-115.84
X85.14Y-117.0
X85.15Y-117.99
X85.15Y-130.83
X85.15Y-131.99
X85.16Y-119.15
X85.16Y-132.98
X85.17Y-134.14
X86.09Y-118.0
X86.09Y-119.15
X86.09Y-133.0
X86.09Y-134.15
X86.1Y-115.85
X86.1Y-117.0
X86.1Y-130.85
X86.1Y-132.0
X87.09Y-115.84
X87.09Y-117.99
X87.09Y-130.84
X87.09Y-132.99
X87.1Y-117.0
X87.1Y-119.15
X87.1Y-132.0
X87.1Y-134.15
X88.04Y-115.84
X88.04Y-117.0
X88.05Y-117.99
X88.05Y-130.83
X88.05Y-131.99
X88.06Y-119.15
X88.06Y-132.98
X88.07Y-134.14
X88.99Y-115.85
X88.99Y-117.0
X88.99Y-118.0
X88.99Y-119.15
X88.99Y-130.85
X88.99Y-132.0
X88.99Y-133.0
X88.99Y-134.15
X90.15Y-115.85
X90.15Y-117.0
X90.15Y-118.0
X90.15Y-119.15
X90.15Y-130.85
X90.15Y-132.0
X90.15Y-133.0
X90.15Y-134.15
X91.3Y-115.85
X91.3Y-117.0
X91.3Y-118.0
X91.3Y-119.15
X91.3Y-130.85
X91.3Y-132.0
X91.3Y-133.0
X91.3Y-134.15
X94.869Y-133.858
X98.7Y-115.85
X98.7Y-117.0
X98.7Y-118.0
X98.7Y-119.15
X98.7Y-130.85
X98.7Y-132.0
X98.7Y-133.0
X98.7Y-134.15
X98.9Y-50.5
X98.9Y-51.5
X98.9Y-59.2
X98.9Y-60.2
X98.9Y-61.2
X98.9Y-68.9
X98.9Y-69.9
X99.85Y-115.85
X99.85Y-117.0
X99.85Y-118.0
X99.85Y-119.15
X99.85Y-130.85
X99.85Y-132.0
X99.85Y-133.0
X99.85Y-134.15
X99.9Y-50.5
X99.9Y-51.5
X99.9Y-59.2
X99.9Y-60.2
X99.9Y-61.2
X99.9Y-68.9
X99.9Y-69.9
X100.9Y-50.5
X100.9Y-60.2
X100.9Y-69.9
X101.01Y-115.85
X101.01Y-117.0
X101.01Y-118.0
X101.01Y-119.15
X101.01Y-130.85
X101.01Y-132.0
X101.01Y-133.0
X101.01Y-134.15
X101.9Y-50.5
X101.9Y-60.2
X101.9Y-69.9
X101.95Y-130.84
X101.95Y-132.0
X101.96Y-115.85
X101.96Y-116.98
X101.96Y-118.0
X101.96Y-119.15
X101.96Y-132.99
X101.97Y-134.15
X102.9Y-50.5
X102.9Y-60.2
X102.9Y-69.9
X102.9Y-115.85
X102.9Y-118.0
X102.9Y-130.85
X102.9Y-133.0
X102.91Y-117.01
X102.91Y-119.16
X102.91Y-132.01
X102.91Y-134.16
X103.9Y-50.5
X103.9Y-60.2
X103.9Y-69.9
X103.9Y-118.0
X103.9Y-119.15
X103.9Y-133.0
X103.9Y-134.15
X103.91Y-115.85
X103.91Y-117.0
X103.91Y-130.85
X103.91Y-132.0
X104.85Y-130.84
X104.85Y-132.0
X104.86Y-115.85
X104.86Y-116.98
X104.86Y-118.0
X104.86Y-119.15
X104.86Y-132.99
X104.87Y-134.15
X104.9Y-50.5
X104.9Y-60.2
X104.9Y-69.9
X105.79Y-118.0
X105.79Y-133.0
X105.8Y-115.85
X105.8Y-119.16
X105.8Y-130.85
X105.8Y-134.16
X105.81Y-117.01
X105.81Y-132.01
X105.9Y-50.5
X105.9Y-60.2
X105.9Y-69.9
X117.475Y-54.0
X117.475Y-55.0
X117.475Y-56.0
X117.475Y-57.0
X117.475Y-58.0
X117.475Y-59.0
X117.475Y-60.0
X117.475Y-61.0
X117.475Y-62.0
X117.475Y-63.0
X117.475Y-64.0
X117.475Y-65.0
X117.475Y-66.0
X117.475Y-67.0
X117.475Y-68.0
X117.475Y-69.0
X118.475Y-54.0
X118.475Y-55.0
X118.475Y-56.0
X118.475Y-57.0
X118.475Y-58.0
X118.475Y-59.0
X118.475Y-60.0
X118.475Y-61.0
X118.475Y-62.0
X118.475Y-63.0
X118.475Y-64.0
X118.475Y-65.0
X118.475Y-66.0
X118.475Y-67.0
X118.475Y-68.0
X118.475Y-69.0
X122.5Y-54.0
X132.463Y-59.111
X132.55Y-54.29
X133.676Y-54.5
X133.957Y-58.902
X135.176Y-52.1
X135.268Y-56.636
X135.9Y-59.2
X135.926Y-54.256
X136.989Y-60.819
X137.176Y-54.456
X138.8Y-53.0
T4
X52.6Y-28.0
X52.6Y-65.0
X52.6Y-172.0
X53.303Y-26.303
X53.303Y-29.697
X53.303Y-63.303
X53.303Y-66.697
X53.303Y-170.303
X53.303Y-173.697
X55.0Y-25.6
X55.0Y-30.4
X55.0Y-62.6
X55.0Y-67.4
X55.0Y-169.6
X55.0Y-174.4
X56.697Y-26.303
X56.697Y-29.697
X56.697Y-63.303
X56.697Y-66.697
X56.697Y-170.303
X56.697Y-173.697
X57.4Y-28.0
X57.4Y-65.0
X57.4Y-172.0
X133.6Y-28.0
X133.6Y-65.0
X133.6Y-172.0
X134.303Y-26.303
X134.303Y-29.697
X134.303Y-63.303
X134.303Y-66.697
X134.303Y-170.303
X134.303Y-173.697
X136.0Y-25.6
X136.0Y-30.4
X136.0Y-62.6
X136.0Y-67.4
X136.0Y-169.6
X136.0Y-174.4
X137.697Y-26.303
X137.697Y-29.697
X137.697Y-63.303
X137.697Y-66.697
X137.697Y-170.303
X137.697Y-173.697
X138.4Y-28.0
X138.4Y-65.0
X138.4Y-172.0
T5
X123.525Y-62.9
X124.795Y-62.9
X126.065Y-62.9
X127.335Y-62.9
X128.605Y-62.9
X129.875Y-62.9
T6
X88.31Y-25.25
X88.31Y-48.17
X90.85Y-25.25
X90.85Y-48.17
X93.39Y-25.25
X93.39Y-48.17
X95.93Y-25.25
X95.93Y-48.17
X98.47Y-25.25
X98.47Y-48.17
X101.01Y-25.25
X101.01Y-48.17
X103.55Y-25.25
X103.55Y-48.17
X106.09Y-25.25
X106.09Y-48.17
X108.63Y-25.25
X108.63Y-48.17
X111.17Y-25.25
X111.17Y-48.17
X113.71Y-25.25
X113.71Y-48.17
X116.25Y-25.25
X116.25Y-48.17
T7
X75.5Y-28.1
X75.5Y-30.64
X75.5Y-33.18
X75.5Y-35.72
X75.5Y-39.9
X75.5Y-42.44
X75.5Y-44.98
X75.5Y-47.52
T8
X59.7Y-35.2
X64.4Y-32.2
X64.4Y-38.2
T9
X90.565Y-72.565
X90.565Y-77.0
X90.565Y-81.435
X95.0Y-72.565
X95.0Y-77.0
X95.0Y-81.435
X99.435Y-72.565
X99.435Y-77.0
X99.435Y-81.435
X104.565Y-72.565
X104.565Y-77.0
X104.565Y-81.435
X109.0Y-72.565
X109.0Y-77.0
X109.0Y-81.435
X113.435Y-72.565
X113.435Y-77.0
X113.435Y-81.435
T10
X55.0Y-28.0
X55.0Y-65.0
X55.0Y-172.0
X136.0Y-28.0
X136.0Y-65.0
X136.0Y-172.0
M30
