G04 #@! TF.GenerationSoftware,KiCad,Pcbnew,8.0.1-8.0.1-1~ubuntu22.04.1*
G04 #@! TF.CreationDate,2024-08-12T21:33:39+02:00*
G04 #@! TF.ProjectId,nerdqaxe+,6e657264-7161-4786-952b-2e6b69636164,rev?*
G04 #@! TF.SameCoordinates,Original*
G04 #@! TF.FileFunction,Soldermask,Bot*
G04 #@! TF.FilePolarity,Negative*
%FSLAX46Y46*%
G04 Gerber Fmt 4.6, Leading zero omitted, Abs format (unit mm)*
G04 Created by KiCad (PCBNEW 8.0.1-8.0.1-1~ubuntu22.04.1) date 2024-08-12 21:33:39*
%MOMM*%
%LPD*%
G01*
G04 APERTURE LIST*
G04 Aperture macros list*
%AMRoundRect*
0 Rectangle with rounded corners*
0 $1 Rounding radius*
0 $2 $3 $4 $5 $6 $7 $8 $9 X,Y pos of 4 corners*
0 Add a 4 corners polygon primitive as box body*
4,1,4,$2,$3,$4,$5,$6,$7,$8,$9,$2,$3,0*
0 Add four circle primitives for the rounded corners*
1,1,$1+$1,$2,$3*
1,1,$1+$1,$4,$5*
1,1,$1+$1,$6,$7*
1,1,$1+$1,$8,$9*
0 Add four rect primitives between the rounded corners*
20,1,$1+$1,$2,$3,$4,$5,0*
20,1,$1+$1,$4,$5,$6,$7,0*
20,1,$1+$1,$6,$7,$8,$9,0*
20,1,$1+$1,$8,$9,$2,$3,0*%
%AMFreePoly0*
4,1,19,0.500000,-0.750000,0.000000,-0.750000,0.000000,-0.744911,-0.071157,-0.744911,-0.207708,-0.704816,-0.327430,-0.627875,-0.420627,-0.520320,-0.479746,-0.390866,-0.500000,-0.250000,-0.500000,0.250000,-0.479746,0.390866,-0.420627,0.520320,-0.327430,0.627875,-0.207708,0.704816,-0.071157,0.744911,0.000000,0.744911,0.000000,0.750000,0.500000,0.750000,0.500000,-0.750000,0.500000,-0.750000,
$1*%
%AMFreePoly1*
4,1,19,0.000000,0.744911,0.071157,0.744911,0.207708,0.704816,0.327430,0.627875,0.420627,0.520320,0.479746,0.390866,0.500000,0.250000,0.500000,-0.250000,0.479746,-0.390866,0.420627,-0.520320,0.327430,-0.627875,0.207708,-0.704816,0.071157,-0.744911,0.000000,-0.744911,0.000000,-0.750000,-0.500000,-0.750000,-0.500000,0.750000,0.000000,0.750000,0.000000,0.744911,0.000000,0.744911,
$1*%
G04 Aperture macros list end*
%ADD10C,1.500000*%
%ADD11C,0.800000*%
%ADD12C,6.400000*%
%ADD13C,4.000000*%
%ADD14C,1.700000*%
%ADD15R,1.000000X1.000000*%
%ADD16O,1.000000X1.000000*%
%ADD17C,1.100000*%
%ADD18R,2.030000X1.730000*%
%ADD19O,2.030000X1.730000*%
%ADD20R,2.600000X2.600000*%
%ADD21C,2.600000*%
%ADD22RoundRect,0.250000X-0.250000X-0.475000X0.250000X-0.475000X0.250000X0.475000X-0.250000X0.475000X0*%
%ADD23RoundRect,0.250000X0.250000X0.475000X-0.250000X0.475000X-0.250000X-0.475000X0.250000X-0.475000X0*%
%ADD24RoundRect,0.250000X-0.450000X0.262500X-0.450000X-0.262500X0.450000X-0.262500X0.450000X0.262500X0*%
%ADD25RoundRect,0.250000X0.262500X0.450000X-0.262500X0.450000X-0.262500X-0.450000X0.262500X-0.450000X0*%
%ADD26C,3.200000*%
%ADD27RoundRect,0.250000X0.475000X-0.250000X0.475000X0.250000X-0.475000X0.250000X-0.475000X-0.250000X0*%
%ADD28RoundRect,0.250000X0.450000X-0.262500X0.450000X0.262500X-0.450000X0.262500X-0.450000X-0.262500X0*%
%ADD29RoundRect,0.225000X-0.225000X-0.250000X0.225000X-0.250000X0.225000X0.250000X-0.225000X0.250000X0*%
%ADD30RoundRect,0.250000X-0.475000X0.250000X-0.475000X-0.250000X0.475000X-0.250000X0.475000X0.250000X0*%
%ADD31RoundRect,0.250000X-0.262500X-0.450000X0.262500X-0.450000X0.262500X0.450000X-0.262500X0.450000X0*%
%ADD32FreePoly0,180.000000*%
%ADD33FreePoly1,180.000000*%
%ADD34RoundRect,0.225000X0.250000X-0.225000X0.250000X0.225000X-0.250000X0.225000X-0.250000X-0.225000X0*%
%ADD35R,1.000000X0.900000*%
%ADD36RoundRect,0.250000X1.100000X-0.325000X1.100000X0.325000X-1.100000X0.325000X-1.100000X-0.325000X0*%
%ADD37RoundRect,0.225000X0.225000X0.250000X-0.225000X0.250000X-0.225000X-0.250000X0.225000X-0.250000X0*%
%ADD38RoundRect,0.050000X0.100000X-0.285000X0.100000X0.285000X-0.100000X0.285000X-0.100000X-0.285000X0*%
%ADD39FreePoly0,0.000000*%
%ADD40FreePoly1,0.000000*%
%ADD41RoundRect,0.250000X-1.100000X0.325000X-1.100000X-0.325000X1.100000X-0.325000X1.100000X0.325000X0*%
G04 APERTURE END LIST*
D10*
X62000000Y-92000000D03*
D11*
X52600000Y-28000000D03*
X53302944Y-26302944D03*
X53302944Y-29697056D03*
X55000000Y-25600000D03*
D12*
X55000000Y-28000000D03*
D11*
X55000000Y-30400000D03*
X56697056Y-26302944D03*
X56697056Y-29697056D03*
X57400000Y-28000000D03*
D13*
X132500000Y-162500000D03*
D14*
X88310000Y-25250000D03*
X90850000Y-25250000D03*
X93390000Y-25250000D03*
X95930000Y-25250000D03*
X98470000Y-25250000D03*
X101010000Y-25250000D03*
X103550000Y-25250000D03*
X106090000Y-25250000D03*
X108630000Y-25250000D03*
X111170000Y-25250000D03*
X113710000Y-25250000D03*
X116250000Y-25250000D03*
X116250000Y-48170000D03*
X113710000Y-48170000D03*
X111170000Y-48170000D03*
X108630000Y-48170000D03*
X106090000Y-48170000D03*
X103550000Y-48170000D03*
X101010000Y-48170000D03*
X98470000Y-48170000D03*
X95930000Y-48170000D03*
X93390000Y-48170000D03*
X90850000Y-48170000D03*
X88310000Y-48170000D03*
D15*
X129875000Y-62900000D03*
D16*
X128605000Y-62900000D03*
X127335000Y-62900000D03*
X126065000Y-62900000D03*
X124795000Y-62900000D03*
X123525000Y-62900000D03*
D17*
X77660000Y-44980000D03*
D18*
X75500000Y-39900000D03*
D19*
X75500000Y-42440000D03*
X75500000Y-44980000D03*
X75500000Y-47520000D03*
D13*
X57500000Y-162500000D03*
X57500000Y-87500000D03*
D10*
X62000000Y-158000000D03*
D11*
X133600000Y-28000000D03*
X134302944Y-26302944D03*
X134302944Y-29697056D03*
X136000000Y-25600000D03*
D12*
X136000000Y-28000000D03*
D11*
X136000000Y-30400000D03*
X137697056Y-26302944D03*
X137697056Y-29697056D03*
X138400000Y-28000000D03*
D13*
X132500000Y-87500000D03*
D10*
X128000000Y-158000000D03*
D11*
X133600000Y-172000000D03*
X134302944Y-170302944D03*
X134302944Y-173697056D03*
X136000000Y-169600000D03*
D12*
X136000000Y-172000000D03*
D11*
X136000000Y-174400000D03*
X137697056Y-170302944D03*
X137697056Y-173697056D03*
X138400000Y-172000000D03*
X52600000Y-65000000D03*
X53302944Y-63302944D03*
X53302944Y-66697056D03*
X55000000Y-62600000D03*
D12*
X55000000Y-65000000D03*
D11*
X55000000Y-67400000D03*
X56697056Y-63302944D03*
X56697056Y-66697056D03*
X57400000Y-65000000D03*
D17*
X77660000Y-33180000D03*
D18*
X75500000Y-28100000D03*
D19*
X75500000Y-30640000D03*
X75500000Y-33180000D03*
X75500000Y-35720000D03*
D11*
X133600000Y-65000000D03*
X134302944Y-63302944D03*
X134302944Y-66697056D03*
X136000000Y-62600000D03*
D12*
X136000000Y-65000000D03*
D11*
X136000000Y-67400000D03*
X137697056Y-63302944D03*
X137697056Y-66697056D03*
X138400000Y-65000000D03*
D20*
X64400000Y-38200000D03*
D21*
X64400000Y-32200000D03*
X59700000Y-35200000D03*
D10*
X128000000Y-92000000D03*
D11*
X52600000Y-172000000D03*
X53302944Y-170302944D03*
X53302944Y-173697056D03*
X55000000Y-169600000D03*
D12*
X55000000Y-172000000D03*
D11*
X55000000Y-174400000D03*
X56697056Y-170302944D03*
X56697056Y-173697056D03*
X57400000Y-172000000D03*
D22*
X90640000Y-129300000D03*
X92540000Y-129300000D03*
D23*
X106650000Y-128100000D03*
X104750000Y-128100000D03*
D24*
X88011000Y-122277500D03*
X88011000Y-124102500D03*
D25*
X97900000Y-43000000D03*
X96075000Y-43000000D03*
D26*
X99435000Y-72565000D03*
X95000000Y-72565000D03*
X90565000Y-72565000D03*
X99435000Y-77000000D03*
X95000000Y-77000000D03*
X90565000Y-77000000D03*
X99435000Y-81435000D03*
X95000000Y-81435000D03*
X90565000Y-81435000D03*
X113435000Y-72565000D03*
X109000000Y-72565000D03*
X104565000Y-72565000D03*
X113435000Y-77000000D03*
X109000000Y-77000000D03*
X104565000Y-77000000D03*
X113435000Y-81435000D03*
X109000000Y-81435000D03*
X104565000Y-81435000D03*
D27*
X101000000Y-112650000D03*
X101000000Y-110750000D03*
X96500000Y-140250000D03*
X96500000Y-138350000D03*
D28*
X103020000Y-122372500D03*
X103020000Y-120547500D03*
D29*
X96325000Y-39400000D03*
X97875000Y-39400000D03*
D30*
X93300000Y-138350000D03*
X93300000Y-140250000D03*
D23*
X91650000Y-121325000D03*
X89750000Y-121325000D03*
D24*
X102800000Y-137987500D03*
X102800000Y-139812500D03*
D30*
X104900000Y-110750000D03*
X104900000Y-112650000D03*
D24*
X86910000Y-127637500D03*
X86910000Y-129462500D03*
D25*
X87925000Y-125850000D03*
X86100000Y-125850000D03*
D23*
X90050000Y-133270000D03*
X88150000Y-133270000D03*
D30*
X88875000Y-138000000D03*
X88875000Y-139900000D03*
D27*
X83100000Y-112575000D03*
X83100000Y-110675000D03*
D31*
X101987500Y-124100000D03*
X103812500Y-124100000D03*
D22*
X105450000Y-126100000D03*
X107350000Y-126100000D03*
X99920000Y-116670000D03*
X101820000Y-116670000D03*
X99910000Y-134590000D03*
X101810000Y-134590000D03*
X99960000Y-130590000D03*
X101860000Y-130590000D03*
X99920000Y-118670000D03*
X101820000Y-118670000D03*
D23*
X84450000Y-124100000D03*
X82550000Y-124100000D03*
D30*
X92964000Y-134650000D03*
X92964000Y-136550000D03*
D27*
X100850000Y-139875000D03*
X100850000Y-137975000D03*
X104750000Y-139850000D03*
X104750000Y-137950000D03*
X109100000Y-125300000D03*
X109100000Y-123400000D03*
D23*
X91700000Y-123325000D03*
X89800000Y-123325000D03*
D24*
X86875000Y-138037500D03*
X86875000Y-139862500D03*
D22*
X83300000Y-122100000D03*
X85200000Y-122100000D03*
D27*
X98875000Y-139875000D03*
X98875000Y-137975000D03*
D22*
X83290000Y-128160000D03*
X85190000Y-128160000D03*
D23*
X91750000Y-127325000D03*
X89850000Y-127325000D03*
D30*
X87800000Y-60450000D03*
X87800000Y-62350000D03*
D24*
X94945200Y-134698100D03*
X94945200Y-136523100D03*
D30*
X93300000Y-109800000D03*
X93300000Y-111700000D03*
D22*
X98310000Y-122610000D03*
X100210000Y-122610000D03*
D23*
X90060000Y-119300000D03*
X88160000Y-119300000D03*
X90050000Y-117300000D03*
X88150000Y-117300000D03*
D24*
X116035000Y-65337500D03*
X116035000Y-67162500D03*
D27*
X96901000Y-136545400D03*
X96901000Y-134645400D03*
D30*
X83000000Y-107175000D03*
X83000000Y-109075000D03*
D32*
X90770000Y-43690000D03*
D33*
X89470000Y-43690000D03*
D27*
X106900000Y-112650000D03*
X106900000Y-110750000D03*
D34*
X94500000Y-42775000D03*
X94500000Y-41225000D03*
D22*
X98310000Y-120630000D03*
X100210000Y-120630000D03*
D24*
X87100000Y-110775000D03*
X87100000Y-112600000D03*
D30*
X91100000Y-110575000D03*
X91100000Y-112475000D03*
D22*
X97380000Y-128610000D03*
X99280000Y-128610000D03*
D24*
X102235000Y-126087500D03*
X102235000Y-127912500D03*
D27*
X98990000Y-112650000D03*
X98990000Y-110750000D03*
D35*
X84975000Y-107425000D03*
X87125000Y-107425000D03*
X87125000Y-108975000D03*
X84975000Y-108975000D03*
D22*
X99920000Y-114670000D03*
X101820000Y-114670000D03*
X99960000Y-132590000D03*
X101860000Y-132590000D03*
D23*
X106650000Y-122100000D03*
X104750000Y-122100000D03*
D25*
X86232500Y-114570000D03*
X84407500Y-114570000D03*
X97900000Y-41100000D03*
X96075000Y-41100000D03*
D36*
X94900000Y-129775000D03*
X94900000Y-126825000D03*
D28*
X102930000Y-112612500D03*
X102930000Y-110787500D03*
D27*
X84875000Y-139900000D03*
X84875000Y-138000000D03*
D30*
X82875000Y-138000000D03*
X82875000Y-139900000D03*
D37*
X97675000Y-44700000D03*
X96125000Y-44700000D03*
D24*
X114035000Y-65337500D03*
X114035000Y-67162500D03*
D23*
X91750000Y-125325000D03*
X89850000Y-125325000D03*
D38*
X86250000Y-61960000D03*
X85750000Y-61960000D03*
X85250000Y-61960000D03*
X85250000Y-60480000D03*
X85750000Y-60480000D03*
X86250000Y-60480000D03*
D39*
X97200000Y-27250000D03*
D40*
X98500000Y-27250000D03*
D23*
X90050000Y-131270000D03*
X88150000Y-131270000D03*
D41*
X94900000Y-120525000D03*
X94900000Y-123475000D03*
D23*
X90060000Y-135260000D03*
X88160000Y-135260000D03*
X90040000Y-115300000D03*
X88140000Y-115300000D03*
D30*
X106725000Y-137950000D03*
X106725000Y-139850000D03*
X89100000Y-110575000D03*
X89100000Y-112475000D03*
X90875000Y-138000000D03*
X90875000Y-139900000D03*
D22*
X98310000Y-126610000D03*
X100210000Y-126610000D03*
D27*
X97000000Y-115200000D03*
X97000000Y-113300000D03*
D30*
X85100000Y-110675000D03*
X85100000Y-112575000D03*
D22*
X105450000Y-124100000D03*
X107350000Y-124100000D03*
D30*
X93100000Y-113300000D03*
X93100000Y-115200000D03*
D27*
X96700000Y-111700000D03*
X96700000Y-109800000D03*
D22*
X98260000Y-124610000D03*
X100160000Y-124610000D03*
D23*
X84450000Y-126100000D03*
X82550000Y-126100000D03*
M02*
